<svg width="16" height="16" viewBox="0 0 16 16" fill="none" xmlns="http://www.w3.org/2000/svg">
<g id="mdi:address-marker-outline">
<path id="Vector" d="M7.99992 4.33325C8.44195 4.33325 8.86587 4.50885 9.17843 4.82141C9.49099 5.13397 9.66659 5.55789 9.66659 5.99992C9.66659 6.21879 9.62348 6.43552 9.53972 6.63772C9.45596 6.83993 9.33319 7.02367 9.17843 7.17843C9.02367 7.33319 8.83993 7.45596 8.63772 7.53972C8.43552 7.62348 8.21879 7.66659 7.99992 7.66659C7.55789 7.66659 7.13397 7.49099 6.82141 7.17843C6.50885 6.86587 6.33325 6.44195 6.33325 5.99992C6.33325 5.55789 6.50885 5.13397 6.82141 4.82141C7.13397 4.50885 7.55789 4.33325 7.99992 4.33325ZM7.99992 1.33325C9.2376 1.33325 10.4246 1.82492 11.2998 2.70009C12.1749 3.57526 12.6666 4.76224 12.6666 5.99992C12.6666 9.49992 7.99992 14.6666 7.99992 14.6666C7.99992 14.6666 3.33325 9.49992 3.33325 5.99992C3.33325 4.76224 3.82492 3.57526 4.70009 2.70009C5.57526 1.82492 6.76224 1.33325 7.99992 1.33325ZM7.99992 2.66659C7.11586 2.66659 6.26802 3.01777 5.6429 3.6429C5.01777 4.26802 4.66659 5.11586 4.66659 5.99992C4.66659 6.66659 4.66659 7.99992 7.99992 12.4733C11.3333 7.99992 11.3333 6.66659 11.3333 5.99992C11.3333 5.11586 10.9821 4.26802 10.3569 3.6429C9.73182 3.01777 8.88397 2.66659 7.99992 2.66659Z" fill="black"/>
</g>
</svg>
