<svg width="15" height="16" viewBox="0 0 15 16" fill="none" xmlns="http://www.w3.org/2000/svg">
<path d="M4.7175 8.9675C4.6472 9.03722 4.59141 9.12017 4.55333 9.21157C4.51526 9.30296 4.49565 9.40099 4.49565 9.5C4.49565 9.59901 4.51526 9.69704 4.55333 9.78843C4.59141 9.87983 4.6472 9.96278 4.7175 10.0325L6.9675 12.2825C7.03722 12.3528 7.12017 12.4086 7.21157 12.4467C7.30296 12.4847 7.40099 12.5043 7.5 12.5043C7.59901 12.5043 7.69704 12.4847 7.78843 12.4467C7.87983 12.4086 7.96278 12.3528 8.0325 12.2825L10.2825 10.0325C10.4237 9.89127 10.5031 9.69973 10.5031 9.5C10.5031 9.30027 10.4237 9.10873 10.2825 8.9675C10.1413 8.82627 9.94973 8.74693 9.75 8.74693C9.55027 8.74693 9.35873 8.82627 9.2175 8.9675L8.25 9.9425V1.25C8.25 1.05109 8.17098 0.860322 8.03033 0.71967C7.88968 0.579018 7.69891 0.5 7.5 0.5C7.30109 0.5 7.11032 0.579018 6.96967 0.71967C6.82902 0.860322 6.75 1.05109 6.75 1.25V9.9425L5.7825 8.9675C5.71278 8.8972 5.62983 8.84141 5.53843 8.80333C5.44704 8.76525 5.34901 8.74565 5.25 8.74565C5.15099 8.74565 5.05296 8.76525 4.96157 8.80333C4.87017 8.84141 4.78722 8.8972 4.7175 8.9675ZM12 5.75H10.5C10.3011 5.75 10.1103 5.82902 9.96967 5.96967C9.82902 6.11032 9.75 6.30109 9.75 6.5C9.75 6.69891 9.82902 6.88968 9.96967 7.03033C10.1103 7.17098 10.3011 7.25 10.5 7.25H12C12.1989 7.25 12.3897 7.32902 12.5303 7.46967C12.671 7.61032 12.75 7.80109 12.75 8V13.25C12.75 13.4489 12.671 13.6397 12.5303 13.7803C12.3897 13.921 12.1989 14 12 14H3C2.80109 14 2.61032 13.921 2.46967 13.7803C2.32902 13.6397 2.25 13.4489 2.25 13.25V8C2.25 7.80109 2.32902 7.61032 2.46967 7.46967C2.61032 7.32902 2.80109 7.25 3 7.25H4.5C4.69891 7.25 4.88968 7.17098 5.03033 7.03033C5.17098 6.88968 5.25 6.69891 5.25 6.5C5.25 6.30109 5.17098 6.11032 5.03033 5.96967C4.88968 5.82902 4.69891 5.75 4.5 5.75H3C2.40326 5.75 1.83097 5.98705 1.40901 6.40901C0.987053 6.83097 0.75 7.40326 0.75 8V13.25C0.75 13.8467 0.987053 14.419 1.40901 14.841C1.83097 15.2629 2.40326 15.5 3 15.5H12C12.5967 15.5 13.169 15.2629 13.591 14.841C14.0129 14.419 14.25 13.8467 14.25 13.25V8C14.25 7.40326 14.0129 6.83097 13.591 6.40901C13.169 5.98705 12.5967 5.75 12 5.75Z" fill="#297DEE"/>
</svg>
