<svg width="10" height="10" viewBox="0 0 10 10" fill="none" xmlns="http://www.w3.org/2000/svg">
<path d="M8.75017 4.2499H3.05767L5.53267 1.7824C5.67389 1.64117 5.75323 1.44962 5.75323 1.2499C5.75323 1.05017 5.67389 0.858623 5.53267 0.717395C5.39144 0.576167 5.19989 0.496826 5.00017 0.496826C4.80044 0.496826 4.60889 0.576167 4.46767 0.717395L0.717666 4.4674C0.649386 4.53872 0.595862 4.62283 0.560166 4.7149C0.485153 4.89749 0.485153 5.1023 0.560166 5.2849C0.595862 5.37696 0.649386 5.46107 0.717666 5.5324L4.46767 9.28239C4.53739 9.35269 4.62034 9.40849 4.71173 9.44656C4.80313 9.48464 4.90116 9.50424 5.00017 9.50424C5.09918 9.50424 5.1972 9.48464 5.2886 9.44656C5.37999 9.40849 5.46294 9.35269 5.53267 9.28239C5.60296 9.21267 5.65876 9.12972 5.69684 9.03833C5.73491 8.94693 5.75452 8.8489 5.75452 8.7499C5.75452 8.65089 5.73491 8.55286 5.69684 8.46146C5.65876 8.37007 5.60296 8.28712 5.53267 8.2174L3.05767 5.7499H8.75017C8.94908 5.7499 9.13984 5.67088 9.2805 5.53023C9.42115 5.38957 9.50017 5.19881 9.50017 4.9999C9.50017 4.80098 9.42115 4.61022 9.2805 4.46957C9.13984 4.32891 8.94908 4.2499 8.75017 4.2499Z" fill="white"/>
</svg>
