<svg width="32" height="32" viewBox="0 0 32 32" fill="none" xmlns="http://www.w3.org/2000/svg">
<g id="book" clip-path="url(#clip0_79_2189)">
<path id="Vector" d="M2 5.65601C3.77 4.91601 6.308 4.11801 8.776 3.87001C11.436 3.60201 13.692 3.99601 15 5.37401V24.866C13.13 23.806 10.76 23.66 8.574 23.88C6.214 24.12 3.834 24.802 2 25.502V5.65601ZM17 5.37401C18.308 3.99601 20.564 3.60201 23.224 3.87001C25.692 4.11801 28.23 4.91601 30 5.65601V25.502C28.164 24.802 25.786 24.118 23.426 23.882C21.238 23.66 18.87 23.804 17 24.866V5.37401ZM16 3.56601C14.03 1.87201 11.174 1.62001 8.574 1.88001C5.546 2.18601 2.49 3.22401 0.586 4.09001C0.411298 4.16946 0.263151 4.29751 0.159242 4.45887C0.0553334 4.62023 5.31428e-05 4.80808 0 5.00001L0 27C4.6324e-05 27.1673 0.0420743 27.332 0.122234 27.4788C0.202394 27.6257 0.318123 27.7501 0.458822 27.8406C0.59952 27.9312 0.760689 27.985 0.927567 27.9971C1.09444 28.0092 1.2617 27.9793 1.414 27.91C3.178 27.11 6.02 26.148 8.774 25.87C11.592 25.586 13.954 26.044 15.22 27.624C15.3137 27.7408 15.4324 27.8351 15.5674 27.8998C15.7024 27.9646 15.8503 27.9982 16 27.9982C16.1497 27.9982 16.2976 27.9646 16.4326 27.8998C16.5676 27.8351 16.6863 27.7408 16.78 27.624C18.046 26.044 20.408 25.586 23.224 25.87C25.98 26.148 28.824 27.11 30.586 27.91C30.7383 27.9793 30.9056 28.0092 31.0724 27.9971C31.2393 27.985 31.4005 27.9312 31.5412 27.8406C31.6819 27.7501 31.7976 27.6257 31.8778 27.4788C31.9579 27.332 32 27.1673 32 27V5.00001C31.9999 4.80808 31.9447 4.62023 31.8408 4.45887C31.7368 4.29751 31.5887 4.16946 31.414 4.09001C29.51 3.22401 26.454 2.18601 23.426 1.88001C20.826 1.61801 17.97 1.87201 16 3.56601Z" fill="black"/>
</g>
<defs>
<clipPath id="clip0_79_2189">
<rect width="32" height="32" fill="white"/>
</clipPath>
</defs>
</svg>
