<svg width="24" height="24" viewBox="0 0 24 24" fill="none" xmlns="http://www.w3.org/2000/svg">
<g clip-path="url(#clip0_1168_27075)">
<path d="M20.775 23.55H3.225C2.925 23.55 2.625 23.475 2.3625 23.3625C1.0125 22.65 0.225 21.4875 0 19.9125C0 19.8 0 19.6875 0.075 19.6125C0.15 19.5375 0.2625 19.5 0.3375 19.5H23.625C23.7375 19.5 23.85 19.5375 23.8875 19.6125C23.9625 19.6875 24 19.8 23.9625 19.9125C23.7375 21.525 22.9125 22.6875 21.6 23.3625C21.375 23.475 21.075 23.55 20.775 23.55ZM0.7875 20.2125C1.05 21.3375 1.6875 22.2 2.7 22.725C2.85 22.8 3.0375 22.8375 3.225 22.8375H20.775C20.9625 22.8375 21.15 22.8 21.3 22.725C22.3125 22.2 22.95 21.375 23.2125 20.2125H0.7875Z" fill="#572E1C"/>
<path d="M21.1875 20.2117C21 20.2117 20.8125 20.0617 20.8125 19.8367V12.2992C20.8125 11.6617 20.2875 11.1367 19.65 11.1367H4.35C3.7125 11.1367 3.1875 11.6617 3.1875 12.2992V19.8367C3.1875 20.0242 3.0375 20.2117 2.8125 20.2117C2.5875 20.2117 2.4375 20.0617 2.4375 19.8367V12.2992C2.4375 11.2492 3.3 10.3867 4.35 10.3867H19.65C20.7 10.3867 21.5625 11.2492 21.5625 12.2992V19.8367C21.5625 20.0617 21.4125 20.2117 21.1875 20.2117Z" fill="#572E1C"/>
<path d="M19.8 16.9879C18.1125 16.9879 16.725 16.2379 15.825 15.5254C15.375 15.1504 14.7 15.1879 14.325 15.6004C14.1 15.8254 13.875 16.0129 13.575 16.1629C12.8625 16.6129 11.625 16.9879 10.8 16.9879C9.22499 17.0254 8.39999 16.4629 7.76249 16.0129C7.68749 15.9754 7.61249 15.9004 7.53749 15.8629C6.97499 15.5254 6.29999 15.3754 5.62499 15.4879C4.79999 15.6004 3.82499 15.7879 2.88749 15.9379C2.69999 15.9754 2.51249 15.8254 2.47499 15.6379C2.43749 15.4504 2.58749 15.2629 2.77499 15.2254C3.71249 15.0379 4.68749 14.8879 5.54999 14.7754C6.41249 14.6254 7.27499 14.8129 7.94999 15.2629C8.02499 15.3004 8.09999 15.3754 8.21249 15.4129C8.81249 15.8254 9.48749 16.2754 10.8375 16.2754C11.5125 16.2754 12.6 15.9379 13.2375 15.5629C13.4625 15.4129 13.6875 15.2629 13.8375 15.0754C14.5125 14.4004 15.5625 14.3629 16.3125 14.9629C17.3625 15.7879 19.05 16.6504 21.15 16.1254C21.3375 16.0879 21.525 16.2004 21.6 16.3879C21.6375 16.5754 21.525 16.7629 21.3375 16.8379C20.775 16.9504 20.2875 16.9879 19.8 16.9879ZM13.125 11.1004C12.9375 11.1004 12.75 10.9504 12.75 10.7254V5.96289H11.2125V10.7629C11.2125 10.9504 11.0625 11.1379 10.8375 11.1379C10.6125 11.1379 10.4625 10.9879 10.4625 10.7629V5.58789C10.4625 5.40039 10.6125 5.21289 10.8375 5.21289H13.0875C13.275 5.21289 13.4625 5.36289 13.4625 5.58789V10.7629C13.5 10.9504 13.35 11.1004 13.125 11.1004Z" fill="#572E1C"/>
<path d="M12 5.96211C11.8125 5.96211 11.625 5.81211 11.625 5.58711V4.34961C11.625 4.16211 11.775 3.97461 12 3.97461C12.1875 3.97461 12.375 4.12461 12.375 4.34961V5.58711C12.375 5.77461 12.1875 5.96211 12 5.96211Z" fill="#572E1C"/>
<path d="M12 4.72421C11.55 4.68671 10.725 4.34921 10.725 3.14921C10.725 2.39921 11.0625 2.06171 11.4 1.72421C11.625 1.46171 11.85 1.23671 11.925 0.749208C11.9625 0.599208 12.075 0.486708 12.225 0.449208C12.375 0.411708 12.525 0.486708 12.6 0.599208C12.6375 0.674208 13.65 2.28671 13.275 3.52421C13.125 4.04921 12.75 4.42421 12.15 4.68671C12.1125 4.72421 12.0375 4.72421 12 4.72421ZM12.3375 1.72421C12.1875 1.94921 12.0375 2.09921 11.8875 2.24921C11.625 2.51171 11.4375 2.69921 11.4375 3.14921C11.4375 3.78671 11.775 3.93671 11.9625 3.97421C12.2625 3.82421 12.4875 3.59921 12.5625 3.33671C12.7125 2.84921 12.525 2.21171 12.3375 1.72421Z" fill="#572E1C"/>
</g>
<defs>
<clipPath id="clip0_1168_27075">
<rect width="24" height="24" fill="white"/>
</clipPath>
</defs>
</svg>
