<svg width="12" height="14" viewBox="0 0 12 14" fill="none" xmlns="http://www.w3.org/2000/svg">
<mask id="path-1-inside-1_1755_2277" fill="white">
<path d="M5.99984 11.0833C6.11521 11.0833 6.22799 11.0491 6.32392 10.985C6.41985 10.9209 6.49462 10.8298 6.53877 10.7232C6.58292 10.6166 6.59447 10.4993 6.57196 10.3862C6.54945 10.273 6.4939 10.1691 6.41232 10.0875C6.33074 10.0059 6.2268 9.95038 6.11364 9.92787C6.00048 9.90536 5.88319 9.91691 5.7766 9.96107C5.67001 10.0052 5.57891 10.08 5.51481 10.1759C5.45072 10.2718 5.4165 10.3846 5.4165 10.5C5.4165 10.6547 5.47796 10.8031 5.58736 10.9125C5.69675 11.0219 5.84513 11.0833 5.99984 11.0833ZM8.9165 11.0833C9.03188 11.0833 9.14466 11.0491 9.24059 10.985C9.33652 10.9209 9.41128 10.8298 9.45543 10.7232C9.49958 10.6166 9.51114 10.4993 9.48863 10.3862C9.46612 10.273 9.41056 10.1691 9.32898 10.0875C9.2474 10.0059 9.14346 9.95038 9.03031 9.92787C8.91715 9.90536 8.79986 9.91691 8.69327 9.96107C8.58668 10.0052 8.49558 10.08 8.43148 10.1759C8.36738 10.2718 8.33317 10.3846 8.33317 10.5C8.33317 10.6547 8.39463 10.8031 8.50402 10.9125C8.61342 11.0219 8.76179 11.0833 8.9165 11.0833ZM8.9165 8.75C9.03188 8.75 9.14466 8.71578 9.24059 8.65169C9.33652 8.58759 9.41128 8.49648 9.45543 8.38989C9.49958 8.2833 9.51114 8.16602 9.48863 8.05286C9.46612 7.9397 9.41056 7.83576 9.32898 7.75418C9.2474 7.6726 9.14346 7.61705 9.03031 7.59454C8.91715 7.57203 8.79986 7.58358 8.69327 7.62773C8.58668 7.67188 8.49558 7.74665 8.43148 7.84258C8.36738 7.93851 8.33317 8.05129 8.33317 8.16666C8.33317 8.32137 8.39463 8.46974 8.50402 8.57914C8.61342 8.68854 8.76179 8.75 8.9165 8.75ZM5.99984 8.75C6.11521 8.75 6.22799 8.71578 6.32392 8.65169C6.41985 8.58759 6.49462 8.49648 6.53877 8.38989C6.58292 8.2833 6.59447 8.16602 6.57196 8.05286C6.54945 7.9397 6.4939 7.83576 6.41232 7.75418C6.33074 7.6726 6.2268 7.61705 6.11364 7.59454C6.00048 7.57203 5.88319 7.58358 5.7766 7.62773C5.67001 7.67188 5.57891 7.74665 5.51481 7.84258C5.45072 7.93851 5.4165 8.05129 5.4165 8.16666C5.4165 8.32137 5.47796 8.46974 5.58736 8.57914C5.69675 8.68854 5.84513 8.75 5.99984 8.75ZM10.0832 1.74999H9.49984V1.16666C9.49984 1.01195 9.43838 0.863579 9.32898 0.754183C9.21959 0.644786 9.07121 0.583328 8.9165 0.583328C8.76179 0.583328 8.61342 0.644786 8.50402 0.754183C8.39463 0.863579 8.33317 1.01195 8.33317 1.16666V1.74999H3.6665V1.16666C3.6665 1.01195 3.60505 0.863579 3.49565 0.754183C3.38625 0.644786 3.23788 0.583328 3.08317 0.583328C2.92846 0.583328 2.78009 0.644786 2.67069 0.754183C2.5613 0.863579 2.49984 1.01195 2.49984 1.16666V1.74999H1.9165C1.45238 1.74999 1.00726 1.93437 0.679067 2.26256C0.350878 2.59075 0.166504 3.03587 0.166504 3.5V11.6667C0.166504 12.1308 0.350878 12.5759 0.679067 12.9041C1.00726 13.2323 1.45238 13.4167 1.9165 13.4167H10.0832C10.5473 13.4167 10.9924 13.2323 11.3206 12.9041C11.6488 12.5759 11.8332 12.1308 11.8332 11.6667V3.5C11.8332 3.03587 11.6488 2.59075 11.3206 2.26256C10.9924 1.93437 10.5473 1.74999 10.0832 1.74999ZM10.6665 11.6667C10.6665 11.8214 10.605 11.9697 10.4956 12.0791C10.3863 12.1885 10.2379 12.25 10.0832 12.25H1.9165C1.76179 12.25 1.61342 12.1885 1.50402 12.0791C1.39463 11.9697 1.33317 11.8214 1.33317 11.6667V6.41666H10.6665V11.6667ZM10.6665 5.25H1.33317V3.5C1.33317 3.34529 1.39463 3.19691 1.50402 3.08752C1.61342 2.97812 1.76179 2.91666 1.9165 2.91666H2.49984V3.5C2.49984 3.6547 2.5613 3.80308 2.67069 3.91247C2.78009 4.02187 2.92846 4.08333 3.08317 4.08333C3.23788 4.08333 3.38625 4.02187 3.49565 3.91247C3.60505 3.80308 3.6665 3.6547 3.6665 3.5V2.91666H8.33317V3.5C8.33317 3.6547 8.39463 3.80308 8.50402 3.91247C8.61342 4.02187 8.76179 4.08333 8.9165 4.08333C9.07121 4.08333 9.21959 4.02187 9.32898 3.91247C9.43838 3.80308 9.49984 3.6547 9.49984 3.5V2.91666H10.0832C10.2379 2.91666 10.3863 2.97812 10.4956 3.08752C10.605 3.19691 10.6665 3.34529 10.6665 3.5V5.25ZM3.08317 8.75C3.19854 8.75 3.31132 8.71578 3.40725 8.65169C3.50318 8.58759 3.57795 8.49648 3.6221 8.38989C3.66625 8.2833 3.6778 8.16602 3.6553 8.05286C3.63279 7.9397 3.57723 7.83576 3.49565 7.75418C3.41407 7.6726 3.31013 7.61705 3.19697 7.59454C3.08382 7.57203 2.96653 7.58358 2.85994 7.62773C2.75335 7.67188 2.66224 7.74665 2.59815 7.84258C2.53405 7.93851 2.49984 8.05129 2.49984 8.16666C2.49984 8.32137 2.5613 8.46974 2.67069 8.57914C2.78009 8.68854 2.92846 8.75 3.08317 8.75ZM3.08317 11.0833C3.19854 11.0833 3.31132 11.0491 3.40725 10.985C3.50318 10.9209 3.57795 10.8298 3.6221 10.7232C3.66625 10.6166 3.6778 10.4993 3.6553 10.3862C3.63279 10.273 3.57723 10.1691 3.49565 10.0875C3.41407 10.0059 3.31013 9.95038 3.19697 9.92787C3.08382 9.90536 2.96653 9.91691 2.85994 9.96107C2.75335 10.0052 2.66224 10.08 2.59815 10.1759C2.53405 10.2718 2.49984 10.3846 2.49984 10.5C2.49984 10.6547 2.5613 10.8031 2.67069 10.9125C2.78009 11.0219 2.92846 11.0833 3.08317 11.0833Z"/>
</mask>
<path d="M5.99984 11.0833C6.11521 11.0833 6.22799 11.0491 6.32392 10.985C6.41985 10.9209 6.49462 10.8298 6.53877 10.7232C6.58292 10.6166 6.59447 10.4993 6.57196 10.3862C6.54945 10.273 6.4939 10.1691 6.41232 10.0875C6.33074 10.0059 6.2268 9.95038 6.11364 9.92787C6.00048 9.90536 5.88319 9.91691 5.7766 9.96107C5.67001 10.0052 5.57891 10.08 5.51481 10.1759C5.45072 10.2718 5.4165 10.3846 5.4165 10.5C5.4165 10.6547 5.47796 10.8031 5.58736 10.9125C5.69675 11.0219 5.84513 11.0833 5.99984 11.0833ZM8.9165 11.0833C9.03188 11.0833 9.14466 11.0491 9.24059 10.985C9.33652 10.9209 9.41128 10.8298 9.45543 10.7232C9.49958 10.6166 9.51114 10.4993 9.48863 10.3862C9.46612 10.273 9.41056 10.1691 9.32898 10.0875C9.2474 10.0059 9.14346 9.95038 9.03031 9.92787C8.91715 9.90536 8.79986 9.91691 8.69327 9.96107C8.58668 10.0052 8.49558 10.08 8.43148 10.1759C8.36738 10.2718 8.33317 10.3846 8.33317 10.5C8.33317 10.6547 8.39463 10.8031 8.50402 10.9125C8.61342 11.0219 8.76179 11.0833 8.9165 11.0833ZM8.9165 8.75C9.03188 8.75 9.14466 8.71578 9.24059 8.65169C9.33652 8.58759 9.41128 8.49648 9.45543 8.38989C9.49958 8.2833 9.51114 8.16602 9.48863 8.05286C9.46612 7.9397 9.41056 7.83576 9.32898 7.75418C9.2474 7.6726 9.14346 7.61705 9.03031 7.59454C8.91715 7.57203 8.79986 7.58358 8.69327 7.62773C8.58668 7.67188 8.49558 7.74665 8.43148 7.84258C8.36738 7.93851 8.33317 8.05129 8.33317 8.16666C8.33317 8.32137 8.39463 8.46974 8.50402 8.57914C8.61342 8.68854 8.76179 8.75 8.9165 8.75ZM5.99984 8.75C6.11521 8.75 6.22799 8.71578 6.32392 8.65169C6.41985 8.58759 6.49462 8.49648 6.53877 8.38989C6.58292 8.2833 6.59447 8.16602 6.57196 8.05286C6.54945 7.9397 6.4939 7.83576 6.41232 7.75418C6.33074 7.6726 6.2268 7.61705 6.11364 7.59454C6.00048 7.57203 5.88319 7.58358 5.7766 7.62773C5.67001 7.67188 5.57891 7.74665 5.51481 7.84258C5.45072 7.93851 5.4165 8.05129 5.4165 8.16666C5.4165 8.32137 5.47796 8.46974 5.58736 8.57914C5.69675 8.68854 5.84513 8.75 5.99984 8.75ZM10.0832 1.74999H9.49984V1.16666C9.49984 1.01195 9.43838 0.863579 9.32898 0.754183C9.21959 0.644786 9.07121 0.583328 8.9165 0.583328C8.76179 0.583328 8.61342 0.644786 8.50402 0.754183C8.39463 0.863579 8.33317 1.01195 8.33317 1.16666V1.74999H3.6665V1.16666C3.6665 1.01195 3.60505 0.863579 3.49565 0.754183C3.38625 0.644786 3.23788 0.583328 3.08317 0.583328C2.92846 0.583328 2.78009 0.644786 2.67069 0.754183C2.5613 0.863579 2.49984 1.01195 2.49984 1.16666V1.74999H1.9165C1.45238 1.74999 1.00726 1.93437 0.679067 2.26256C0.350878 2.59075 0.166504 3.03587 0.166504 3.5V11.6667C0.166504 12.1308 0.350878 12.5759 0.679067 12.9041C1.00726 13.2323 1.45238 13.4167 1.9165 13.4167H10.0832C10.5473 13.4167 10.9924 13.2323 11.3206 12.9041C11.6488 12.5759 11.8332 12.1308 11.8332 11.6667V3.5C11.8332 3.03587 11.6488 2.59075 11.3206 2.26256C10.9924 1.93437 10.5473 1.74999 10.0832 1.74999ZM10.6665 11.6667C10.6665 11.8214 10.605 11.9697 10.4956 12.0791C10.3863 12.1885 10.2379 12.25 10.0832 12.25H1.9165C1.76179 12.25 1.61342 12.1885 1.50402 12.0791C1.39463 11.9697 1.33317 11.8214 1.33317 11.6667V6.41666H10.6665V11.6667ZM10.6665 5.25H1.33317V3.5C1.33317 3.34529 1.39463 3.19691 1.50402 3.08752C1.61342 2.97812 1.76179 2.91666 1.9165 2.91666H2.49984V3.5C2.49984 3.6547 2.5613 3.80308 2.67069 3.91247C2.78009 4.02187 2.92846 4.08333 3.08317 4.08333C3.23788 4.08333 3.38625 4.02187 3.49565 3.91247C3.60505 3.80308 3.6665 3.6547 3.6665 3.5V2.91666H8.33317V3.5C8.33317 3.6547 8.39463 3.80308 8.50402 3.91247C8.61342 4.02187 8.76179 4.08333 8.9165 4.08333C9.07121 4.08333 9.21959 4.02187 9.32898 3.91247C9.43838 3.80308 9.49984 3.6547 9.49984 3.5V2.91666H10.0832C10.2379 2.91666 10.3863 2.97812 10.4956 3.08752C10.605 3.19691 10.6665 3.34529 10.6665 3.5V5.25ZM3.08317 8.75C3.19854 8.75 3.31132 8.71578 3.40725 8.65169C3.50318 8.58759 3.57795 8.49648 3.6221 8.38989C3.66625 8.2833 3.6778 8.16602 3.6553 8.05286C3.63279 7.9397 3.57723 7.83576 3.49565 7.75418C3.41407 7.6726 3.31013 7.61705 3.19697 7.59454C3.08382 7.57203 2.96653 7.58358 2.85994 7.62773C2.75335 7.67188 2.66224 7.74665 2.59815 7.84258C2.53405 7.93851 2.49984 8.05129 2.49984 8.16666C2.49984 8.32137 2.5613 8.46974 2.67069 8.57914C2.78009 8.68854 2.92846 8.75 3.08317 8.75ZM3.08317 11.0833C3.19854 11.0833 3.31132 11.0491 3.40725 10.985C3.50318 10.9209 3.57795 10.8298 3.6221 10.7232C3.66625 10.6166 3.6778 10.4993 3.6553 10.3862C3.63279 10.273 3.57723 10.1691 3.49565 10.0875C3.41407 10.0059 3.31013 9.95038 3.19697 9.92787C3.08382 9.90536 2.96653 9.91691 2.85994 9.96107C2.75335 10.0052 2.66224 10.08 2.59815 10.1759C2.53405 10.2718 2.49984 10.3846 2.49984 10.5C2.49984 10.6547 2.5613 10.8031 2.67069 10.9125C2.78009 11.0219 2.92846 11.0833 3.08317 11.0833Z" fill="#1F262C" stroke="#297DEE" stroke-width="2" mask="url(#path-1-inside-1_1755_2277)"/>
</svg>
