<svg width="41" height="41" viewBox="0 0 41 41" fill="none" xmlns="http://www.w3.org/2000/svg">
<g id="ph:camera">
<path id="Vector" d="M33 9.25H28.6688L26.5391 6.05625C26.425 5.88524 26.2704 5.745 26.0892 5.64798C25.908 5.55095 25.7056 5.50012 25.5 5.5H15.5C15.2944 5.50012 15.092 5.55095 14.9108 5.64798C14.7296 5.745 14.575 5.88524 14.4609 6.05625L12.3297 9.25H8C7.00544 9.25 6.05161 9.64509 5.34835 10.3483C4.64509 11.0516 4.25 12.0054 4.25 13V30.5C4.25 31.4946 4.64509 32.4484 5.34835 33.1517C6.05161 33.8549 7.00544 34.25 8 34.25H33C33.9946 34.25 34.9484 33.8549 35.6517 33.1517C36.3549 32.4484 36.75 31.4946 36.75 30.5V13C36.75 12.0054 36.3549 11.0516 35.6517 10.3483C34.9484 9.64509 33.9946 9.25 33 9.25ZM34.25 30.5C34.25 30.8315 34.1183 31.1495 33.8839 31.3839C33.6495 31.6183 33.3315 31.75 33 31.75H8C7.66848 31.75 7.35054 31.6183 7.11612 31.3839C6.8817 31.1495 6.75 30.8315 6.75 30.5V13C6.75 12.6685 6.8817 12.3505 7.11612 12.1161C7.35054 11.8817 7.66848 11.75 8 11.75H13C13.2058 11.7501 13.4085 11.6994 13.5901 11.6024C13.7716 11.5054 13.9264 11.365 14.0406 11.1938L16.1687 8H24.8297L26.9594 11.1938C27.0736 11.365 27.2284 11.5054 27.4099 11.6024C27.5915 11.6994 27.7942 11.7501 28 11.75H33C33.3315 11.75 33.6495 11.8817 33.8839 12.1161C34.1183 12.3505 34.25 12.6685 34.25 13V30.5ZM20.5 14.25C19.1403 14.25 17.811 14.6532 16.6805 15.4086C15.5499 16.1641 14.6687 17.2378 14.1483 18.4941C13.628 19.7503 13.4918 21.1326 13.7571 22.4662C14.0224 23.7999 14.6772 25.0249 15.6386 25.9864C16.6001 26.9478 17.8251 27.6026 19.1588 27.8679C20.4924 28.1332 21.8747 27.997 23.1309 27.4767C24.3872 26.9563 25.4609 26.0751 26.2164 24.9445C26.9718 23.814 27.375 22.4847 27.375 21.125C27.3729 19.3023 26.6479 17.5548 25.3591 16.2659C24.0702 14.9771 22.3227 14.2521 20.5 14.25ZM20.5 25.5C19.6347 25.5 18.7888 25.2434 18.0694 24.7627C17.3499 24.2819 16.7892 23.5987 16.458 22.7992C16.1269 21.9998 16.0403 21.1201 16.2091 20.2715C16.3779 19.4228 16.7946 18.6433 17.4064 18.0314C18.0183 17.4196 18.7978 17.0029 19.6465 16.8341C20.4951 16.6653 21.3748 16.7519 22.1742 17.083C22.9737 17.4142 23.6569 17.9749 24.1377 18.6944C24.6184 19.4138 24.875 20.2597 24.875 21.125C24.875 22.2853 24.4141 23.3981 23.5936 24.2186C22.7731 25.0391 21.6603 25.5 20.5 25.5Z" fill="black"/>
</g>
</svg>
