<svg width="16" height="14" viewBox="0 0 16 14" fill="none" xmlns="http://www.w3.org/2000/svg">
<path fill-rule="evenodd" clip-rule="evenodd" d="M12.08 2.6773C12.11 2.72974 12.1625 2.7672 12.23 2.7672C14.03 2.7672 15.5 4.23557 15.5 6.03357V10.4836C15.5 12.2816 14.03 13.75 12.23 13.75H3.77C1.9625 13.75 0.5 12.2816 0.5 10.4836V6.03357C0.5 4.23557 1.9625 2.7672 3.77 2.7672C3.83 2.7672 3.89 2.73724 3.9125 2.6773L3.9575 2.5874C3.98335 2.53298 4.00989 2.47709 4.03683 2.42035C4.2287 2.01621 4.44097 1.5691 4.5725 1.30633C4.9175 0.632075 5.5025 0.257492 6.23 0.25H9.7625C10.49 0.257492 11.0825 0.632075 11.4275 1.30633C11.5456 1.5423 11.7256 1.92241 11.899 2.28877C11.9348 2.36439 11.9704 2.43942 12.005 2.51249L12.08 2.6773ZM11.5325 5.55411C11.5325 5.92869 11.8325 6.22836 12.2075 6.22836C12.5825 6.22836 12.89 5.92869 12.89 5.55411C12.89 5.17952 12.5825 4.87236 12.2075 4.87236C11.8325 4.87236 11.5325 5.17952 11.5325 5.55411ZM6.7025 6.71532C7.055 6.36321 7.5125 6.17592 8 6.17592C8.4875 6.17592 8.945 6.36321 9.29 6.70782C9.635 7.05244 9.8225 7.50943 9.8225 7.99639C9.815 9.00028 9.005 9.81687 8 9.81687C7.5125 9.81687 7.055 9.62958 6.71 9.28496C6.365 8.94034 6.1775 8.48335 6.1775 7.99639V7.9889C6.17 7.51693 6.3575 7.05993 6.7025 6.71532ZM10.0775 10.0791C9.545 10.611 8.81 10.9406 8 10.9406C7.2125 10.9406 6.4775 10.6335 5.915 10.0791C5.36 9.5172 5.0525 8.78302 5.0525 7.99639C5.045 7.21726 5.3525 6.48307 5.9075 5.9212C6.47 5.35932 7.2125 5.05216 8 5.05216C8.7875 5.05216 9.53 5.35932 10.085 5.91371C10.64 6.47558 10.9475 7.21726 10.9475 7.99639C10.94 8.81299 10.61 9.54717 10.0775 10.0791Z" fill="white"/>
</svg>
