<svg width="30" height="30" viewBox="0 0 30 30" fill="none" xmlns="http://www.w3.org/2000/svg">
<path d="M8.75 16.2501C8.50277 16.2501 8.2611 16.3234 8.05554 16.4607C7.84998 16.5981 7.68976 16.7933 7.59515 17.0217C7.50054 17.2501 7.47579 17.5014 7.52402 17.7439C7.57225 17.9864 7.6913 18.2091 7.86612 18.3839C8.04093 18.5588 8.26366 18.6778 8.50614 18.726C8.74861 18.7743 8.99995 18.7495 9.22835 18.6549C9.45676 18.5603 9.65199 18.4001 9.78934 18.1945C9.92669 17.989 10 17.7473 10 17.5001C10 17.1685 9.8683 16.8506 9.63388 16.6162C9.39946 16.3818 9.08152 16.2501 8.75 16.2501ZM24.7 11.3876L23.0125 6.31256C22.7525 5.57707 22.2696 4.94098 21.631 4.49287C20.9925 4.04477 20.2301 3.80696 19.45 3.81256H12.075C11.7435 3.81256 11.4255 3.94426 11.1911 4.17868C10.9567 4.4131 10.825 4.73104 10.825 5.06256C10.825 5.39408 10.9567 5.71202 11.1911 5.94644C11.4255 6.18086 11.7435 6.31256 12.075 6.31256H19.45C19.7241 6.29914 19.9951 6.37633 20.221 6.53222C20.4469 6.6881 20.6152 6.914 20.7 7.17506L22.0125 11.2501H19.575C19.2435 11.2501 18.9255 11.3818 18.6911 11.6162C18.4567 11.8506 18.325 12.1685 18.325 12.5001C18.325 12.8316 18.4567 13.1495 18.6911 13.3839C18.9255 13.6184 19.2435 13.7501 19.575 13.7501H23.75C24.0815 13.7501 24.3995 13.8818 24.6339 14.1162C24.8683 14.3506 25 14.6685 25 15.0001V19.1751C25 19.5066 25.1317 19.8245 25.3661 20.0589C25.6005 20.2934 25.9185 20.4251 26.25 20.4251C26.5815 20.4251 26.8995 20.2934 27.1339 20.0589C27.3683 19.8245 27.5 19.5066 27.5 19.1751V15.0001C27.4967 14.1735 27.2203 13.3712 26.714 12.7179C26.2076 12.0646 25.4996 11.5969 24.7 11.3876ZM4.7 2.86256C4.46462 2.61889 4.14208 2.47871 3.80335 2.47285C3.46461 2.46699 3.13742 2.59593 2.89375 2.83131C2.65008 3.06669 2.5099 3.38922 2.50404 3.72796C2.49818 4.0667 2.62712 4.39389 2.8625 4.63756L6.3875 8.15006L5.3 11.3876C4.50041 11.5969 3.7924 12.0646 3.28604 12.7179C2.77968 13.3712 2.50335 14.1735 2.5 15.0001V20.0001C2.50217 20.7737 2.7436 21.5278 3.19117 22.1589C3.63875 22.79 4.27056 23.2672 5 23.5251V25.0001C5 25.3316 5.1317 25.6495 5.36612 25.8839C5.60054 26.1184 5.91848 26.2501 6.25 26.2501C6.58152 26.2501 6.89946 26.1184 7.13388 25.8839C7.3683 25.6495 7.5 25.3316 7.5 25.0001V23.7501H21.9875L22.5 24.2626V25.0001C22.5 25.3316 22.6317 25.6495 22.8661 25.8839C23.1005 26.1184 23.4185 26.2501 23.75 26.2501C23.9527 26.2481 24.1512 26.192 24.325 26.0876L25.3625 27.1376C25.4787 27.2547 25.617 27.3477 25.7693 27.4112C25.9216 27.4746 26.085 27.5073 26.25 27.5073C26.415 27.5073 26.5784 27.4746 26.7307 27.4112C26.883 27.3477 27.0213 27.2547 27.1375 27.1376C27.2547 27.0214 27.3477 26.8831 27.4111 26.7308C27.4746 26.5785 27.5072 26.4151 27.5072 26.2501C27.5072 26.085 27.4746 25.9217 27.4111 25.7693C27.3477 25.617 27.2547 25.4788 27.1375 25.3626L4.7 2.86256ZM8.45 10.1251L9.575 11.2501H7.9875L8.45 10.1251ZM6.25 21.2501C5.91848 21.2501 5.60054 21.1184 5.36612 20.8839C5.1317 20.6495 5 20.3316 5 20.0001V15.0001C5 14.6685 5.1317 14.3506 5.36612 14.1162C5.60054 13.8818 5.91848 13.7501 6.25 13.7501H11.9875L14.4875 16.2501H13.75C13.4185 16.2501 13.1005 16.3818 12.8661 16.6162C12.6317 16.8506 12.5 17.1685 12.5 17.5001C12.5 17.8316 12.6317 18.1495 12.8661 18.3839C13.1005 18.6184 13.4185 18.7501 13.75 18.7501H16.25C16.4527 18.7481 16.6512 18.692 16.825 18.5876L19.4875 21.2501H6.25Z" fill="#FC7A24"/>
</svg>
