<svg width="27" height="28" viewBox="0 0 27 28" fill="none" xmlns="http://www.w3.org/2000/svg">
<path d="M1.5 2H4.16667L4.7 4.66667M6.83333 15.3333H20.1667L25.5 4.66667H4.7M6.83333 15.3333L4.7 4.66667M6.83333 15.3333L3.77614 18.3905C2.93619 19.2305 3.53108 20.6667 4.71895 20.6667H20.1667M20.1667 20.6667C18.6939 20.6667 17.5 21.8606 17.5 23.3333C17.5 24.8061 18.6939 26 20.1667 26C21.6394 26 22.8333 24.8061 22.8333 23.3333C22.8333 21.8606 21.6394 20.6667 20.1667 20.6667ZM9.5 23.3333C9.5 24.8061 8.30609 26 6.83333 26C5.36057 26 4.16667 24.8061 4.16667 23.3333C4.16667 21.8606 5.36057 20.6667 6.83333 20.6667C8.30609 20.6667 9.5 21.8606 9.5 23.3333Z" stroke="#297DEE" stroke-width="2.66667" stroke-linecap="round" stroke-linejoin="round"/>
</svg>
