<svg width="27" height="24" viewBox="0 0 27 24" fill="none" xmlns="http://www.w3.org/2000/svg">
<path fill-rule="evenodd" clip-rule="evenodd" d="M9.83132 1.26868C10.4562 1.89352 10.4562 2.90658 9.83132 3.53142L6.16269 7.20005H15.1C21.2855 7.20005 26.2999 12.2145 26.2999 18.4001V21.6C26.2999 22.4837 25.5836 23.2001 24.6999 23.2001C23.8163 23.2001 23.0999 22.4837 23.0999 21.6V18.4001C23.0999 13.9818 19.5182 10.4 15.1 10.4H6.16269L9.83132 14.0687C10.4562 14.6935 10.4562 15.7066 9.83132 16.3314C9.20648 16.9563 8.19342 16.9563 7.56858 16.3314L1.16858 9.93142C0.543741 9.30658 0.543741 8.29352 1.16858 7.66868L7.56858 1.26868C8.19342 0.643839 9.20648 0.643839 9.83132 1.26868Z" fill="#D21C1C"/>
</svg>
