<svg width="30" height="30" viewBox="0 0 30 30" fill="none" xmlns="http://www.w3.org/2000/svg">
<path d="M21.9664 9.36369L21.9676 9.36247C22.0373 9.29218 22.1202 9.23638 22.2116 9.1983C22.303 9.16023 22.401 9.14062 22.5001 9.14062C22.5991 9.14062 22.6971 9.16023 22.7885 9.1983C22.8799 9.23638 22.9628 9.29218 23.0326 9.36247L23.3876 9.01037L23.0485 9.37787C23.1247 9.4481 23.1854 9.53334 23.227 9.62822C23.2685 9.72309 23.29 9.82555 23.29 9.92912C23.29 10.0327 23.2685 10.1352 23.227 10.23C23.1854 10.3249 23.1247 10.4101 23.0485 10.4804L23.0411 10.4872L23.034 10.4943L12.834 20.6943L12.8326 20.6958C12.7628 20.7661 12.6799 20.8219 12.5885 20.8599C12.4971 20.898 12.3991 20.9176 12.3001 20.9176C12.201 20.9176 12.103 20.898 12.0116 20.8599C11.9202 20.8219 11.8373 20.7661 11.7676 20.6958L11.7661 20.6943L6.96611 15.8943L6.96617 15.8943L6.95994 15.8883C6.88652 15.8173 6.82778 15.7326 6.78709 15.639C6.74639 15.5454 6.72454 15.4446 6.72277 15.3426C6.72101 15.2405 6.73936 15.1391 6.77679 15.0441C6.81423 14.9491 6.87 14.8624 6.94093 14.789C7.01186 14.7156 7.09655 14.6568 7.19018 14.6161C7.28381 14.5755 7.38454 14.5536 7.48661 14.5518C7.58869 14.5501 7.69011 14.5684 7.78509 14.6059C7.87879 14.6428 7.96441 14.6976 8.03719 14.7671L11.9459 18.6884L12.2997 19.0433L12.6539 18.6887L21.9664 9.36369Z" fill="#297DEE" stroke="#297DEE"/>
</svg>
