<svg width="32" height="32" viewBox="0 0 32 32" fill="none" xmlns="http://www.w3.org/2000/svg">
<g id="church">
<path id="Vector" d="M24 16.2933V12L17.3333 8.66665V6.66665H20V3.99998H17.3333V1.33331H14.6667V3.99998H12V6.66665H14.6667V8.66665L8 12V16.2933L2.66667 18.6666V29.3333H14.6667V24C14.6667 23.2666 15.2667 22.6666 16 22.6666C16.7333 22.6666 17.3333 23.2666 17.3333 24V29.3333H29.3333V18.6666L24 16.2933ZM26.6667 26.6666H20V23.9466C20 21.6933 18.2 19.8666 16 19.8666C13.8 19.8666 12 21.6933 12 23.9466V26.6666H5.33333V20.28L10.6667 17.8666V13.4L16 10.6666L21.3333 13.3866V17.8533L26.6667 20.2666V26.6666ZM16 14C17.1067 14 18 14.8933 18 16C18 17.1066 17.1067 18 16 18C14.8933 18 14 17.1066 14 16C14 14.8933 14.8933 14 16 14Z" fill="black"/>
</g>
</svg>
