<svg width="33" height="32" viewBox="0 0 33 32" fill="none" xmlns="http://www.w3.org/2000/svg">
<path d="M21.8332 5.33398H24.4999C25.2072 5.33398 25.8854 5.61494 26.3855 6.11503C26.8856 6.61513 27.1666 7.29341 27.1666 8.00065V26.6673C27.1666 27.3746 26.8856 28.0528 26.3855 28.5529C25.8854 29.053 25.2072 29.334 24.4999 29.334H8.49992C7.79267 29.334 7.1144 29.053 6.6143 28.5529C6.1142 28.0528 5.83325 27.3746 5.83325 26.6673V8.00065C5.83325 7.29341 6.1142 6.61513 6.6143 6.11503C7.1144 5.61494 7.79267 5.33398 8.49992 5.33398H11.1666" stroke="#4A90E2" stroke-width="2.66667" stroke-linecap="round" stroke-linejoin="round"/>
<path d="M20.5001 2.66602H12.5001C11.7637 2.66602 11.1667 3.26297 11.1667 3.99935V6.66601C11.1667 7.40239 11.7637 7.99935 12.5001 7.99935H20.5001C21.2365 7.99935 21.8334 7.40239 21.8334 6.66601V3.99935C21.8334 3.26297 21.2365 2.66602 20.5001 2.66602Z" stroke="#4A90E2" stroke-width="2.66667" stroke-linecap="round" stroke-linejoin="round"/>
</svg>
