<svg width="26" height="16" viewBox="0 0 26 16" fill="none" xmlns="http://www.w3.org/2000/svg">
<path d="M2.6373 13.3625C2.51842 13.2487 2.37824 13.1595 2.2248 13.1C1.92048 12.975 1.57913 12.975 1.2748 13.1C1.12136 13.1595 0.981182 13.2487 0.862302 13.3625C0.748502 13.4814 0.659295 13.6216 0.599802 13.775C0.504078 14.0026 0.477925 14.2535 0.524642 14.496C0.57136 14.7385 0.688855 14.9617 0.862302 15.1375C0.983804 15.2479 1.12332 15.3367 1.2748 15.4C1.42443 15.4661 1.58621 15.5003 1.7498 15.5003C1.91339 15.5003 2.07518 15.4661 2.2248 15.4C2.37628 15.3367 2.5158 15.2479 2.6373 15.1375C2.81075 14.9617 2.92824 14.7385 2.97496 14.496C3.02168 14.2535 2.99553 14.0026 2.8998 13.775C2.84031 13.6216 2.7511 13.4814 2.6373 13.3625ZM6.7498 3H24.2498C24.5813 3 24.8993 2.8683 25.1337 2.63388C25.3681 2.39946 25.4998 2.08152 25.4998 1.75C25.4998 1.41848 25.3681 1.10054 25.1337 0.866117C24.8993 0.631696 24.5813 0.5 24.2498 0.5H6.7498C6.41828 0.5 6.10034 0.631696 5.86592 0.866117C5.6315 1.10054 5.4998 1.41848 5.4998 1.75C5.4998 2.08152 5.6315 2.39946 5.86592 2.63388C6.10034 2.8683 6.41828 3 6.7498 3ZM2.6373 7.1125C2.46152 6.93905 2.23831 6.82156 1.99582 6.77484C1.75333 6.72812 1.50244 6.75427 1.2748 6.85C1.12332 6.9133 0.983804 7.00209 0.862302 7.1125C0.748502 7.23138 0.659295 7.37156 0.599802 7.525C0.533671 7.67462 0.499512 7.83641 0.499512 8C0.499512 8.16359 0.533671 8.32537 0.599802 8.475C0.663105 8.62648 0.751889 8.766 0.862302 8.8875C0.983804 8.99791 1.12332 9.0867 1.2748 9.15C1.42443 9.21613 1.58621 9.25029 1.7498 9.25029C1.91339 9.25029 2.07518 9.21613 2.2248 9.15C2.37628 9.0867 2.5158 8.99791 2.6373 8.8875C2.74772 8.766 2.8365 8.62648 2.8998 8.475C2.96593 8.32537 3.00009 8.16359 3.00009 8C3.00009 7.83641 2.96593 7.67462 2.8998 7.525C2.84031 7.37156 2.7511 7.23138 2.6373 7.1125ZM24.2498 6.75H6.7498C6.41828 6.75 6.10034 6.8817 5.86592 7.11612C5.6315 7.35054 5.4998 7.66848 5.4998 8C5.4998 8.33152 5.6315 8.64946 5.86592 8.88388C6.10034 9.1183 6.41828 9.25 6.7498 9.25H24.2498C24.5813 9.25 24.8993 9.1183 25.1337 8.88388C25.3681 8.64946 25.4998 8.33152 25.4998 8C25.4998 7.66848 25.3681 7.35054 25.1337 7.11612C24.8993 6.8817 24.5813 6.75 24.2498 6.75ZM2.6373 0.8625C2.51842 0.748699 2.37824 0.659493 2.2248 0.6C1.99716 0.504276 1.74627 0.478123 1.50379 0.52484C1.2613 0.571558 1.03808 0.689053 0.862302 0.8625C0.751889 0.984001 0.663105 1.12352 0.599802 1.275C0.533671 1.42463 0.499512 1.58641 0.499512 1.75C0.499512 1.91359 0.533671 2.07537 0.599802 2.225C0.663105 2.37648 0.751889 2.516 0.862302 2.6375C0.983804 2.74791 1.12332 2.8367 1.2748 2.9C1.50244 2.99572 1.75333 3.02188 1.99582 2.97516C2.23831 2.92844 2.46152 2.81095 2.6373 2.6375C2.74772 2.516 2.8365 2.37648 2.8998 2.225C2.96593 2.07537 3.00009 1.91359 3.00009 1.75C3.00009 1.58641 2.96593 1.42463 2.8998 1.275C2.8365 1.12352 2.74772 0.984001 2.6373 0.8625ZM24.2498 13H6.7498C6.41828 13 6.10034 13.1317 5.86592 13.3661C5.6315 13.6005 5.4998 13.9185 5.4998 14.25C5.4998 14.5815 5.6315 14.8995 5.86592 15.1339C6.10034 15.3683 6.41828 15.5 6.7498 15.5H24.2498C24.5813 15.5 24.8993 15.3683 25.1337 15.1339C25.3681 14.8995 25.4998 14.5815 25.4998 14.25C25.4998 13.9185 25.3681 13.6005 25.1337 13.3661C24.8993 13.1317 24.5813 13 24.2498 13Z" fill="#297DEE"/>
</svg>
