<svg width="16" height="16" viewBox="0 0 16 16" fill="none" xmlns="http://www.w3.org/2000/svg">
<path fill-rule="evenodd" clip-rule="evenodd" d="M15.2 8.00005C15.2 11.9765 11.9765 15.2 8.00005 15.2C4.0236 15.2 0.800049 11.9765 0.800049 8.00005C0.800049 4.0236 4.0236 0.800049 8.00005 0.800049C11.9765 0.800049 15.2 4.0236 15.2 8.00005ZM9.80005 5.30005C9.80005 6.29416 8.99416 7.10005 8.00005 7.10005C7.00594 7.10005 6.20005 6.29416 6.20005 5.30005C6.20005 4.30594 7.00594 3.50005 8.00005 3.50005C8.99416 3.50005 9.80005 4.30594 9.80005 5.30005ZM7.99999 8.90005C6.1842 8.90005 4.6196 9.97551 3.90841 11.5242C4.89867 12.6729 6.36443 13.4 8.00003 13.4C9.6356 13.4 11.1013 12.6729 12.0916 11.5243C11.3804 9.97554 9.8158 8.90005 7.99999 8.90005Z" fill="white"/>
</svg>
