<svg width="16" height="12" viewBox="0 0 16 12" fill="none" xmlns="http://www.w3.org/2000/svg">
<path d="M11.3333 11.3337H14.6667V10.0003C14.6667 8.8958 13.7712 8.0003 12.6667 8.0003C12.0296 8.0003 11.4621 8.2982 11.0958 8.7623M11.3333 11.3337H4.66666M11.3333 11.3337V10.0003C11.3333 9.5628 11.249 9.145 11.0958 8.7623M11.0958 8.7623C10.6043 7.53434 9.40345 6.66699 8 6.66699C6.59654 6.66699 5.39566 7.53434 4.90416 8.7623M4.66666 11.3337H1.33333V10.0003C1.33333 8.8958 2.22876 8.0003 3.33333 8.0003C3.9704 8.0003 4.5379 8.2982 4.90416 8.7623M4.66666 11.3337V10.0003C4.66666 9.5628 4.75094 9.145 4.90416 8.7623M10 2.66699C10 3.77156 9.10456 4.66699 8 4.66699C6.89543 4.66699 6 3.77156 6 2.66699C6 1.56242 6.89543 0.666992 8 0.666992C9.10456 0.666992 10 1.56242 10 2.66699ZM14 4.66699C14 5.40337 13.403 6.00033 12.6667 6.00033C11.9303 6.00033 11.3333 5.40337 11.3333 4.66699C11.3333 3.93061 11.9303 3.33366 12.6667 3.33366C13.403 3.33366 14 3.93061 14 4.66699ZM4.66666 4.66699C4.66666 5.40337 4.06971 6.00033 3.33333 6.00033C2.59695 6.00033 1.99999 5.40337 1.99999 4.66699C1.99999 3.93061 2.59695 3.33366 3.33333 3.33366C4.06971 3.33366 4.66666 3.93061 4.66666 4.66699Z" stroke="#4CAF50" stroke-width="1.33333" stroke-linecap="round" stroke-linejoin="round"/>
</svg>
