<svg width="30" height="30" viewBox="0 0 30 30" fill="none" xmlns="http://www.w3.org/2000/svg">
<path d="M15 17.5C14.6685 17.5 14.3505 17.6317 14.1161 17.8661C13.8817 18.1005 13.75 18.4185 13.75 18.75V21.25C13.75 21.5815 13.8817 21.8995 14.1161 22.1339C14.3505 22.3683 14.6685 22.5 15 22.5C15.3315 22.5 15.6495 22.3683 15.8839 22.1339C16.1183 21.8995 16.25 21.5815 16.25 21.25V18.75C16.25 18.4185 16.1183 18.1005 15.8839 17.8661C15.6495 17.6317 15.3315 17.5 15 17.5ZM15.475 13.85C15.2487 13.7451 14.9962 13.7103 14.75 13.75L14.525 13.825L14.3 13.9375L14.1125 14.0875C13.9936 14.2073 13.9002 14.3498 13.8379 14.5067C13.7756 14.6635 13.7457 14.8313 13.75 15C13.749 15.1645 13.7806 15.3276 13.8428 15.4799C13.905 15.6322 13.9966 15.7707 14.1125 15.8875C14.2314 16.0013 14.3716 16.0905 14.525 16.15C14.6733 16.22 14.836 16.2542 15 16.25C15.1645 16.251 15.3276 16.2194 15.4799 16.1572C15.6322 16.095 15.7707 16.0034 15.8875 15.8875C16.0034 15.7707 16.095 15.6322 16.1572 15.4799C16.2194 15.3276 16.251 15.1645 16.25 15C16.251 14.8355 16.2194 14.6724 16.1572 14.5201C16.095 14.3678 16.0034 14.2293 15.8875 14.1125C15.766 14.0021 15.6265 13.9133 15.475 13.85ZM25 11.175C24.987 11.0602 24.9618 10.947 24.925 10.8375V10.725C24.8649 10.5965 24.7847 10.4783 24.6875 10.375L17.1875 2.875C17.0842 2.77777 16.966 2.6976 16.8375 2.6375H16.7125C16.591 2.5725 16.4603 2.52615 16.325 2.5H8.75C7.75544 2.5 6.80161 2.89509 6.09835 3.59835C5.39509 4.30161 5 5.25544 5 6.25V23.75C5 24.7446 5.39509 25.6984 6.09835 26.4017C6.80161 27.1049 7.75544 27.5 8.75 27.5H21.25C22.2446 27.5 23.1984 27.1049 23.9017 26.4017C24.6049 25.6984 25 24.7446 25 23.75V11.25C25 11.25 25 11.25 25 11.175ZM17.5 6.7625L20.7375 10H18.75C18.4185 10 18.1005 9.8683 17.8661 9.63388C17.6317 9.39946 17.5 9.08152 17.5 8.75V6.7625ZM22.5 23.75C22.5 24.0815 22.3683 24.3995 22.1339 24.6339C21.8995 24.8683 21.5815 25 21.25 25H8.75C8.41848 25 8.10054 24.8683 7.86612 24.6339C7.6317 24.3995 7.5 24.0815 7.5 23.75V6.25C7.5 5.91848 7.6317 5.60054 7.86612 5.36612C8.10054 5.1317 8.41848 5 8.75 5H15V8.75C15 9.74456 15.3951 10.6984 16.0983 11.4017C16.8016 12.1049 17.7554 12.5 18.75 12.5H22.5V23.75Z" fill="#297DEE"/>
</svg>
