<svg width="41" height="40" viewBox="0 0 41 40" fill="none" xmlns="http://www.w3.org/2000/svg">
<path d="M23.8333 18.334H22.1667V11.6673H25.5C25.942 11.6673 26.3659 11.8429 26.6785 12.1555C26.9911 12.468 27.1667 12.892 27.1667 13.334C27.1667 13.776 27.3423 14.1999 27.6548 14.5125C27.9674 14.8251 28.3913 15.0007 28.8333 15.0007C29.2754 15.0007 29.6993 14.8251 30.0118 14.5125C30.3244 14.1999 30.5 13.776 30.5 13.334C30.5 12.0079 29.9732 10.7361 29.0355 9.79845C28.0979 8.86077 26.8261 8.33398 25.5 8.33398H22.1667V5.00065C22.1667 4.55862 21.9911 4.1347 21.6785 3.82214C21.366 3.50958 20.942 3.33398 20.5 3.33398C20.058 3.33398 19.634 3.50958 19.3215 3.82214C19.0089 4.1347 18.8333 4.55862 18.8333 5.00065V8.33398H17.1667C15.3986 8.33398 13.7029 9.03636 12.4526 10.2866C11.2024 11.5368 10.5 13.2325 10.5 15.0007C10.5 16.7688 11.2024 18.4645 12.4526 19.7147C13.7029 20.9649 15.3986 21.6673 17.1667 21.6673H18.8333V28.334H15.5C15.058 28.334 14.634 28.1584 14.3215 27.8458C14.0089 27.5333 13.8333 27.1093 13.8333 26.6673C13.8333 26.2253 13.6577 25.8014 13.3452 25.4888C13.0326 25.1762 12.6087 25.0007 12.1667 25.0007C11.7246 25.0007 11.3007 25.1762 10.9882 25.4888C10.6756 25.8014 10.5 26.2253 10.5 26.6673C10.5 27.9934 11.0268 29.2652 11.9645 30.2029C12.9021 31.1405 14.1739 31.6673 15.5 31.6673H18.8333V35.0007C18.8333 35.4427 19.0089 35.8666 19.3215 36.1792C19.634 36.4917 20.058 36.6673 20.5 36.6673C20.942 36.6673 21.366 36.4917 21.6785 36.1792C21.9911 35.8666 22.1667 35.4427 22.1667 35.0007V31.6673H23.8333C25.6014 31.6673 27.2971 30.9649 28.5474 29.7147C29.7976 28.4645 30.5 26.7688 30.5 25.0007C30.5 23.2325 29.7976 21.5368 28.5474 20.2866C27.2971 19.0364 25.6014 18.334 23.8333 18.334V18.334ZM18.8333 18.334H17.1667C16.2826 18.334 15.4348 17.9828 14.8096 17.3577C14.1845 16.7326 13.8333 15.8847 13.8333 15.0007C13.8333 14.1166 14.1845 13.2687 14.8096 12.6436C15.4348 12.0185 16.2826 11.6673 17.1667 11.6673H18.8333V18.334ZM23.8333 28.334H22.1667V21.6673H23.8333C24.7174 21.6673 25.5652 22.0185 26.1904 22.6436C26.8155 23.2688 27.1667 24.1166 27.1667 25.0007C27.1667 25.8847 26.8155 26.7326 26.1904 27.3577C25.5652 27.9828 24.7174 28.334 23.8333 28.334Z" fill="white"/>
</svg>
