<svg width="22" height="24" viewBox="0 0 22 24" fill="none" xmlns="http://www.w3.org/2000/svg">
<path fill-rule="evenodd" clip-rule="evenodd" d="M0.5 22.5C0.5 21.6716 1.17157 21 2 21H20C20.8284 21 21.5 21.6716 21.5 22.5C21.5 23.3284 20.8284 24 20 24H2C1.17157 24 0.5 23.3284 0.5 22.5ZM5.43934 10.9393C6.02513 10.3536 6.97487 10.3536 7.56066 10.9393L9.5 12.8787L9.5 1.5C9.5 0.671574 10.1716 3.62117e-08 11 0C11.8284 -3.62117e-08 12.5 0.671572 12.5 1.5V12.8787L14.4393 10.9393C15.0251 10.3536 15.9749 10.3536 16.5607 10.9393C17.1464 11.5251 17.1464 12.4749 16.5607 13.0607L12.0607 17.5607C11.7794 17.842 11.3978 18 11 18C10.6022 18 10.2206 17.842 9.93934 17.5607L5.43934 13.0607C4.85355 12.4749 4.85355 11.5251 5.43934 10.9393Z" fill="#297DEE"/>
</svg>
