<svg width="41" height="40" viewBox="0 0 41 40" fill="none" xmlns="http://www.w3.org/2000/svg">
<path d="M27.5748 18.6245L22.7582 12.4496C22.5162 12.1977 22.2251 11.9982 21.9029 11.8634C21.5806 11.7287 21.2341 11.6616 20.8849 11.6662C20.5356 11.6709 20.1911 11.7473 19.8725 11.8907C19.554 12.034 19.2684 12.2413 19.0333 12.4996L14.2417 18.6245C13.9764 19.0341 13.8347 19.5114 13.8334 19.9995C13.8473 20.4673 13.9885 20.9225 14.2417 21.3161L14.2917 21.3744L19.0749 27.5493C19.3104 27.7987 19.5947 27.9969 19.9101 28.1316C20.2255 28.2664 20.5653 28.3348 20.9082 28.3326C21.2628 28.3323 21.6135 28.258 21.9377 28.1146C22.262 27.9711 22.5528 27.7615 22.7915 27.4993L27.5748 21.3744C27.8362 20.9614 27.9708 20.4807 27.9619 19.992C27.953 19.5032 27.8011 19.0278 27.5248 18.6245H27.5748ZM26.2665 20.4078L21.5416 26.4243C21.3823 26.571 21.1767 26.6572 20.9605 26.6678C20.7442 26.6785 20.5311 26.613 20.3582 26.4827L15.6167 20.3911C15.5459 20.2723 15.5058 20.1377 15.5 19.9995C15.5012 19.87 15.5296 19.7423 15.5833 19.6245L20.3082 13.6079C20.4675 13.4613 20.6731 13.3751 20.8893 13.3644C21.1056 13.3538 21.3187 13.4193 21.4916 13.5496L26.1831 19.6161C26.2698 19.7503 26.316 19.9065 26.3165 20.0661C26.3108 20.1843 26.2825 20.3003 26.2331 20.4078H26.2665Z" fill="white"/>
<path d="M34.8744 18.3348C34.6092 18.3348 34.3549 18.4401 34.1673 18.6277C33.9798 18.8152 33.8745 19.0695 33.8745 19.3347V29.7043C33.8745 30.2347 33.6638 30.7434 33.2887 31.1185C32.9136 31.4935 32.405 31.7042 31.8745 31.7042H23.8749L26.7948 28.7844C26.9656 28.598 27.0595 28.3539 27.0576 28.1011C27.0556 27.8483 26.9581 27.6057 26.7845 27.4219C26.6109 27.2382 26.3741 27.127 26.1218 27.1108C25.8696 27.0945 25.6205 27.1744 25.4248 27.3344L20.795 31.9942C20.7037 32.0911 20.6294 32.2027 20.575 32.3242C20.475 32.5677 20.475 32.8407 20.575 33.0842C20.6256 33.2078 20.7004 33.32 20.795 33.4142L25.4248 38.044C25.6111 38.2287 25.8625 38.3329 26.1248 38.334C26.2564 38.3347 26.3868 38.3095 26.5087 38.2597C26.6305 38.21 26.7413 38.1367 26.8348 38.044C26.9285 37.951 27.0029 37.8404 27.0536 37.7186C27.1044 37.5967 27.1305 37.466 27.1305 37.334C27.1305 37.202 27.1044 37.0713 27.0536 36.9494C27.0029 36.8276 26.9285 36.717 26.8348 36.624L23.9149 33.7042H31.9145C32.9754 33.7042 33.9927 33.2827 34.7429 32.5326C35.493 31.7825 35.9144 30.7651 35.9144 29.7043V19.3347C35.9145 19.2 35.8874 19.0666 35.8346 18.9426C35.7819 18.8186 35.7046 18.7065 35.6075 18.6131C35.5104 18.5197 35.3954 18.4469 35.2694 18.3991C35.1434 18.3513 35.0091 18.3294 34.8744 18.3348Z" fill="white"/>
<path d="M20.8394 6.9166C20.7888 6.79302 20.714 6.68082 20.6194 6.58661L15.9896 1.9568C15.8022 1.77055 15.5488 1.66602 15.2846 1.66602C15.0204 1.66602 14.767 1.77055 14.5796 1.9568C14.4859 2.04976 14.4115 2.16035 14.3608 2.28221C14.31 2.40406 14.2839 2.53476 14.2839 2.66677C14.2839 2.79878 14.31 2.92948 14.3608 3.05133C14.4115 3.17318 14.4859 3.28378 14.5796 3.37674L17.4995 6.29662H9.49984C8.43902 6.29662 7.42164 6.71803 6.67153 7.46815C5.92141 8.21827 5.5 9.23564 5.5 10.2965V20.6661C5.5 20.9313 5.60535 21.1856 5.79288 21.3731C5.98041 21.5607 6.23475 21.666 6.49996 21.666C6.76517 21.666 7.01951 21.5607 7.20704 21.3731C7.39457 21.1856 7.49992 20.9313 7.49992 20.6661V10.2965C7.49992 9.76605 7.71063 9.25737 8.08568 8.88231C8.46074 8.50725 8.96943 8.29655 9.49984 8.29655H17.4995L14.5796 11.2164C14.4386 11.3563 14.3424 11.535 14.3034 11.7297C14.2643 11.9245 14.2841 12.1264 14.3603 12.3099C14.4364 12.4933 14.5655 12.6499 14.731 12.7597C14.8965 12.8695 15.091 12.9275 15.2896 12.9264C15.5534 12.9226 15.805 12.8148 15.9896 12.6264L20.6194 8.00656C20.7116 7.90663 20.786 7.79164 20.8394 7.66657C20.9367 7.42605 20.9367 7.15712 20.8394 6.9166Z" fill="white"/>
</svg>
