<svg width="18" height="19" viewBox="0 0 18 19" fill="none" xmlns="http://www.w3.org/2000/svg">
<path d="M3 9.5C3 9.69891 3.07902 9.88968 3.21967 10.0303C3.36032 10.171 3.55109 10.25 3.75 10.25H9.4425L7.7175 11.9675C7.6472 12.0372 7.59141 12.1202 7.55333 12.2116C7.51525 12.303 7.49565 12.401 7.49565 12.5C7.49565 12.599 7.51525 12.697 7.55333 12.7884C7.59141 12.8798 7.6472 12.9628 7.7175 13.0325C7.78722 13.1028 7.87017 13.1586 7.96157 13.1967C8.05296 13.2347 8.15099 13.2543 8.25 13.2543C8.34901 13.2543 8.44704 13.2347 8.53843 13.1967C8.62983 13.1586 8.71278 13.1028 8.7825 13.0325L11.7825 10.0325C11.8508 9.96117 11.9043 9.87706 11.94 9.785C12.015 9.6024 12.015 9.3976 11.94 9.215C11.9043 9.12294 11.8508 9.03883 11.7825 8.9675L8.7825 5.9675C8.71257 5.89757 8.62955 5.8421 8.53819 5.80426C8.44682 5.76641 8.34889 5.74693 8.25 5.74693C8.15111 5.74693 8.05318 5.76641 7.96181 5.80426C7.87045 5.8421 7.78743 5.89757 7.7175 5.9675C7.64757 6.03743 7.5921 6.12045 7.55426 6.21181C7.51641 6.30318 7.49693 6.40111 7.49693 6.5C7.49693 6.59889 7.51641 6.69682 7.55426 6.78819C7.5921 6.87955 7.64757 6.96257 7.7175 7.0325L9.4425 8.75H3.75C3.55109 8.75 3.36032 8.82902 3.21967 8.96967C3.07902 9.11032 3 9.30109 3 9.5ZM12.75 2H5.25C4.65326 2 4.08097 2.23705 3.65901 2.65901C3.23705 3.08097 3 3.65326 3 4.25V6.5C3 6.69891 3.07902 6.88968 3.21967 7.03033C3.36032 7.17098 3.55109 7.25 3.75 7.25C3.94891 7.25 4.13968 7.17098 4.28033 7.03033C4.42098 6.88968 4.5 6.69891 4.5 6.5V4.25C4.5 4.05109 4.57902 3.86032 4.71967 3.71967C4.86032 3.57902 5.05109 3.5 5.25 3.5H12.75C12.9489 3.5 13.1397 3.57902 13.2803 3.71967C13.421 3.86032 13.5 4.05109 13.5 4.25V14.75C13.5 14.9489 13.421 15.1397 13.2803 15.2803C13.1397 15.421 12.9489 15.5 12.75 15.5H5.25C5.05109 15.5 4.86032 15.421 4.71967 15.2803C4.57902 15.1397 4.5 14.9489 4.5 14.75V12.5C4.5 12.3011 4.42098 12.1103 4.28033 11.9697C4.13968 11.829 3.94891 11.75 3.75 11.75C3.55109 11.75 3.36032 11.829 3.21967 11.9697C3.07902 12.1103 3 12.3011 3 12.5V14.75C3 15.3467 3.23705 15.919 3.65901 16.341C4.08097 16.7629 4.65326 17 5.25 17H12.75C13.3467 17 13.919 16.7629 14.341 16.341C14.7629 15.919 15 15.3467 15 14.75V4.25C15 3.65326 14.7629 3.08097 14.341 2.65901C13.919 2.23705 13.3467 2 12.75 2Z" fill="white"/>
</svg>
