<svg width="32" height="32" viewBox="0 0 32 32" fill="none" xmlns="http://www.w3.org/2000/svg">
<g id="eye_slash">
<path id="Vector" d="M16.0003 7.49998C15.5017 7.49928 15.0038 7.53687 14.5109 7.61242L14.1889 7.66177C14.1827 7.6605 14.1765 7.65917 14.1704 7.65776C14.0612 7.63286 13.9581 7.5867 13.8668 7.52193C13.7754 7.45716 13.6978 7.37503 13.6382 7.28025L13.2149 7.54631L13.6382 7.28025C13.5787 7.18547 13.5383 7.07988 13.5196 6.96952L13.0266 7.05332L13.5196 6.96952C13.5008 6.85916 13.504 6.74618 13.5289 6.63703C13.5538 6.52789 13.5999 6.42472 13.6647 6.33342L13.2569 6.04412L13.6647 6.33342C13.7295 6.24211 13.8116 6.16446 13.9064 6.10489C14.0012 6.04532 14.1068 6.00501 14.2171 5.98624L14.2171 5.98626L14.2209 5.98559C14.8073 5.88128 15.4019 5.83031 15.9975 5.83332H16C21.2129 5.83332 26.1291 9.53907 28.7673 15.6641C28.812 15.7681 28.8351 15.8801 28.8351 15.9933C28.8351 16.1065 28.812 16.2185 28.7673 16.3225L28.7665 16.3244C28.3247 17.364 27.798 18.3653 27.1915 19.3182L27.1873 19.3248L27.1833 19.3315C27.0905 19.488 26.9491 19.6097 26.7806 19.6783C26.6121 19.7468 26.4259 19.7584 26.2502 19.7111C26.0746 19.6639 25.9192 19.5605 25.8078 19.4168C25.6966 19.2732 25.6353 19.0973 25.6333 18.9158C25.6322 18.7535 25.6785 18.5943 25.7666 18.458L25.7667 18.458L25.7694 18.4537C26.2248 17.7327 26.6354 16.9845 26.9989 16.2132L27.0992 16.0005L26.9993 15.7877C24.6271 10.7296 20.4961 7.50016 16.0003 7.49998ZM16.0003 7.49998C16.0002 7.49998 16.0001 7.49998 16 7.49998V7.99998L16.0007 7.49998C16.0006 7.49998 16.0005 7.49998 16.0003 7.49998ZM27.0533 28.9466L22.7333 24.6133C20.7357 25.9366 18.3961 26.6501 16 26.6666L27.0533 28.9466ZM27.0533 28.9466C27.1773 29.0716 27.3247 29.1708 27.4872 29.2385M27.0533 28.9466L27.4872 29.2385M12.8333 16.0028C12.8341 16.8417 13.1676 17.646 13.7608 18.2392C14.354 18.8323 15.1583 19.1659 15.9971 19.1666C16.2791 19.1696 16.5601 19.1317 16.8311 19.0539L17.6471 18.82L17.0469 18.2198L13.7802 14.9531L13.18 14.3529L12.946 15.1688C12.8683 15.4399 12.8303 15.7209 12.8333 16.0028ZM12.8333 16.0028C12.8333 16.0038 12.8333 16.0048 12.8334 16.0058L13.3333 16H12.8333C12.8333 16.0009 12.8333 16.0019 12.8333 16.0028ZM16.6933 18.5733C16.4934 18.6307 16.2869 18.6619 16.0792 18.6663L16.3398 18.9269L16.6933 18.5733ZM16.6933 18.5733L16.5555 18.0927C16.4623 18.1194 16.3672 18.139 16.2713 18.1513L16.6933 18.5733ZM13.4266 15.3066L13.9073 15.4445C13.8805 15.5377 13.861 15.6327 13.8487 15.7287L13.4266 15.3066ZM13.4266 15.3066L13.0731 15.6602L13.3337 15.9208C13.3381 15.713 13.3693 15.5066 13.4266 15.3066ZM27.4872 29.2385C27.6497 29.3062 27.824 29.341 28 29.341M27.4872 29.2385L28 29.341M28 29.341C28.176 29.341 28.3503 29.3062 28.5128 29.2385M28 29.341L28.5128 29.2385M28.5128 29.2385C28.6752 29.1708 28.8227 29.0716 28.9466 28.9466L28.5128 29.2385ZM7.5334 9.42688L7.90115 9.07288L7.53963 8.71253L3.40687 4.5931C3.40678 4.59301 3.4067 4.59292 3.40661 4.59284C3.24947 4.43556 3.16119 4.22232 3.16119 3.99998C3.16119 3.77752 3.24957 3.56417 3.40687 3.40687C3.48476 3.32898 3.57723 3.2672 3.67899 3.22504C3.78076 3.18289 3.88983 3.16119 3.99998 3.16119C4.11013 3.16119 4.21921 3.18289 4.32097 3.22504C4.42274 3.2672 4.51521 3.32898 4.5931 3.40687L28.5931 27.4069L28.5945 27.4083C28.6727 27.4858 28.7347 27.578 28.777 27.6795C28.8193 27.781 28.841 27.89 28.841 28C28.841 28.11 28.8193 28.2189 28.777 28.3205C28.7347 28.422 28.6727 28.5142 28.5945 28.5916L28.5916 28.5945C28.5142 28.6727 28.422 28.7347 28.3205 28.777C28.2189 28.8193 28.11 28.841 28 28.841C27.89 28.841 27.781 28.8193 27.6795 28.777C27.578 28.7347 27.4858 28.6727 27.4083 28.5945L27.4074 28.5936L23.0874 24.2603L22.7984 23.9704L22.4572 24.1965C20.5409 25.4659 18.2967 26.1505 15.9982 26.1666C10.7859 26.1658 5.8704 22.4601 3.23254 16.3355L3.23157 16.3333C3.18569 16.2282 3.162 16.1147 3.162 16C3.162 15.8853 3.18569 15.7718 3.23157 15.6667L3.23159 15.6667L3.23327 15.6627C4.23342 13.3165 5.69587 11.1957 7.5334 9.42688ZM16 24.5V24.5L16.0057 24.5C17.7775 24.4798 19.5132 23.9963 21.0403 23.0976L21.6007 22.7677L21.138 22.3109L19.018 20.2175L18.753 19.9559L18.4264 20.1348C17.5095 20.6372 16.4545 20.8287 15.4195 20.6807C14.3846 20.5326 13.4255 20.053 12.6862 19.3137C11.947 18.5745 11.4673 17.6154 11.3193 16.5805C11.1712 15.5455 11.3628 14.4905 11.8651 13.5736L12.0442 13.2467L11.7822 12.9818L9.42218 10.5951L9.07815 10.2472L8.72286 10.5836C7.15994 12.0636 5.89937 13.833 5.0112 15.7937L4.91637 16.003L5.0135 16.2113C7.37262 21.2705 11.5041 24.5 16 24.5Z" fill="#1F262C" stroke="#1F2933"/>
</g>
</svg>
