<svg width="16" height="16" viewBox="0 0 16 16" fill="none" xmlns="http://www.w3.org/2000/svg">
<g id="mdi:fax">
<path id="Vector" d="M12.6666 6.00008H11.9999V2.66675H5.33325V13.3334H14.6666V8.00008C14.6666 6.89341 13.7733 6.00008 12.6666 6.00008ZM6.66659 4.00008H10.6666V6.00008H6.66659V4.00008ZM9.33325 11.3334H6.66659V8.00008H9.33325V11.3334ZM10.6666 11.3334C10.2999 11.3334 9.99992 11.0334 9.99992 10.6667C9.99992 10.3001 10.2999 10.0001 10.6666 10.0001C11.0333 10.0001 11.3333 10.3001 11.3333 10.6667C11.3333 11.0334 11.0333 11.3334 10.6666 11.3334ZM10.6666 9.33342C10.2999 9.33342 9.99992 9.03341 9.99992 8.66675C9.99992 8.30008 10.2999 8.00008 10.6666 8.00008C11.0333 8.00008 11.3333 8.30008 11.3333 8.66675C11.3333 9.03341 11.0333 9.33342 10.6666 9.33342ZM12.6666 11.3334C12.2999 11.3334 11.9999 11.0334 11.9999 10.6667C11.9999 10.3001 12.2999 10.0001 12.6666 10.0001C13.0333 10.0001 13.3333 10.3001 13.3333 10.6667C13.3333 11.0334 13.0333 11.3334 12.6666 11.3334ZM12.6666 9.33342C12.2999 9.33342 11.9999 9.03341 11.9999 8.66675C11.9999 8.30008 12.2999 8.00008 12.6666 8.00008C13.0333 8.00008 13.3333 8.30008 13.3333 8.66675C13.3333 9.03341 13.0333 9.33342 12.6666 9.33342ZM2.99992 5.33341C2.55789 5.33341 2.13397 5.50901 1.82141 5.82157C1.50885 6.13413 1.33325 6.55805 1.33325 7.00008V12.3334C1.33325 12.7754 1.50885 13.1994 1.82141 13.5119C2.13397 13.8245 2.55789 14.0001 2.99992 14.0001C3.44195 14.0001 3.86587 13.8245 4.17843 13.5119C4.49099 13.1994 4.66659 12.7754 4.66659 12.3334V7.00008C4.66659 6.78121 4.62348 6.56448 4.53972 6.36228C4.45596 6.16007 4.33319 5.97633 4.17843 5.82157C4.02367 5.66681 3.83993 5.54404 3.63772 5.46028C3.43551 5.37652 3.21879 5.33341 2.99992 5.33341Z" fill="black"/>
</g>
</svg>
