<svg width="40" height="40" viewBox="0 0 40 40" fill="none" xmlns="http://www.w3.org/2000/svg">
<path d="M20 33.334H8.33337C7.89135 33.334 7.46742 33.1584 7.15486 32.8458C6.8423 32.5333 6.66671 32.1093 6.66671 31.6673V8.33398C6.66671 7.89196 6.8423 7.46803 7.15486 7.15547C7.46742 6.84291 7.89135 6.66732 8.33337 6.66732H16.6667V11.6673C16.6667 12.9934 17.1935 14.2652 18.1312 15.2029C19.0689 16.1405 20.3406 16.6673 21.6667 16.6673H26.6667V18.334C26.6667 18.776 26.8423 19.1999 27.1549 19.5125C27.4674 19.8251 27.8913 20.0007 28.3334 20.0007C28.7754 20.0007 29.1993 19.8251 29.5119 19.5125C29.8244 19.1999 30 18.776 30 18.334V15.0007C30 15.0007 30 15.0007 30 14.9007C29.9827 14.7475 29.9492 14.5967 29.9 14.4507V14.3007C29.8199 14.1293 29.713 13.9718 29.5834 13.834V13.834L19.5834 3.83398C19.4456 3.70434 19.2881 3.59745 19.1167 3.51732C19.067 3.51025 19.0165 3.51025 18.9667 3.51732C18.7974 3.42022 18.6104 3.35789 18.4167 3.33398H8.33337C7.00729 3.33398 5.73552 3.86077 4.79784 4.79845C3.86016 5.73613 3.33337 7.0079 3.33337 8.33398V31.6673C3.33337 32.9934 3.86016 34.2652 4.79784 35.2029C5.73552 36.1405 7.00729 36.6673 8.33337 36.6673H20C20.4421 36.6673 20.866 36.4917 21.1786 36.1792C21.4911 35.8666 21.6667 35.4427 21.6667 35.0007C21.6667 34.5586 21.4911 34.1347 21.1786 33.8221C20.866 33.5096 20.4421 33.334 20 33.334ZM20 9.01732L24.3167 13.334H21.6667C21.2247 13.334 20.8008 13.1584 20.4882 12.8458C20.1756 12.5333 20 12.1093 20 11.6673V9.01732ZM11.6667 13.334C11.2247 13.334 10.8008 13.5096 10.4882 13.8221C10.1756 14.1347 10 14.5586 10 15.0007C10 15.4427 10.1756 15.8666 10.4882 16.1792C10.8008 16.4917 11.2247 16.6673 11.6667 16.6673H13.3334C13.7754 16.6673 14.1993 16.4917 14.5119 16.1792C14.8244 15.8666 15 15.4427 15 15.0007C15 14.5586 14.8244 14.1347 14.5119 13.8221C14.1993 13.5096 13.7754 13.334 13.3334 13.334H11.6667ZM36.1834 33.8173L34.2334 31.884C34.8566 30.7961 35.1061 29.5338 34.9436 28.2906C34.781 27.0474 34.2154 25.8917 33.3334 25.0007V25.0007C32.5218 24.1601 31.4758 23.5835 30.3318 23.3459C29.1877 23.1083 27.9987 23.2208 26.9195 23.6686C25.8403 24.1165 24.921 24.879 24.2813 25.8568C23.6417 26.8346 23.3114 27.9824 23.3334 29.1507C23.3276 30.156 23.5848 31.1453 24.0794 32.0206C24.574 32.8958 25.2888 33.6266 26.1529 34.1403C27.0171 34.6541 28.0005 34.933 29.0057 34.9494C30.0109 34.9659 31.0029 34.7192 31.8834 34.234L33.8167 36.184C33.9716 36.3402 34.156 36.4642 34.3591 36.5488C34.5622 36.6334 34.78 36.677 35 36.677C35.2201 36.677 35.4379 36.6334 35.641 36.5488C35.8441 36.4642 36.0284 36.3402 36.1834 36.184C36.3396 36.029 36.4636 35.8447 36.5482 35.6416C36.6328 35.4385 36.6764 35.2207 36.6764 35.0007C36.6764 34.7806 36.6328 34.5628 36.5482 34.3597C36.4636 34.1566 36.3396 33.9723 36.1834 33.8173V33.8173ZM30.9 30.9007C30.424 31.3483 29.7952 31.5975 29.1417 31.5975C28.4883 31.5975 27.8594 31.3483 27.3834 30.9007C26.9246 30.4337 26.6672 29.8053 26.6667 29.1507C26.6633 28.8219 26.7265 28.4959 26.8525 28.1922C26.9785 27.8886 27.1648 27.6136 27.4 27.384C27.8444 26.942 28.4403 26.6858 29.0667 26.6673C29.4037 26.6466 29.7413 26.6958 30.0583 26.8117C30.3754 26.9276 30.6651 27.1078 30.9092 27.341C31.1533 27.5742 31.3466 27.8553 31.477 28.1667C31.6073 28.4781 31.6719 28.8131 31.6667 29.1507C31.6529 29.8125 31.3772 30.4418 30.9 30.9007V30.9007ZM21.6667 20.0007H11.6667C11.2247 20.0007 10.8008 20.1762 10.4882 20.4888C10.1756 20.8014 10 21.2253 10 21.6673C10 22.1093 10.1756 22.5333 10.4882 22.8458C10.8008 23.1584 11.2247 23.334 11.6667 23.334H21.6667C22.1087 23.334 22.5327 23.1584 22.8452 22.8458C23.1578 22.5333 23.3334 22.1093 23.3334 21.6673C23.3334 21.2253 23.1578 20.8014 22.8452 20.4888C22.5327 20.1762 22.1087 20.0007 21.6667 20.0007ZM18.3334 30.0007C18.7754 30.0007 19.1993 29.8251 19.5119 29.5125C19.8244 29.1999 20 28.776 20 28.334C20 27.892 19.8244 27.468 19.5119 27.1555C19.1993 26.8429 18.7754 26.6673 18.3334 26.6673H11.6667C11.2247 26.6673 10.8008 26.8429 10.4882 27.1555C10.1756 27.468 10 27.892 10 28.334C10 28.776 10.1756 29.1999 10.4882 29.5125C10.8008 29.8251 11.2247 30.0007 11.6667 30.0007H18.3334Z" fill="white"/>
</svg>
