<svg width="40" height="40" viewBox="0 0 40 40" fill="none" xmlns="http://www.w3.org/2000/svg">
<path d="M23.3333 21.6673C23.3333 21.2253 23.1577 20.8014 22.8452 20.4888C22.5326 20.1762 22.1087 20.0007 21.6667 20.0007H13.3333C12.8913 20.0007 12.4674 20.1762 12.1548 20.4888C11.8423 20.8014 11.6667 21.2253 11.6667 21.6673C11.6667 22.1093 11.8423 22.5333 12.1548 22.8458C12.4674 23.1584 12.8913 23.334 13.3333 23.334H21.6667C22.1087 23.334 22.5326 23.1584 22.8452 22.8458C23.1577 22.5333 23.3333 22.1093 23.3333 21.6673ZM18.3333 33.334H10C9.55797 33.334 9.13405 33.1584 8.82149 32.8458C8.50893 32.5333 8.33333 32.1093 8.33333 31.6673V8.33398C8.33333 7.89196 8.50893 7.46803 8.82149 7.15547C9.13405 6.84291 9.55797 6.66732 10 6.66732H18.3333V11.6673C18.3333 12.9934 18.8601 14.2652 19.7978 15.2029C20.7355 16.1405 22.0073 16.6673 23.3333 16.6673H28.3333V18.334C28.3333 18.776 28.5089 19.1999 28.8215 19.5125C29.134 19.8251 29.558 20.0007 30 20.0007C30.442 20.0007 30.866 19.8251 31.1785 19.5125C31.4911 19.1999 31.6667 18.776 31.6667 18.334V15.0007C31.6667 15.0007 31.6667 15.0007 31.6667 14.9007C31.6511 14.7472 31.6175 14.5962 31.5667 14.4507V14.3007C31.4909 14.1269 31.3835 13.9686 31.25 13.834L21.25 3.83398C21.1122 3.70434 20.9547 3.59745 20.7833 3.51732H20.6333C20.4695 3.42149 20.2882 3.35917 20.1 3.33398H10C8.67392 3.33398 7.40215 3.86077 6.46447 4.79845C5.52678 5.73613 5 7.0079 5 8.33398V31.6673C5 32.9934 5.52678 34.2652 6.46447 35.2029C7.40215 36.1405 8.67392 36.6673 10 36.6673H18.3333C18.7754 36.6673 19.1993 36.4917 19.5118 36.1792C19.8244 35.8666 20 35.4427 20 35.0007C20 34.5586 19.8244 34.1347 19.5118 33.8221C19.1993 33.5096 18.7754 33.334 18.3333 33.334ZM21.6667 9.01732L25.9833 13.334H23.3333C22.8913 13.334 22.4674 13.1584 22.1548 12.8458C21.8423 12.5333 21.6667 12.1093 21.6667 11.6673V9.01732ZM33.3333 23.334C33.0109 23.3361 32.696 23.4317 32.4268 23.6092C32.1576 23.7867 31.9456 24.0385 31.8167 24.334C30.7677 23.6909 29.5636 23.3452 28.3333 23.334C27.2543 23.3324 26.1909 23.5928 25.2347 24.0928C24.2784 24.5928 23.4579 25.3175 22.8434 26.2046C22.229 27.0916 21.839 28.1146 21.7071 29.1855C21.5752 30.2565 21.7052 31.3435 22.086 32.3532C22.4668 33.3628 23.0869 34.265 23.8932 34.9821C24.6995 35.6992 25.6679 36.2099 26.7151 36.4703C27.7623 36.7307 28.857 36.733 29.9053 36.477C30.9536 36.221 31.924 35.7144 32.7333 35.0007C33.0671 34.7089 33.2712 34.2966 33.3009 33.8543C33.3306 33.412 33.1834 32.9761 32.8917 32.6423C32.5999 32.3086 32.1876 32.1044 31.7453 32.0747C31.303 32.045 30.8671 32.1922 30.5333 32.484C29.9281 33.026 29.1457 33.3282 28.3333 33.334C27.827 33.3258 27.3291 33.2024 26.8776 32.9731C26.4261 32.7438 26.0328 32.4146 25.7275 32.0105C25.4222 31.6065 25.213 31.1381 25.1157 30.6411C25.0185 30.1442 25.0358 29.6315 25.1663 29.1422C25.2967 28.6529 25.537 28.1997 25.8688 27.8171C26.2006 27.4346 26.6152 27.1326 27.0811 26.9342C27.5471 26.7358 28.0521 26.6462 28.5579 26.6721C29.0636 26.6981 29.5568 26.8389 30 27.084H29.6333C29.1913 27.084 28.7674 27.2596 28.4548 27.5721C28.1423 27.8847 27.9667 28.3086 27.9667 28.7507C27.9667 29.1927 28.1423 29.6166 28.4548 29.9292C28.7674 30.2417 29.1913 30.4173 29.6333 30.4173H33.3333C33.7754 30.4173 34.1993 30.2417 34.5118 29.9292C34.8244 29.6166 35 29.1927 35 28.7507V25.0007C35 24.5586 34.8244 24.1347 34.5118 23.8221C34.1993 23.5096 33.7754 23.334 33.3333 23.334ZM13.3333 16.6673H15C15.442 16.6673 15.866 16.4917 16.1785 16.1792C16.4911 15.8666 16.6667 15.4427 16.6667 15.0007C16.6667 14.5586 16.4911 14.1347 16.1785 13.8221C15.866 13.5096 15.442 13.334 15 13.334H13.3333C12.8913 13.334 12.4674 13.5096 12.1548 13.8221C11.8423 14.1347 11.6667 14.5586 11.6667 15.0007C11.6667 15.4427 11.8423 15.8666 12.1548 16.1792C12.4674 16.4917 12.8913 16.6673 13.3333 16.6673ZM13.3333 26.6673C12.8913 26.6673 12.4674 26.8429 12.1548 27.1555C11.8423 27.468 11.6667 27.892 11.6667 28.334C11.6667 28.776 11.8423 29.1999 12.1548 29.5125C12.4674 29.8251 12.8913 30.0007 13.3333 30.0007H16.6667C17.1087 30.0007 17.5326 29.8251 17.8452 29.5125C18.1577 29.1999 18.3333 28.776 18.3333 28.334C18.3333 27.892 18.1577 27.468 17.8452 27.1555C17.5326 26.8429 17.1087 26.6673 16.6667 26.6673H13.3333Z" fill="white"/>
</svg>
