<svg width="40" height="40" viewBox="0 0 40 40" fill="none" xmlns="http://www.w3.org/2000/svg">
<path d="M25 26.6673H15C14.5579 26.6673 14.134 26.8429 13.8214 27.1555C13.5089 27.468 13.3333 27.892 13.3333 28.334C13.3333 28.776 13.5089 29.1999 13.8214 29.5125C14.134 29.8251 14.5579 30.0007 15 30.0007H25C25.442 30.0007 25.8659 29.8251 26.1785 29.5125C26.491 29.1999 26.6666 28.776 26.6666 28.334C26.6666 27.892 26.491 27.468 26.1785 27.1555C25.8659 26.8429 25.442 26.6673 25 26.6673ZM15 16.6673H16.6666C17.1087 16.6673 17.5326 16.4917 17.8451 16.1792C18.1577 15.8666 18.3333 15.4427 18.3333 15.0007C18.3333 14.5586 18.1577 14.1347 17.8451 13.8221C17.5326 13.5096 17.1087 13.334 16.6666 13.334H15C14.5579 13.334 14.134 13.5096 13.8214 13.8221C13.5089 14.1347 13.3333 14.5586 13.3333 15.0007C13.3333 15.4427 13.5089 15.8666 13.8214 16.1792C14.134 16.4917 14.5579 16.6673 15 16.6673V16.6673ZM25 20.0007H15C14.5579 20.0007 14.134 20.1762 13.8214 20.4888C13.5089 20.8014 13.3333 21.2253 13.3333 21.6673C13.3333 22.1093 13.5089 22.5333 13.8214 22.8458C14.134 23.1584 14.5579 23.334 15 23.334H25C25.442 23.334 25.8659 23.1584 26.1785 22.8458C26.491 22.5333 26.6666 22.1093 26.6666 21.6673C26.6666 21.2253 26.491 20.8014 26.1785 20.4888C25.8659 20.1762 25.442 20.0007 25 20.0007ZM32.85 25.484C32.6915 25.3323 32.5045 25.2133 32.3 25.134C32.101 25.0438 31.8851 24.9971 31.6666 24.9971C31.4482 24.9971 31.2322 25.0438 31.0333 25.134C30.8287 25.2133 30.6418 25.3323 30.4833 25.484C30.3361 25.646 30.2177 25.832 30.1333 26.034C30.0057 26.3375 29.9708 26.672 30.0331 26.9953C30.0954 27.3187 30.252 27.6163 30.4833 27.8507C30.639 28.0051 30.8237 28.1273 31.0268 28.2103C31.2298 28.2932 31.4473 28.3353 31.6666 28.334C31.8844 28.3314 32.0996 28.2861 32.3 28.2007C32.5019 28.1162 32.688 27.9979 32.85 27.8507C33.0812 27.6163 33.2379 27.3187 33.3002 26.9953C33.3625 26.672 33.3276 26.3375 33.2 26.034C33.1156 25.832 32.9972 25.646 32.85 25.484V25.484ZM33.3333 14.9007C33.3159 14.7475 33.2824 14.5967 33.2333 14.4507V14.3007C33.1532 14.1293 33.0463 13.9718 32.9166 13.834V13.834L22.9166 3.83398C22.7789 3.70434 22.6213 3.59745 22.45 3.51732C22.4002 3.51025 22.3497 3.51025 22.3 3.51732C22.1307 3.42022 21.9437 3.35789 21.75 3.33398H11.6666C10.3405 3.33398 9.06877 3.86077 8.13109 4.79845C7.19341 5.73613 6.66663 7.0079 6.66663 8.33398V31.6673C6.66663 32.9934 7.19341 34.2652 8.13109 35.2029C9.06877 36.1405 10.3405 36.6673 11.6666 36.6673H25C25.442 36.6673 25.8659 36.4917 26.1785 36.1792C26.491 35.8666 26.6666 35.4427 26.6666 35.0007C26.6666 34.5586 26.491 34.1347 26.1785 33.8221C25.8659 33.5096 25.442 33.334 25 33.334H11.6666C11.2246 33.334 10.8007 33.1584 10.4881 32.8458C10.1756 32.5333 9.99996 32.1093 9.99996 31.6673V8.33398C9.99996 7.89196 10.1756 7.46803 10.4881 7.15547C10.8007 6.84291 11.2246 6.66732 11.6666 6.66732H20V11.6673C20 12.9934 20.5267 14.2652 21.4644 15.2029C22.4021 16.1405 23.6739 16.6673 25 16.6673H30V20.0007C30 20.4427 30.1756 20.8666 30.4881 21.1792C30.8007 21.4917 31.2246 21.6673 31.6666 21.6673C32.1087 21.6673 32.5326 21.4917 32.8451 21.1792C33.1577 20.8666 33.3333 20.4427 33.3333 20.0007V15.0007C33.3333 15.0007 33.3333 15.0007 33.3333 14.9007ZM25 13.334C24.5579 13.334 24.134 13.1584 23.8214 12.8458C23.5089 12.5333 23.3333 12.1093 23.3333 11.6673V9.01732L27.65 13.334H25ZM31.6666 30.0007C31.2246 30.0007 30.8007 30.1762 30.4881 30.4888C30.1756 30.8014 30 31.2253 30 31.6673V35.0007C30 35.4427 30.1756 35.8666 30.4881 36.1792C30.8007 36.4917 31.2246 36.6673 31.6666 36.6673C32.1087 36.6673 32.5326 36.4917 32.8451 36.1792C33.1577 35.8666 33.3333 35.4427 33.3333 35.0007V31.6673C33.3333 31.2253 33.1577 30.8014 32.8451 30.4888C32.5326 30.1762 32.1087 30.0007 31.6666 30.0007Z" fill="white"/>
</svg>
