<svg width="32" height="32" viewBox="0 0 32 32" fill="none" xmlns="http://www.w3.org/2000/svg">
<g id="filter">
<path id="Vector" d="M3.66667 8C3.40146 8 3.1471 8.10536 2.95956 8.29289C2.77203 8.48043 2.66667 8.73478 2.66667 9C2.66667 9.26522 2.77203 9.51957 2.95956 9.70711C3.1471 9.89464 3.40146 10 3.66667 10H28.3333C28.5986 10 28.8529 9.89464 29.0404 9.70711C29.228 9.51957 29.3333 9.26522 29.3333 9C29.3333 8.73478 29.228 8.48043 29.0404 8.29289C28.8529 8.10536 28.5986 8 28.3333 8H3.66667ZM8 15.6667C8 15.4015 8.10536 15.1471 8.2929 14.9596C8.48043 14.772 8.73479 14.6667 9 14.6667H23C23.2652 14.6667 23.5196 14.772 23.7071 14.9596C23.8946 15.1471 24 15.4015 24 15.6667C24 15.9319 23.8946 16.1862 23.7071 16.3738C23.5196 16.5613 23.2652 16.6667 23 16.6667H9C8.73479 16.6667 8.48043 16.5613 8.2929 16.3738C8.10536 16.1862 8 15.9319 8 15.6667ZM13.3333 22.2507C13.3333 21.9855 13.4387 21.7311 13.6262 21.5436C13.8138 21.356 14.0681 21.2507 14.3333 21.2507H17.6667C17.9319 21.2507 18.1862 21.356 18.3738 21.5436C18.5613 21.7311 18.6667 21.9855 18.6667 22.2507C18.6667 22.5159 18.5613 22.7702 18.3738 22.9578C18.1862 23.1453 17.9319 23.2507 17.6667 23.2507H14.3333C14.0681 23.2507 13.8138 23.1453 13.6262 22.9578C13.4387 22.7702 13.3333 22.5159 13.3333 22.2507Z" fill="#CC992C"/>
</g>
</svg>
