<svg width="32" height="32" viewBox="0 0 32 32" fill="none" xmlns="http://www.w3.org/2000/svg">
<g clip-path="url(#clip0_226_2678)">
<path d="M6.66668 25.3333V30.6666H30.6667V7.95998H25.3333M2.66668 24L9.33334 16L13.3333 20L18.6667 13.3333L25.3333 21.3333M1.33334 1.33331H25.3333V25.3333H1.33334V1.33331ZM8.00001 10.6666C8.35363 10.6666 8.69277 10.5262 8.94282 10.2761C9.19287 10.0261 9.33334 9.68693 9.33334 9.33331C9.33334 8.97969 9.19287 8.64055 8.94282 8.3905C8.69277 8.14046 8.35363 7.99998 8.00001 7.99998C7.64639 7.99998 7.30725 8.14046 7.0572 8.3905C6.80715 8.64055 6.66668 8.97969 6.66668 9.33331C6.66668 9.68693 6.80715 10.0261 7.0572 10.2761C7.30725 10.5262 7.64639 10.6666 8.00001 10.6666Z" stroke="black" stroke-width="3.33333"/>
</g>
<defs>
<clipPath id="clip0_226_2678">
<rect width="32" height="32" fill="white"/>
</clipPath>
</defs>
</svg>
