<svg width="32" height="32" viewBox="0 0 32 32" fill="none" xmlns="http://www.w3.org/2000/svg">
<path d="M1.33335 22.9333C1.33335 22.1778 1.52801 21.4831 1.91735 20.8493C2.30668 20.2156 2.82312 19.7325 3.46668 19.4C4.84446 18.7111 6.24446 18.1942 7.66668 17.8493C9.0889 17.5045 10.5333 17.3325 12 17.3333C13.4667 17.3333 14.9111 17.5058 16.3333 17.8507C17.7556 18.1956 19.1556 18.712 20.5333 19.4C21.1778 19.7333 21.6947 20.2169 22.084 20.8507C22.4733 21.4845 22.6676 22.1787 22.6667 22.9333V24C22.6667 24.7333 22.4053 25.3613 21.8827 25.884C21.36 26.4067 20.7325 26.6676 20 26.6667H4.00001C3.26668 26.6667 2.63868 26.4053 2.11601 25.8827C1.59335 25.36 1.33246 24.7325 1.33335 24V22.9333ZM24.6 26.6667C24.8445 26.2667 25.028 25.8387 25.1507 25.3827C25.2733 24.9267 25.3342 24.4658 25.3333 24V22.6667C25.3333 21.6889 25.0609 20.7498 24.516 19.8493C23.9711 18.9489 23.1991 18.1769 22.2 17.5333C23.3333 17.6667 24.4 17.8947 25.4 18.2173C26.4 18.54 27.3333 18.9342 28.2 19.4C29 19.8445 29.6111 20.3387 30.0333 20.8827C30.4556 21.4267 30.6667 22.0213 30.6667 22.6667V24C30.6667 24.7333 30.4058 25.3613 29.884 25.884C29.3622 26.4067 28.7342 26.6676 28 26.6667H24.6ZM12 16C10.5333 16 9.27779 15.4778 8.23335 14.4333C7.1889 13.3889 6.66668 12.1333 6.66668 10.6667C6.66668 9.20001 7.1889 7.94446 8.23335 6.90001C9.27779 5.85557 10.5333 5.33335 12 5.33335C13.4667 5.33335 14.7222 5.85557 15.7667 6.90001C16.8111 7.94446 17.3333 9.20001 17.3333 10.6667C17.3333 12.1333 16.8111 13.3889 15.7667 14.4333C14.7222 15.4778 13.4667 16 12 16ZM25.3333 10.6667C25.3333 12.1333 24.8111 13.3889 23.7667 14.4333C22.7222 15.4778 21.4667 16 20 16C19.7556 16 19.4445 15.972 19.0667 15.916C18.6889 15.86 18.3778 15.7991 18.1333 15.7333C18.7333 15.0222 19.1947 14.2333 19.5173 13.3667C19.84 12.5 20.0009 11.6 20 10.6667C20 9.73335 19.8391 8.83335 19.5173 7.96668C19.1956 7.10001 18.7342 6.31112 18.1333 5.60001C18.4445 5.4889 18.7556 5.41646 19.0667 5.38268C19.3778 5.3489 19.6889 5.33246 20 5.33335C21.4667 5.33335 22.7222 5.85557 23.7667 6.90001C24.8111 7.94446 25.3333 9.20001 25.3333 10.6667Z" fill="black"/>
</svg>
