<svg width="26" height="26" viewBox="0 0 26 26" fill="none" xmlns="http://www.w3.org/2000/svg">
<path d="M12.1125 17.1125C12.0587 17.1719 12.0087 17.2345 11.9625 17.3C11.9152 17.3697 11.8774 17.4453 11.85 17.525C11.814 17.5959 11.7887 17.6717 11.775 17.75C11.7689 17.8332 11.7689 17.9168 11.775 18C11.7708 18.164 11.805 18.3267 11.875 18.475C11.9311 18.6301 12.0207 18.771 12.1374 18.8876C12.254 19.0043 12.3949 19.0939 12.55 19.15C12.6996 19.2161 12.8614 19.2503 13.025 19.2503C13.1886 19.2503 13.3504 19.2161 13.5 19.15C13.6551 19.0939 13.796 19.0043 13.9126 18.8876C14.0293 18.771 14.1189 18.6301 14.175 18.475C14.2305 18.323 14.256 18.1617 14.25 18C14.251 17.8355 14.2194 17.6724 14.1572 17.5201C14.095 17.3678 14.0034 17.2293 13.8875 17.1125C13.7713 16.9953 13.6331 16.9023 13.4807 16.8389C13.3284 16.7754 13.165 16.7428 13 16.7428C12.835 16.7428 12.6716 16.7754 12.5193 16.8389C12.367 16.9023 12.2287 16.9953 12.1125 17.1125ZM13 0.5C10.5277 0.5 8.11099 1.23311 6.05538 2.60663C3.99976 3.98015 2.39761 5.93238 1.45151 8.21646C0.505416 10.5005 0.257874 13.0139 0.74019 15.4386C1.2225 17.8634 2.41301 20.0907 4.16117 21.8388C5.90933 23.587 8.13661 24.7775 10.5614 25.2598C12.9861 25.7421 15.4995 25.4946 17.7836 24.5485C20.0676 23.6024 22.0199 22.0002 23.3934 19.9446C24.7669 17.889 25.5 15.4723 25.5 13C25.5 11.3585 25.1767 9.73303 24.5485 8.21646C23.9203 6.69989 22.9996 5.3219 21.8388 4.16117C20.6781 3.00043 19.3001 2.07969 17.7836 1.45151C16.267 0.823322 14.6415 0.5 13 0.5ZM13 23C11.0222 23 9.08879 22.4135 7.4443 21.3147C5.79981 20.2159 4.51809 18.6541 3.76121 16.8268C3.00433 14.9996 2.8063 12.9889 3.19215 11.0491C3.57801 9.10929 4.53041 7.32746 5.92894 5.92893C7.32746 4.53041 9.10929 3.578 11.0491 3.19215C12.9889 2.8063 14.9996 3.00433 16.8268 3.7612C18.6541 4.51808 20.2159 5.79981 21.3147 7.4443C22.4135 9.08879 23 11.0222 23 13C23 15.6522 21.9464 18.1957 20.0711 20.0711C18.1957 21.9464 15.6522 23 13 23ZM13 6.75C12.3413 6.74958 11.6942 6.92265 11.1236 7.2518C10.5531 7.58096 10.0793 8.05457 9.75 8.625C9.65956 8.76727 9.59883 8.92637 9.57147 9.09272C9.54411 9.25907 9.55068 9.42924 9.59079 9.59298C9.6309 9.75673 9.70372 9.91067 9.80486 10.0455C9.90601 10.1804 10.0334 10.2934 10.1793 10.3778C10.3253 10.4622 10.4868 10.5161 10.6542 10.5365C10.8215 10.5568 10.9913 10.5431 11.1532 10.4961C11.3151 10.4491 11.4658 10.3699 11.5963 10.2631C11.7268 10.1564 11.8344 10.0244 11.9125 9.875C12.0226 9.68424 12.1812 9.52598 12.3722 9.41622C12.5632 9.30647 12.7797 9.24913 13 9.25C13.3315 9.25 13.6495 9.3817 13.8839 9.61612C14.1183 9.85054 14.25 10.1685 14.25 10.5C14.25 10.8315 14.1183 11.1495 13.8839 11.3839C13.6495 11.6183 13.3315 11.75 13 11.75C12.6685 11.75 12.3505 11.8817 12.1161 12.1161C11.8817 12.3505 11.75 12.6685 11.75 13V14.25C11.75 14.5815 11.8817 14.8995 12.1161 15.1339C12.3505 15.3683 12.6685 15.5 13 15.5C13.3315 15.5 13.6495 15.3683 13.8839 15.1339C14.1183 14.8995 14.25 14.5815 14.25 14.25V14.025C15.0767 13.725 15.7717 13.144 16.2135 12.3836C16.6552 11.6231 16.8157 10.7316 16.6668 9.86486C16.5178 8.99811 16.069 8.21127 15.3987 7.64189C14.7285 7.07252 13.8794 6.75682 13 6.75Z" fill="white"/>
</svg>
