<svg width="30" height="30" viewBox="0 0 30 30" fill="none" xmlns="http://www.w3.org/2000/svg">
<path d="M26.25 5.5125L27.1375 4.6375C27.3729 4.40212 27.5051 4.08288 27.5051 3.75C27.5051 3.41713 27.3729 3.09788 27.1375 2.8625C26.9021 2.62712 26.5829 2.49489 26.25 2.49489C25.9171 2.49489 25.5979 2.62712 25.3625 2.8625L23.6125 4.625L20.075 8.1625L12.1875 16.0375C10.895 15.1848 9.33209 14.8422 7.80146 15.0761C6.27083 15.31 4.88152 16.1038 3.90273 17.3036C2.92394 18.5034 2.42536 20.0238 2.50359 21.5702C2.58183 23.1166 3.23131 24.5789 4.32619 25.6738C5.42108 26.7687 6.8834 27.4182 8.42982 27.4964C9.97624 27.5746 11.4966 27.0761 12.6964 26.0973C13.8962 25.1185 14.69 23.7292 14.9239 22.1985C15.1578 20.6679 14.8152 19.105 13.9625 17.8125L20.95 10.8125L23.6 13.475C23.7165 13.5907 23.8547 13.6824 24.0067 13.7447C24.1587 13.807 24.3214 13.8388 24.4857 13.8382C24.6499 13.8376 24.8124 13.8047 24.964 13.7413C25.1155 13.6779 25.253 13.5853 25.3687 13.4688C25.4845 13.3522 25.5761 13.214 25.6384 13.062C25.7007 12.9101 25.7325 12.7473 25.7319 12.5831C25.7314 12.4188 25.6984 12.2563 25.635 12.1048C25.5717 11.9533 25.479 11.8157 25.3625 11.7L22.7125 9.05L24.4875 7.2875L25.3625 8.1625C25.4782 8.27905 25.6158 8.37166 25.7673 8.43505C25.9188 8.49844 26.0813 8.53137 26.2456 8.53195C26.4098 8.53253 26.5726 8.50075 26.7245 8.43844C26.8765 8.37612 27.0147 8.28448 27.1312 8.16875C27.2478 8.05303 27.3404 7.91548 27.4038 7.76396C27.4672 7.61244 27.5001 7.44992 27.5007 7.28567C27.5013 7.12143 27.4695 6.95868 27.4072 6.80672C27.3449 6.65475 27.2532 6.51655 27.1375 6.4L26.25 5.5125ZM8.75 25C8.00832 25 7.28329 24.7801 6.66661 24.368C6.04993 23.956 5.56928 23.3703 5.28545 22.6851C5.00162 21.9998 4.92736 21.2458 5.07205 20.5184C5.21675 19.791 5.5739 19.1228 6.09835 18.5984C6.6228 18.0739 7.29098 17.7168 8.01841 17.5721C8.74584 17.4274 9.49984 17.5016 10.1851 17.7855C10.8703 18.0693 11.456 18.5499 11.868 19.1666C12.2801 19.7833 12.5 20.5083 12.5 21.25C12.5 22.2446 12.1049 23.1984 11.4016 23.9017C10.6984 24.6049 9.74456 25 8.75 25Z" fill="#297DEE"/>
</svg>
