<svg width="26" height="26" viewBox="0 0 26 26" fill="none" xmlns="http://www.w3.org/2000/svg">
<path d="M20.5 11.525C20.1685 11.525 19.8505 11.6567 19.6161 11.8911C19.3817 12.1255 19.25 12.4435 19.25 12.775V21.75C19.25 22.0815 19.1183 22.3995 18.8839 22.6339C18.6495 22.8683 18.3315 23 18 23H4.25C3.91848 23 3.60054 22.8683 3.36612 22.6339C3.1317 22.3995 3 22.0815 3 21.75V8C3 7.66848 3.1317 7.35054 3.36612 7.11612C3.60054 6.8817 3.91848 6.75 4.25 6.75H13.225C13.5565 6.75 13.8745 6.6183 14.1089 6.38388C14.3433 6.14946 14.475 5.83152 14.475 5.5C14.475 5.16848 14.3433 4.85054 14.1089 4.61612C13.8745 4.3817 13.5565 4.25 13.225 4.25H4.25C3.25544 4.25 2.30161 4.64509 1.59835 5.34835C0.895088 6.05161 0.5 7.00544 0.5 8V21.75C0.5 22.7446 0.895088 23.6984 1.59835 24.4017C2.30161 25.1049 3.25544 25.5 4.25 25.5H18C18.9946 25.5 19.9484 25.1049 20.6517 24.4017C21.3549 23.6984 21.75 22.7446 21.75 21.75V12.775C21.75 12.4435 21.6183 12.1255 21.3839 11.8911C21.1495 11.6567 20.8315 11.525 20.5 11.525ZM25.4 1.275C25.2732 0.969563 25.0304 0.726844 24.725 0.6C24.5747 0.535949 24.4133 0.501975 24.25 0.5H16.75C16.4185 0.5 16.1005 0.631696 15.8661 0.866116C15.6317 1.10054 15.5 1.41848 15.5 1.75C15.5 2.08152 15.6317 2.39946 15.8661 2.63388C16.1005 2.8683 16.4185 3 16.75 3H21.2375L8.3625 15.8625C8.24534 15.9787 8.15235 16.117 8.08889 16.2693C8.02542 16.4216 7.99275 16.585 7.99275 16.75C7.99275 16.915 8.02542 17.0784 8.08889 17.2307C8.15235 17.383 8.24534 17.5213 8.3625 17.6375C8.4787 17.7547 8.61695 17.8477 8.76928 17.9111C8.9216 17.9746 9.08498 18.0072 9.25 18.0072C9.41502 18.0072 9.5784 17.9746 9.73072 17.9111C9.88305 17.8477 10.0213 17.7547 10.1375 17.6375L23 4.7625V9.25C23 9.58152 23.1317 9.89946 23.3661 10.1339C23.6005 10.3683 23.9185 10.5 24.25 10.5C24.5815 10.5 24.8995 10.3683 25.1339 10.1339C25.3683 9.89946 25.5 9.58152 25.5 9.25V1.75C25.498 1.58665 25.4641 1.42528 25.4 1.275Z" fill="#297DEE"/>
</svg>
