<svg width="16" height="16" viewBox="0 0 16 16" fill="none" xmlns="http://www.w3.org/2000/svg">
<path d="M8 1.33301C6.58552 1.33301 5.22896 1.89491 4.22877 2.89511C3.22857 3.8953 2.66667 5.25185 2.66667 6.66634C2.66667 10.2663 7.36667 14.333 7.56667 14.5063C7.68743 14.6096 7.8411 14.6664 8 14.6664C8.15891 14.6664 8.31258 14.6096 8.43334 14.5063C8.66667 14.333 13.3333 10.2663 13.3333 6.66634C13.3333 5.25185 12.7714 3.8953 11.7712 2.89511C10.771 1.89491 9.41449 1.33301 8 1.33301ZM8 13.0997C6.58 11.7663 4.00001 8.89301 4.00001 6.66634C4.00001 5.60548 4.42143 4.58806 5.17158 3.83791C5.92172 3.08777 6.93914 2.66634 8 2.66634C9.06087 2.66634 10.0783 3.08777 10.8284 3.83791C11.5786 4.58806 12 5.60548 12 6.66634C12 8.89301 9.42 11.773 8 13.0997ZM8 3.99967C7.47259 3.99967 6.95702 4.15607 6.51848 4.44909C6.07995 4.74211 5.73816 5.15858 5.53633 5.64585C5.33449 6.13312 5.28168 6.6693 5.38458 7.18658C5.48747 7.70386 5.74145 8.17902 6.11439 8.55196C6.48733 8.9249 6.96248 9.17887 7.47976 9.28177C7.99705 9.38466 8.53322 9.33185 9.02049 9.13002C9.50776 8.92819 9.92424 8.58639 10.2173 8.14786C10.5103 7.70933 10.6667 7.19376 10.6667 6.66634C10.6667 5.9591 10.3857 5.28082 9.88562 4.78072C9.38553 4.28063 8.70725 3.99967 8 3.99967ZM8 7.99967C7.7363 7.99967 7.47851 7.92148 7.25924 7.77497C7.03998 7.62846 6.86908 7.42022 6.76817 7.17659C6.66725 6.93295 6.64084 6.66486 6.69229 6.40622C6.74374 6.14758 6.87073 5.91 7.0572 5.72353C7.24367 5.53706 7.48124 5.41007 7.73988 5.35863C7.99853 5.30718 8.26661 5.33358 8.51025 5.4345C8.75388 5.53542 8.96212 5.70632 9.10863 5.92558C9.25514 6.14485 9.33334 6.40263 9.33334 6.66634C9.33334 7.01996 9.19286 7.3591 8.94281 7.60915C8.69277 7.8592 8.35363 7.99967 8 7.99967Z" fill="#28A138"/>
</svg>
