<svg width="16" height="16" viewBox="0 0 16 16" fill="none" xmlns="http://www.w3.org/2000/svg">
<path d="M14.6667 1.33398H1.33333C1.15652 1.33398 0.98695 1.40422 0.861926 1.52925C0.736902 1.65427 0.666664 1.82384 0.666664 2.00065V7.33398C0.666664 7.5108 0.736902 7.68036 0.861926 7.80539C0.98695 7.93041 1.15652 8.00065 1.33333 8.00065H3.33333V14.0007C3.33333 14.1775 3.40357 14.347 3.52859 14.4721C3.65362 14.5971 3.82319 14.6673 4 14.6673H12C12.1768 14.6673 12.3464 14.5971 12.4714 14.4721C12.5964 14.347 12.6667 14.1775 12.6667 14.0007V8.00065H14.6667C14.8435 8.00065 15.013 7.93041 15.1381 7.80539C15.2631 7.68036 15.3333 7.5108 15.3333 7.33398V2.00065C15.3333 1.82384 15.2631 1.65427 15.1381 1.52925C15.013 1.40422 14.8435 1.33398 14.6667 1.33398ZM4.66666 13.334V12.0007C5.02029 12.0007 5.35942 12.1411 5.60947 12.3912C5.85952 12.6412 6 12.9804 6 13.334H4.66666ZM11.3333 13.334H10C10 12.9804 10.1405 12.6412 10.3905 12.3912C10.6406 12.1411 10.9797 12.0007 11.3333 12.0007V13.334ZM11.3333 10.6673C10.6261 10.6673 9.94781 10.9483 9.44771 11.4484C8.94761 11.9485 8.66666 12.6267 8.66666 13.334H7.33333C7.33333 12.6267 7.05238 11.9485 6.55228 11.4484C6.05219 10.9483 5.37391 10.6673 4.66666 10.6673V5.33398H11.3333V10.6673ZM14 6.66732H12.6667V4.66732C12.6667 4.49051 12.5964 4.32094 12.4714 4.19591C12.3464 4.07089 12.1768 4.00065 12 4.00065H4C3.82319 4.00065 3.65362 4.07089 3.52859 4.19591C3.40357 4.32094 3.33333 4.49051 3.33333 4.66732V6.66732H2V2.66732H14V6.66732ZM8 10.0007C8.39556 10.0007 8.78224 9.88335 9.11114 9.66359C9.44004 9.44383 9.69638 9.13147 9.84776 8.76602C9.99913 8.40057 10.0387 7.99843 9.96157 7.61047C9.8844 7.22251 9.69392 6.86614 9.41421 6.58644C9.13451 6.30673 8.77814 6.11625 8.39018 6.03908C8.00222 5.96191 7.60008 6.00152 7.23463 6.15289C6.86918 6.30427 6.55682 6.56061 6.33706 6.88951C6.1173 7.21841 6 7.60509 6 8.00065C6 8.53108 6.21071 9.03979 6.58578 9.41487C6.96086 9.78994 7.46956 10.0007 8 10.0007ZM8 7.33398C8.13185 7.33398 8.26074 7.37308 8.37038 7.44634C8.48001 7.51959 8.56546 7.62371 8.61592 7.74553C8.66638 7.86735 8.67958 8.00139 8.65385 8.13071C8.62813 8.26003 8.56464 8.37882 8.4714 8.47206C8.37817 8.56529 8.25938 8.62878 8.13006 8.65451C8.00074 8.68023 7.86669 8.66703 7.74487 8.61657C7.62306 8.56611 7.51894 8.48066 7.44568 8.37103C7.37243 8.2614 7.33333 8.13251 7.33333 8.00065C7.33333 7.82384 7.40357 7.65427 7.52859 7.52925C7.65362 7.40422 7.82319 7.33398 8 7.33398Z" fill="#1F262C"/>
</svg>
