<svg width="16" height="16" viewBox="0 0 16 16" fill="none" xmlns="http://www.w3.org/2000/svg">
<path d="M4 7.33301C3.86815 7.33301 3.73926 7.37211 3.62962 7.44536C3.51999 7.51862 3.43454 7.62273 3.38409 7.74455C3.33363 7.86637 3.32042 8.00041 3.34615 8.12973C3.37187 8.25906 3.43537 8.37784 3.5286 8.47108C3.62184 8.56431 3.74062 8.62781 3.86994 8.65353C3.99927 8.67926 4.13331 8.66605 4.25513 8.61559C4.37694 8.56514 4.48106 8.47969 4.55432 8.37006C4.62757 8.26042 4.66667 8.13153 4.66667 7.99967C4.66667 7.82286 4.59643 7.65329 4.47141 7.52827C4.34639 7.40325 4.17682 7.33301 4 7.33301ZM12 7.33301C11.8681 7.33301 11.7393 7.37211 11.6296 7.44536C11.52 7.51862 11.4345 7.62273 11.3841 7.74455C11.3336 7.86637 11.3204 8.00041 11.3461 8.12973C11.3719 8.25906 11.4354 8.37784 11.5286 8.47108C11.6218 8.56431 11.7406 8.62781 11.8699 8.65353C11.9993 8.67926 12.1333 8.66605 12.2551 8.61559C12.3769 8.56514 12.4811 8.47969 12.5543 8.37006C12.6276 8.26042 12.6667 8.13153 12.6667 7.99967C12.6667 7.82286 12.5964 7.65329 12.4714 7.52827C12.3464 7.40325 12.1768 7.33301 12 7.33301ZM13.3333 3.33301H2.66667C2.13624 3.33301 1.62753 3.54372 1.25246 3.91879C0.877385 4.29387 0.666672 4.80257 0.666672 5.33301V10.6663C0.666672 11.1968 0.877385 11.7055 1.25246 12.0806C1.62753 12.4556 2.13624 12.6663 2.66667 12.6663H13.3333C13.8638 12.6663 14.3725 12.4556 14.7476 12.0806C15.1226 11.7055 15.3333 11.1968 15.3333 10.6663V5.33301C15.3333 4.80257 15.1226 4.29387 14.7476 3.91879C14.3725 3.54372 13.8638 3.33301 13.3333 3.33301ZM14 10.6663C14 10.8432 13.9298 11.0127 13.8047 11.1377C13.6797 11.2628 13.5101 11.333 13.3333 11.333H2.66667C2.48986 11.333 2.32029 11.2628 2.19527 11.1377C2.07024 11.0127 2.00001 10.8432 2.00001 10.6663V5.33301C2.00001 5.1562 2.07024 4.98663 2.19527 4.8616C2.32029 4.73658 2.48986 4.66634 2.66667 4.66634H13.3333C13.5101 4.66634 13.6797 4.73658 13.8047 4.8616C13.9298 4.98663 14 5.1562 14 5.33301V10.6663ZM8 5.99967C7.60444 5.99967 7.21776 6.11697 6.88886 6.33674C6.55997 6.5565 6.30362 6.86886 6.15225 7.23431C6.00087 7.59976 5.96126 8.00189 6.03843 8.38986C6.1156 8.77782 6.30609 9.13418 6.58579 9.41389C6.8655 9.69359 7.22186 9.88408 7.60982 9.96125C7.99779 10.0384 8.39992 9.99881 8.76537 9.84743C9.13082 9.69606 9.44318 9.43971 9.66294 9.11082C9.88271 8.78192 10 8.39524 10 7.99967C10 7.46924 9.78929 6.96053 9.41422 6.58546C9.03915 6.21039 8.53044 5.99967 8 5.99967ZM8 8.66634C7.86815 8.66634 7.73926 8.62724 7.62962 8.55399C7.51999 8.48073 7.43454 8.37661 7.38408 8.2548C7.33363 8.13298 7.32042 7.99894 7.34615 7.86961C7.37187 7.74029 7.43537 7.62151 7.5286 7.52827C7.62184 7.43504 7.74062 7.37154 7.86994 7.34582C7.99927 7.32009 8.13331 7.3333 8.25513 7.38375C8.37694 7.43421 8.48106 7.51966 8.55432 7.62929C8.62757 7.73893 8.66667 7.86782 8.66667 7.99967C8.66667 8.17649 8.59643 8.34605 8.47141 8.47108C8.34639 8.5961 8.17682 8.66634 8 8.66634Z" fill="#297DEE"/>
</svg>
