<svg width="32" height="32" viewBox="0 0 32 32" fill="none" xmlns="http://www.w3.org/2000/svg">
<g id="money_bag">
<g id="Group">
<path id="Vector" d="M16 22.9029V25.2114M16 11.4514V13.6M16 30.8343C24 30.8343 29.7143 28 29.7143 21.6914C29.7143 14.8343 26.2857 10.2629 19.4286 6.83428L22.1257 3.35999C22.2627 3.13204 22.3371 2.87191 22.3411 2.60598C22.3452 2.34005 22.2789 2.07776 22.149 1.8457C22.019 1.61365 21.83 1.42007 21.6012 1.2846C21.3723 1.14912 21.1117 1.07656 20.8457 1.07428H11.1543C10.8883 1.07656 10.6277 1.14912 10.3988 1.2846C10.17 1.42007 9.98096 1.61365 9.85101 1.8457C9.72106 2.07776 9.65477 2.34005 9.65885 2.60598C9.66294 2.87191 9.73726 3.13204 9.87429 3.35999L12.5714 6.85714C5.71429 10.3086 2.28571 14.88 2.28571 21.7371C2.28571 28 8 30.8343 16 30.8343Z" stroke="black" stroke-linecap="round" stroke-linejoin="round"/>
<path id="Vector_2" d="M13.7143 21.8514C13.9932 22.1825 14.3442 22.4452 14.7404 22.6196C15.1366 22.7939 15.5675 22.8752 16 22.8571C16.661 22.9022 17.3138 22.6892 17.8211 22.2629C18.3283 21.8367 18.6505 21.2303 18.72 20.5714C18.6505 19.9125 18.3283 19.3062 17.8211 18.8799C17.3138 18.4536 16.661 18.2406 16 18.2857C15.339 18.3308 14.6862 18.1178 14.1789 17.6915C13.6717 17.2652 13.3495 16.6589 13.28 16C13.3439 15.3387 13.6645 14.7289 14.1731 14.3016C14.6817 13.8742 15.3376 13.6633 16 13.7143C16.4249 13.6883 16.8502 13.7568 17.2455 13.9149C17.6407 14.073 17.996 14.3167 18.2857 14.6286" stroke="black" stroke-linecap="round" stroke-linejoin="round"/>
</g>
</g>
</svg>
