<svg width="40" height="40" viewBox="0 0 40 40" fill="none" xmlns="http://www.w3.org/2000/svg">
<path d="M13.8167 10.3503L17.15 13.6836C17.305 13.8399 17.4893 13.9638 17.6924 14.0485C17.8955 14.1331 18.1133 14.1766 18.3334 14.1766C18.5534 14.1766 18.7712 14.1331 18.9743 14.0485C19.1774 13.9638 19.3618 13.8399 19.5167 13.6836C19.6729 13.5287 19.7969 13.3444 19.8815 13.1413C19.9661 12.9382 20.0097 12.7203 20.0097 12.5003C20.0097 12.2803 19.9661 12.0624 19.8815 11.8593C19.7969 11.6562 19.6729 11.4719 19.5167 11.317L19.0167 10.8336H25C25.4421 10.8336 25.866 10.658 26.1785 10.3455C26.4911 10.0329 26.6667 9.609 26.6667 9.16698C26.6667 8.72495 26.4911 8.30103 26.1785 7.98846C25.866 7.6759 25.4421 7.50031 25 7.50031H19.0167L19.5167 7.01698C19.6721 6.86158 19.7954 6.67709 19.8795 6.47406C19.9636 6.27102 20.0068 6.05341 20.0068 5.83364C20.0068 5.61388 19.9636 5.39626 19.8795 5.19323C19.7954 4.99019 19.6721 4.80571 19.5167 4.65031C19.3613 4.49491 19.1768 4.37164 18.9738 4.28754C18.7707 4.20344 18.5531 4.16016 18.3334 4.16016C18.1136 4.16016 17.896 4.20344 17.6929 4.28754C17.4899 4.37164 17.3054 4.49491 17.15 4.65031L13.8167 7.98364C13.665 8.14215 13.546 8.32906 13.4667 8.53364C13.3 8.93941 13.3 9.39454 13.4667 9.80031C13.546 10.0049 13.665 10.1918 13.8167 10.3503Z" fill="white"/>
<path d="M17.9953 26.8512H22.0047C22.2705 26.8512 22.5254 26.7439 22.7134 26.5529C22.9014 26.3619 23.007 26.1028 23.007 25.8327C23.007 25.5626 22.9014 25.3035 22.7134 25.1125C22.5254 24.9215 22.2705 24.8142 22.0047 24.8142H17.9953C17.7295 24.8142 17.4746 24.9215 17.2866 25.1125C17.0986 25.3035 16.993 25.5626 16.993 25.8327C16.993 26.1028 17.0986 26.3619 17.2866 26.5529C17.4746 26.7439 17.7295 26.8512 17.9953 26.8512V26.8512ZM27.0163 16.666H12.9837C12.2785 16.6716 11.5977 16.9288 11.0602 17.3927C10.5227 17.8567 10.1629 18.4978 10.0434 19.2041C9.92401 19.9103 10.0527 20.6367 10.4069 21.2563C10.7611 21.876 11.3184 22.3494 11.9813 22.5938V31.9438C11.9813 32.7542 12.2981 33.5314 12.8621 34.1044C13.426 34.6774 14.1908 34.9993 14.9883 34.9993H25.0117C25.8092 34.9993 26.574 34.6774 27.1379 34.1044C27.7019 33.5314 28.0187 32.7542 28.0187 31.9438V22.5938C28.6816 22.3494 29.2389 21.876 29.5931 21.2563C29.9473 20.6367 30.076 19.9103 29.9566 19.2041C29.8371 18.4978 29.4773 17.8567 28.9398 17.3927C28.4023 16.9288 27.7215 16.6716 27.0163 16.666ZM26.014 31.9438C26.014 32.2139 25.9084 32.473 25.7204 32.664C25.5324 32.855 25.2775 32.9623 25.0117 32.9623H14.9883C14.7225 32.9623 14.4676 32.855 14.2796 32.664C14.0916 32.473 13.986 32.2139 13.986 31.9438V22.7771H26.014V31.9438ZM27.0163 20.7401H12.9837C12.7178 20.7401 12.4629 20.6328 12.2749 20.4418C12.0869 20.2508 11.9813 19.9917 11.9813 19.7216C11.9813 19.4514 12.0869 19.1924 12.2749 19.0014C12.4629 18.8104 12.7178 18.7031 12.9837 18.7031H27.0163C27.2822 18.7031 27.5371 18.8104 27.7251 19.0014C27.9131 19.1924 28.0187 19.4514 28.0187 19.7216C28.0187 19.9917 27.9131 20.2508 27.7251 20.4418C27.5371 20.6328 27.2822 20.7401 27.0163 20.7401Z" fill="white"/>
</svg>
