<svg width="18" height="18" viewBox="0 0 18 18" fill="none" xmlns="http://www.w3.org/2000/svg">
<path d="M10.0575 8.99916L14.7825 4.28166C14.9237 4.14043 15.003 3.94889 15.003 3.74916C15.003 3.54944 14.9237 3.35789 14.7825 3.21666C14.6412 3.07543 14.4497 2.99609 14.25 2.99609C14.0502 2.99609 13.8587 3.07543 13.7175 3.21666L8.99995 7.94166L4.28245 3.21666C4.14123 3.07543 3.94968 2.99609 3.74995 2.99609C3.55023 2.99609 3.35868 3.07543 3.21745 3.21666C3.07623 3.35789 2.99689 3.54944 2.99689 3.74916C2.99689 3.94889 3.07623 4.14043 3.21745 4.28166L7.94245 8.99916L3.21745 13.7167C3.14716 13.7864 3.09136 13.8693 3.05329 13.9607C3.01521 14.0521 2.99561 14.1502 2.99561 14.2492C2.99561 14.3482 3.01521 14.4462 3.05329 14.5376C3.09136 14.629 3.14716 14.7119 3.21745 14.7817C3.28718 14.852 3.37013 14.9078 3.46152 14.9458C3.55292 14.9839 3.65095 15.0035 3.74995 15.0035C3.84896 15.0035 3.94699 14.9839 4.03839 14.9458C4.12978 14.9078 4.21273 14.852 4.28245 14.7817L8.99995 10.0567L13.7175 14.7817C13.7872 14.852 13.8701 14.9078 13.9615 14.9458C14.0529 14.9839 14.1509 15.0035 14.25 15.0035C14.349 15.0035 14.447 14.9839 14.5384 14.9458C14.6298 14.9078 14.7127 14.852 14.7825 14.7817C14.8527 14.7119 14.9085 14.629 14.9466 14.5376C14.9847 14.4462 15.0043 14.3482 15.0043 14.2492C15.0043 14.1502 14.9847 14.0521 14.9466 13.9607C14.9085 13.8693 14.8527 13.7864 14.7825 13.7167L10.0575 8.99916Z" fill="white"/>
</svg>
