<svg width="222" height="202" viewBox="0 0 222 202" fill="none" xmlns="http://www.w3.org/2000/svg">
<g clip-path="url(#clip0_1265_12573)">
<path d="M111 72.2446C115.044 72.2446 119.049 73.0399 122.786 74.585C126.523 76.1301 129.918 78.3947 132.778 81.2497C135.638 84.1046 137.906 87.494 139.454 91.2241C141.002 94.9543 141.798 98.9523 141.798 102.99V176.653H80.2016V102.99C80.2016 98.9523 80.9982 94.9543 82.546 91.2241C84.0937 87.494 86.3623 84.1046 89.2222 81.2497C92.0821 78.3947 95.4773 76.1301 99.2139 74.585C102.951 73.0399 106.955 72.2446 111 72.2446Z" fill="#E6E6E6"/>
<path d="M100.315 109.209H94.7837V127.53H100.315V109.209Z" fill="white"/>
<path d="M120.177 129.036H101.823V145.601H120.177V129.036Z" fill="white"/>
<path d="M120.177 109.209H101.823V127.53H120.177V109.209Z" fill="white"/>
<path d="M121.685 107.703H127.216V107.326C127.218 105.021 126.726 102.742 125.772 100.642C124.818 98.5427 123.424 96.6715 121.685 95.1545V107.703Z" fill="white"/>
<path d="M101.823 107.703H120.177V93.9805C117.478 92.1247 114.277 91.1332 111 91.1377C107.723 91.1332 104.522 92.1248 101.823 93.9805V107.703Z" fill="white"/>
<path d="M100.315 129.036H94.7837V141.585C94.7837 142.65 95.2075 143.671 95.9619 144.425C96.7163 145.178 97.7395 145.601 98.8063 145.601H100.315V129.036Z" fill="white"/>
<path d="M121.685 129.036V145.601H123.194C124.261 145.601 125.284 145.178 126.038 144.425C126.792 143.671 127.216 142.65 127.216 141.585V129.036H121.685Z" fill="white"/>
<path d="M100.315 107.703V95.1545C98.5758 96.6715 97.1824 98.5427 96.2284 100.642C95.2743 102.742 94.7817 105.021 94.7837 107.326V107.703H100.315Z" fill="white"/>
<path d="M127.216 109.209H121.685V127.53H127.216V109.209Z" fill="white"/>
<path d="M137.399 133.554C139.204 133.554 140.667 132.093 140.667 130.291C140.667 128.489 139.204 127.028 137.399 127.028C135.594 127.028 134.13 128.489 134.13 130.291C134.13 132.093 135.594 133.554 137.399 133.554Z" fill="#3F3D56"/>
<path d="M34.3577 98.9771H30.0164V113.357H34.3577V98.9771Z" fill="#F2F2F2"/>
<path d="M49.9468 98.9771H35.5417V113.357H49.9468V98.9771Z" fill="#F2F2F2"/>
<path d="M55.4721 98.9771H51.1308V113.357H55.4721V98.9771Z" fill="#F2F2F2"/>
<path d="M51.1308 97.7951H55.4721V97.4995C55.4736 95.6901 55.087 93.9012 54.3382 92.2534C53.5894 90.6056 52.4957 89.1369 51.1308 87.9463V97.7951Z" fill="#F2F2F2"/>
<path d="M49.9468 114.539H35.5417V127.54H49.9468V114.539Z" fill="#F2F2F2"/>
<path d="M34.3577 114.539H30.0164V124.388C30.0165 125.224 30.3491 126.026 30.9412 126.617C31.5333 127.208 32.3364 127.54 33.1737 127.54H34.3577L34.3577 114.539Z" fill="#F2F2F2"/>
<path d="M51.1308 114.539V127.54H52.3148C52.7294 127.54 53.14 127.459 53.523 127.3C53.9061 127.142 54.2541 126.91 54.5473 126.617C54.8405 126.324 55.0731 125.977 55.2317 125.595C55.3904 125.212 55.4721 124.802 55.4721 124.388V114.539H51.1308Z" fill="#F2F2F2"/>
<path d="M34.3577 97.7951V87.9463C32.9928 89.1369 31.8992 90.6056 31.1504 92.2534C30.4015 93.9013 30.0149 95.6901 30.0165 97.4995V97.7951H34.3577Z" fill="#F2F2F2"/>
<path d="M35.5417 97.7951H49.9468V87.0249C47.8286 85.5684 45.3164 84.7902 42.7443 84.7937C40.1722 84.7902 37.66 85.5684 35.5417 87.0249V97.7951Z" fill="#F2F2F2"/>
<path d="M61.1418 129.112H24.4384C24.203 129.111 23.9773 129.018 23.8108 128.852C23.6443 128.686 23.5507 128.46 23.5504 128.225V125.861C23.5507 125.626 23.6443 125.401 23.8108 125.235C23.9773 125.069 24.203 124.975 24.4384 124.975H61.1418C61.3773 124.975 61.603 125.069 61.7695 125.235C61.9359 125.401 62.0296 125.626 62.0298 125.861V128.225C62.0296 128.46 61.9359 128.686 61.7695 128.852C61.603 129.018 61.3773 129.111 61.1418 129.112Z" fill="#E6E6E6"/>
<path d="M170.876 98.9771H166.535V113.357H170.876V98.9771Z" fill="#F2F2F2"/>
<path d="M186.466 98.9771H172.06V113.357H186.466V98.9771Z" fill="#F2F2F2"/>
<path d="M191.991 98.9771H187.649V113.357H191.991V98.9771Z" fill="#F2F2F2"/>
<path d="M187.649 97.7951H191.991V97.4995C191.992 95.6901 191.606 93.9012 190.857 92.2534C190.108 90.6056 189.014 89.1369 187.649 87.9463V97.7951Z" fill="#F2F2F2"/>
<path d="M186.466 114.539H172.06V127.54H186.466V114.539Z" fill="#F2F2F2"/>
<path d="M170.876 114.539H166.535V124.388C166.535 125.224 166.868 126.026 167.46 126.617C168.052 127.208 168.855 127.54 169.692 127.54H170.876L170.876 114.539Z" fill="#F2F2F2"/>
<path d="M187.649 114.539V127.54H188.833C189.248 127.54 189.659 127.459 190.042 127.3C190.425 127.142 190.773 126.91 191.066 126.617C191.359 126.324 191.592 125.977 191.75 125.595C191.909 125.212 191.991 124.802 191.991 124.388V114.539H187.649Z" fill="#F2F2F2"/>
<path d="M170.876 97.7951V87.9463C169.512 89.1369 168.418 90.6056 167.669 92.2534C166.92 93.9013 166.534 95.6901 166.535 97.4995V97.7951H170.876Z" fill="#F2F2F2"/>
<path d="M172.06 97.7951H186.466V87.0249C184.347 85.5684 181.835 84.7902 179.263 84.7937C176.691 84.7902 174.179 85.5684 172.06 87.0249V97.7951Z" fill="#F2F2F2"/>
<path d="M197.661 129.112H160.957C160.722 129.111 160.496 129.018 160.329 128.852C160.163 128.686 160.069 128.46 160.069 128.225V125.861C160.069 125.626 160.163 125.401 160.329 125.235C160.496 125.069 160.722 124.975 160.957 124.975H197.661C197.896 124.975 198.122 125.069 198.288 125.235C198.455 125.401 198.548 125.626 198.549 125.861V128.225C198.548 128.46 198.455 128.686 198.288 128.852C198.122 129.018 197.896 129.111 197.661 129.112Z" fill="#E6E6E6"/>
<path d="M208.549 176.904H13.4507C11.2511 176.901 9.14222 176.028 7.58682 174.475C6.03142 172.923 5.15651 170.817 5.15402 168.622V42.3778C5.15651 40.182 6.03142 38.0768 7.58682 36.5241C9.14222 34.9713 11.2511 34.0979 13.4507 34.0955H208.549C210.749 34.0979 212.858 34.9713 214.413 36.5241C215.969 38.0768 216.843 40.182 216.846 42.3778V168.622C216.843 170.817 215.969 172.923 214.413 174.475C212.858 176.028 210.749 176.901 208.549 176.904ZM13.4507 34.5974C11.3844 34.5998 9.40335 35.4202 7.94222 36.8788C6.48109 38.3374 5.6592 40.3151 5.65685 42.3778V168.622C5.6592 170.684 6.48109 172.662 7.94222 174.121C9.40335 175.579 11.3844 176.4 13.4507 176.402H208.549C210.616 176.4 212.597 175.579 214.058 174.121C215.519 172.662 216.341 170.684 216.343 168.622V42.3778C216.341 40.3151 215.519 38.3374 214.058 36.8788C212.597 35.4202 210.616 34.5998 208.549 34.5974H13.4507Z" fill="#CCCCCC"/>
<path d="M8.30887 50.6023C6.22027 50.6007 4.20877 49.8146 2.67428 48.4001C1.13978 46.9857 0.194686 45.0466 0.0268931 42.9683C-0.1409 40.8901 0.480897 38.8249 1.76866 37.1834C3.05642 35.5419 4.91584 34.4443 6.97721 34.1087L108.94 0.665231C110.265 0.44658 111.617 0.444925 112.942 0.660329L215.04 34.1143C217.215 34.4723 219.157 35.6774 220.442 37.4645C221.726 39.2517 222.248 41.4749 221.891 43.6456C221.535 45.8162 220.329 47.7568 218.54 49.0409C216.751 50.325 214.525 50.8476 212.35 50.4939C211.25 50.337 111.904 36.1763 110.998 36.139C110.095 36.1763 10.6525 50.3509 9.64813 50.4941C9.20536 50.5661 8.75748 50.6023 8.30887 50.6023Z" fill="#CCCCCC"/>
<path d="M154.73 156.963C154.94 156.691 155.088 156.375 155.163 156.04C155.238 155.704 155.239 155.356 155.165 155.02C155.09 154.684 154.943 154.368 154.733 154.095C154.524 153.822 154.257 153.598 153.951 153.439L154.417 148.081L151.224 147.005L150.673 154.58C150.439 155.111 150.409 155.708 150.588 156.259C150.766 156.81 151.141 157.277 151.641 157.571C152.141 157.865 152.732 157.965 153.301 157.853C153.871 157.741 154.379 157.424 154.73 156.963Z" fill="#FFB8B8"/>
<path d="M170.662 198.62L167.787 198.62L166.421 187.552L170.663 187.552L170.662 198.62Z" fill="#FFB8B8"/>
<path d="M165.734 197.8H171.278V201.284H162.244C162.244 200.826 162.335 200.373 162.51 199.95C162.685 199.528 162.942 199.144 163.267 198.82C163.591 198.497 163.975 198.24 164.399 198.065C164.822 197.89 165.276 197.8 165.734 197.8Z" fill="#2F2E41"/>
<path d="M164.137 191.276L161.346 191.961L157.372 181.539L161.492 180.529L164.137 191.276Z" fill="#FFB8B8"/>
<path d="M159.157 191.654L164.54 190.333L165.372 193.717L156.6 195.869C156.491 195.424 156.47 194.963 156.539 194.51C156.609 194.058 156.766 193.624 157.004 193.233C157.241 192.841 157.554 192.5 157.923 192.229C158.292 191.959 158.711 191.763 159.157 191.654Z" fill="#2F2E41"/>
<path d="M167.298 195.091C167.035 195.092 166.782 194.995 166.587 194.82C166.392 194.645 166.27 194.403 166.243 194.143L162.935 163.384L160.057 172.79L164.134 187.481C164.204 187.733 164.178 188.001 164.062 188.236C163.946 188.47 163.747 188.653 163.504 188.75L160.263 190.044C160.13 190.097 159.987 190.123 159.843 190.12C159.699 190.116 159.558 190.084 159.427 190.024C159.296 189.965 159.179 189.88 159.082 189.774C158.985 189.668 158.911 189.543 158.864 189.408L153.868 175.099C153.321 173.537 153.079 171.885 153.155 170.232L153.852 154.79L172.217 155.567L171.93 193.769C171.926 194.035 171.824 194.291 171.642 194.485C171.46 194.679 171.212 194.799 170.946 194.82L167.38 195.088C167.352 195.09 167.325 195.091 167.298 195.091Z" fill="#2F2E41"/>
<path d="M164.256 120.618C167.667 120.618 170.431 117.858 170.431 114.453C170.431 111.049 167.667 108.289 164.256 108.289C160.846 108.289 158.081 111.049 158.081 114.453C158.081 117.858 160.846 120.618 164.256 120.618Z" fill="#FFB8B8"/>
<path d="M168.797 156.571C167.171 156.571 165.151 156.438 163.061 156.301C160.205 156.113 157.251 155.92 155.047 156.047C154.749 156.076 154.449 156.029 154.175 155.91C153.9 155.791 153.661 155.603 153.48 155.366C151.208 152.461 154.713 141.133 154.863 140.652L157.716 127.986C158.343 125.2 160.348 123.145 162.949 122.623C165.382 122.135 167.736 123.108 169.246 125.227C169.326 125.339 169.406 125.455 169.486 125.573C174.402 132.84 171.622 150.896 171.435 152.061C171.695 152.372 173.099 154.127 172.713 155.347C172.556 155.843 172.13 156.181 171.445 156.352C170.574 156.524 169.686 156.598 168.797 156.571Z" fill="#CCCCCC"/>
<path d="M155.147 156.577C154.587 156.577 153.833 156.371 152.815 155.948C152.378 155.767 151.048 155.214 152.663 141.122C153.456 134.2 154.593 127.326 154.604 127.258L154.615 127.192L154.677 127.164C154.706 127.151 157.608 125.822 158.113 124.115C158.131 124.056 158.15 123.999 158.172 123.944C158.311 123.564 158.591 123.253 158.954 123.075C159.318 122.897 159.736 122.866 160.121 122.988C160.529 123.085 160.884 123.333 161.115 123.682C161.346 124.031 161.435 124.455 161.364 124.867C161.188 125.98 160.85 127.062 160.361 128.078C158.995 130.891 158.07 138.35 158.06 138.425C158.008 139.062 156.768 154.154 156.53 155.3C156.446 155.7 156.293 156.189 155.842 156.427C155.626 156.533 155.387 156.584 155.147 156.577Z" fill="#2F2E41"/>
<path d="M161.893 155.998C161.78 155.998 161.67 155.961 161.581 155.892C159.764 154.514 162.704 137.808 164.448 132.044C164.797 130.89 165.108 129.902 165.373 129.106C165.854 127.679 166.19 126.207 166.375 124.713C166.471 123.903 166.68 123.441 167.013 123.299C167.245 123.2 167.517 123.267 167.823 123.498C169.433 123.419 170.999 124.076 172.449 124.798L173.755 125.449L175.219 151.337C175.178 152.989 171.916 154.156 170.492 154.23C168.207 154.35 164.104 154.721 162.296 155.864C162.177 155.946 162.037 155.993 161.893 155.998Z" fill="#2F2E41"/>
<path d="M153.732 151.141C153.711 151.141 153.689 151.14 153.667 151.139L150.709 150.957C150.561 150.948 150.418 150.909 150.286 150.841C150.155 150.774 150.04 150.68 149.947 150.565C149.854 150.45 149.786 150.318 149.748 150.176C149.709 150.034 149.7 149.885 149.722 149.739L151.061 140.885L153.582 128.462C153.644 128.156 153.769 127.866 153.951 127.612C154.132 127.358 154.365 127.144 154.634 126.985C154.904 126.827 155.203 126.726 155.514 126.69C155.825 126.655 156.14 126.685 156.438 126.778C156.948 126.941 157.383 127.28 157.665 127.735C157.947 128.189 158.056 128.729 157.974 129.258L155.971 141.705L154.786 150.225C154.75 150.479 154.623 150.711 154.43 150.879C154.236 151.047 153.989 151.14 153.732 151.141Z" fill="#2F2E41"/>
<path d="M165.384 120.466C166.314 120.486 167.237 120.31 168.093 119.948C168.949 119.587 169.719 119.049 170.352 118.369C170.985 117.689 171.467 116.884 171.765 116.005C172.064 115.126 172.173 114.194 172.086 113.271C171.998 112.347 171.716 111.452 171.257 110.645C170.798 109.838 170.173 109.137 169.424 108.588C168.674 108.039 167.817 107.655 166.908 107.46C165.999 107.266 165.059 107.265 164.15 107.459C162.792 106.636 161.213 106.082 159.631 106.223C158.048 106.364 156.483 107.302 155.892 108.774C155.3 110.245 155.936 112.185 157.407 112.784C158.35 113.167 159.416 112.981 160.422 112.826C161.429 112.672 162.527 112.571 163.403 113.089C164.279 113.608 164.673 114.998 163.888 115.646C163.472 116.004 163.175 116.479 163.037 117.009C162.898 117.539 162.925 118.099 163.113 118.613C163.507 119.631 164.584 120.449 165.384 120.466Z" fill="#2F2E41"/>
<path d="M151.697 121.016C150.087 121.017 148.544 121.656 147.407 122.792C146.269 123.929 145.63 125.47 145.63 127.076C145.63 128.683 146.269 130.224 147.407 131.36C148.544 132.496 150.087 133.135 151.697 133.136C153.306 133.135 154.849 132.496 155.987 131.36C157.124 130.224 157.763 128.683 157.763 127.076C157.763 125.47 157.124 123.929 155.987 122.792C154.849 121.656 153.306 121.017 151.697 121.016Z" fill="#6C63FF"/>
<path d="M151.121 129.593C150.961 129.593 150.805 129.542 150.677 129.446L150.67 129.44L149 128.165C148.923 128.106 148.858 128.032 148.809 127.948C148.76 127.864 148.729 127.771 148.716 127.674C148.703 127.578 148.71 127.48 148.735 127.386C148.76 127.292 148.803 127.204 148.863 127.127C148.922 127.05 148.996 126.985 149.08 126.936C149.165 126.887 149.258 126.856 149.354 126.843C149.451 126.83 149.549 126.837 149.643 126.862C149.737 126.887 149.826 126.93 149.903 126.99L150.984 127.817L153.539 124.49C153.599 124.412 153.672 124.348 153.757 124.299C153.841 124.25 153.934 124.219 154.031 124.206C154.127 124.193 154.225 124.2 154.32 124.225C154.414 124.25 154.502 124.293 154.579 124.352L154.579 124.353L154.563 124.375L154.58 124.353C154.736 124.472 154.838 124.649 154.863 124.843C154.889 125.038 154.836 125.235 154.717 125.391L151.711 129.303C151.642 129.393 151.552 129.466 151.45 129.516C151.348 129.567 151.235 129.592 151.121 129.592L151.121 129.593Z" fill="white"/>
<path d="M164.485 137.82H143.178C142.895 137.82 142.614 137.876 142.353 137.984C142.091 138.092 141.853 138.251 141.653 138.451C141.452 138.651 141.293 138.888 141.185 139.15C141.077 139.411 141.021 139.691 141.021 139.974V161.243C141.021 161.526 141.077 161.806 141.185 162.068C141.293 162.329 141.452 162.567 141.653 162.767C141.853 162.967 142.091 163.125 142.353 163.234C142.614 163.342 142.895 163.397 143.178 163.397H164.485C164.768 163.397 165.049 163.342 165.31 163.234C165.572 163.125 165.81 162.967 166.01 162.767C166.211 162.567 166.37 162.329 166.478 162.068C166.586 161.806 166.642 161.526 166.642 161.243V139.974C166.642 139.691 166.586 139.411 166.478 139.15C166.37 138.888 166.211 138.651 166.01 138.451C165.81 138.251 165.572 138.092 165.31 137.984C165.049 137.876 164.768 137.82 164.485 137.82Z" fill="#6C63FF"/>
<path d="M159.686 153.725L149.627 155.68C149.03 155.796 148.412 155.67 147.908 155.331C147.404 154.992 147.055 154.467 146.938 153.872L146.165 149.908C146.049 149.312 146.175 148.695 146.515 148.192C146.855 147.689 147.38 147.341 147.977 147.224L158.036 145.268C158.633 145.153 159.251 145.279 159.755 145.618C160.259 145.957 160.608 146.482 160.725 147.077L161.498 151.041C161.614 151.637 161.488 152.254 161.148 152.757C160.808 153.26 160.283 153.608 159.686 153.725Z" fill="white"/>
<path d="M157.674 149.042L149.996 150.534C149.856 150.561 149.711 150.532 149.592 150.452C149.473 150.372 149.391 150.249 149.364 150.109C149.337 149.968 149.366 149.823 149.446 149.705C149.526 149.586 149.65 149.504 149.79 149.477L157.467 147.985C157.537 147.971 157.608 147.971 157.678 147.985C157.747 147.999 157.813 148.027 157.872 148.066C157.931 148.106 157.981 148.157 158.02 148.216C158.06 148.275 158.087 148.341 158.1 148.41C158.114 148.48 158.114 148.551 158.099 148.62C158.085 148.69 158.058 148.756 158.018 148.814C157.978 148.873 157.928 148.923 157.868 148.962C157.809 149.001 157.743 149.028 157.674 149.042Z" fill="#6C63FF"/>
<path d="M156.181 151.252L152.21 152.024C152.141 152.037 152.069 152.037 152 152.023C151.931 152.009 151.865 151.981 151.806 151.942C151.747 151.902 151.697 151.852 151.658 151.793C151.619 151.734 151.591 151.668 151.578 151.598C151.564 151.529 151.565 151.457 151.579 151.388C151.593 151.319 151.62 151.253 151.66 151.194C151.7 151.136 151.75 151.085 151.809 151.046C151.869 151.007 151.935 150.98 152.004 150.967L155.975 150.195C156.116 150.167 156.261 150.197 156.38 150.277C156.498 150.357 156.58 150.48 156.608 150.62C156.635 150.761 156.605 150.906 156.525 151.024C156.446 151.143 156.322 151.225 156.181 151.252Z" fill="#6C63FF"/>
<path d="M166.642 139.974V142.801H141.021V139.974C141.021 139.691 141.077 139.411 141.185 139.15C141.293 138.888 141.452 138.651 141.653 138.451C141.853 138.251 142.091 138.092 142.353 137.984C142.615 137.876 142.895 137.82 143.178 137.82H164.485C164.768 137.82 165.049 137.876 165.31 137.984C165.572 138.092 165.81 138.251 166.01 138.451C166.211 138.651 166.37 138.888 166.478 139.15C166.586 139.411 166.642 139.691 166.642 139.974Z" fill="#3F3D56"/>
<path d="M163.84 141.449C164.02 141.156 164.263 140.906 164.55 140.717C164.838 140.527 165.164 140.403 165.505 140.353C165.846 140.303 166.194 140.328 166.524 140.427C166.854 140.525 167.159 140.695 167.416 140.924L172.267 138.585L174.41 141.181L167.513 144.388C167.099 144.794 166.551 145.035 165.971 145.064C165.392 145.094 164.821 144.91 164.369 144.547C163.916 144.185 163.612 143.67 163.514 143.099C163.417 142.528 163.533 141.941 163.84 141.449Z" fill="#FFB8B8"/>
<path d="M170.578 143.961C170.34 143.961 170.108 143.881 169.92 143.734C169.732 143.586 169.6 143.38 169.544 143.148L168.839 140.224C168.786 140.004 168.804 139.773 168.892 139.564C168.98 139.355 169.132 139.18 169.327 139.065L173.577 136.526L171.404 128.586C171.251 128.022 171.285 127.423 171.5 126.879C171.705 126.364 172.064 125.924 172.528 125.619C172.993 125.315 173.54 125.161 174.095 125.178C174.651 125.195 175.188 125.382 175.632 125.714C176.077 126.047 176.409 126.508 176.582 127.035L178.98 134.345C179.275 135.236 179.277 136.198 178.987 137.09C178.696 137.983 178.128 138.759 177.366 139.308L171.201 143.76C171.02 143.891 170.802 143.961 170.578 143.961Z" fill="#2F2E41"/>
<path d="M177.6 201.5H151.956C151.889 201.5 151.825 201.474 151.778 201.426C151.731 201.379 151.705 201.316 151.705 201.249C151.705 201.182 151.731 201.119 151.778 201.072C151.825 201.024 151.889 200.998 151.956 200.998H177.6C177.667 200.998 177.731 201.024 177.778 201.072C177.825 201.119 177.852 201.182 177.852 201.249C177.852 201.316 177.825 201.379 177.778 201.426C177.731 201.474 177.667 201.5 177.6 201.5Z" fill="#CCCCCC"/>
</g>
<defs>
<clipPath id="clip0_1265_12573">
<rect width="222" height="201" fill="white" transform="translate(0 0.5)"/>
</clipPath>
</defs>
</svg>
