<svg width="32" height="32" viewBox="0 0 32 32" fill="none" xmlns="http://www.w3.org/2000/svg">
<g id="percentage">
<path id="Vector" d="M24.668 4.66669L4.668 24.668L7.32933 27.3294L27.3293 7.32935L24.668 4.66669ZM22.6707 18.6667C23.196 18.6672 23.716 18.7712 24.2011 18.9727C24.6862 19.1742 25.1269 19.4693 25.4979 19.8411C25.869 20.2129 26.1632 20.6541 26.3637 21.1396C26.5643 21.6252 26.6672 22.1454 26.6667 22.6707C26.6661 23.196 26.5622 23.716 26.3607 24.2011C26.1592 24.6862 25.8641 25.1269 25.4923 25.4979C25.1205 25.869 24.6792 26.1632 24.1937 26.3637C23.7082 26.5643 23.188 26.6672 22.6627 26.6667C21.6018 26.6656 20.5848 26.2432 19.8354 25.4923C19.086 24.7414 18.6656 23.7236 18.6667 22.6627C18.6677 21.6018 19.0902 20.5848 19.8411 19.8354C20.592 19.086 21.6098 18.6656 22.6707 18.6667ZM22.6667 21.3334C22.313 21.3334 21.9739 21.4738 21.7239 21.7239C21.4738 21.9739 21.3333 22.3131 21.3333 22.6667C21.3333 23.0203 21.4738 23.3594 21.7239 23.6095C21.9739 23.8595 22.313 24 22.6667 24C23.0203 24 23.3594 23.8595 23.6095 23.6095C23.8595 23.3594 24 23.0203 24 22.6667C24 22.3131 23.8595 21.9739 23.6095 21.7239C23.3594 21.4738 23.0203 21.3334 22.6667 21.3334ZM9.33733 5.33335C10.3982 5.33441 11.4152 5.75686 12.1646 6.50776C12.914 7.25865 13.3344 8.27649 13.3333 9.33735C13.3323 10.3982 12.9098 11.4152 12.1589 12.1646C11.408 12.914 10.3902 13.3344 9.32933 13.3334C8.26847 13.3323 7.25147 12.9098 6.50208 12.159C5.75268 11.4081 5.33227 10.3902 5.33333 9.32935C5.33439 8.26849 5.75684 7.25149 6.50773 6.5021C7.25863 5.7527 8.27647 5.33229 9.33733 5.33335ZM9.33333 8.00002C8.97971 8.00002 8.64057 8.1405 8.39052 8.39055C8.14048 8.64059 8 8.97973 8 9.33335C8 9.68698 8.14048 10.0261 8.39052 10.2762C8.64057 10.5262 8.97971 10.6667 9.33333 10.6667C9.68695 10.6667 10.0261 10.5262 10.2761 10.2762C10.5262 10.0261 10.6667 9.68698 10.6667 9.33335C10.6667 8.97973 10.5262 8.64059 10.2761 8.39055C10.0261 8.1405 9.68695 8.00002 9.33333 8.00002Z" fill="black"/>
</g>
</svg>
