<svg width="32" height="32" viewBox="0 0 32 32" fill="none" xmlns="http://www.w3.org/2000/svg">
<g id="person">
<g id="Group">
<path id="Vector" d="M5.33334 24C5.33334 22.5855 5.89525 21.2289 6.89544 20.2287C7.89563 19.2285 9.25219 18.6666 10.6667 18.6666H21.3333C22.7478 18.6666 24.1044 19.2285 25.1046 20.2287C26.1048 21.2289 26.6667 22.5855 26.6667 24C26.6667 24.7072 26.3857 25.3855 25.8856 25.8856C25.3855 26.3857 24.7073 26.6666 24 26.6666H8.00001C7.29277 26.6666 6.61449 26.3857 6.11439 25.8856C5.61429 25.3855 5.33334 24.7072 5.33334 24Z" stroke="black" stroke-width="1.16667" stroke-linejoin="round"/>
<path id="Vector_2" d="M16 13.3333C18.2091 13.3333 20 11.5425 20 9.33331C20 7.12417 18.2091 5.33331 16 5.33331C13.7909 5.33331 12 7.12417 12 9.33331C12 11.5425 13.7909 13.3333 16 13.3333Z" stroke="black" stroke-width="1.16667"/>
</g>
</g>
</svg>
