<svg width="30" height="30" viewBox="0 0 30 30" fill="none" xmlns="http://www.w3.org/2000/svg">
<g id="ph:phone-bold">
<path id="Vector" d="M26.25 18.1406L20.7316 15.6668L20.7105 15.6574C20.3518 15.5028 19.9601 15.4405 19.5711 15.4763C19.1822 15.5122 18.8084 15.6449 18.484 15.8625C18.4385 15.8929 18.3947 15.9258 18.3527 15.9609L15.7383 18.1875C14.2148 17.3613 12.641 15.8004 11.8137 14.2957L14.0473 11.6402C14.0832 11.5973 14.1164 11.5523 14.1469 11.5054C14.3587 11.1822 14.4873 10.8116 14.5213 10.4266C14.5552 10.0416 14.4934 9.65414 14.3414 9.2988C14.3378 9.292 14.3347 9.28495 14.332 9.27771L11.8594 3.74997C11.6564 3.2877 11.31 2.90305 10.8714 2.65295C10.4329 2.40285 9.92542 2.30059 9.42421 2.3613C7.72308 2.58477 6.16146 3.41983 5.03101 4.71051C3.90056 6.00119 3.27858 7.65923 3.28124 9.37497C3.28124 18.9386 11.0613 26.7187 20.625 26.7187C22.3407 26.7214 23.9988 26.0994 25.2895 24.969C26.5801 23.8385 27.4152 22.2769 27.6387 20.5758C27.6994 20.0745 27.5971 19.5671 27.347 19.1285C27.0969 18.69 26.7123 18.3436 26.25 18.1406ZM20.625 23.9062C16.7725 23.9016 13.0791 22.3691 10.355 19.645C7.63086 16.9208 6.0984 13.2275 6.09374 9.37497C6.09106 8.40407 6.42068 7.46148 7.02782 6.70382C7.63497 5.94617 8.48308 5.41908 9.43124 5.21013L11.6367 10.132L9.3914 12.8062C9.35511 12.8495 9.32145 12.8949 9.29062 12.9422C9.06931 13.2803 8.9392 13.6699 8.91291 14.0732C8.88663 14.4765 8.96507 14.8797 9.14062 15.2437C10.2445 17.5031 12.5191 19.7625 14.8019 20.8687C15.1684 21.0424 15.5736 21.1181 15.9781 21.0883C16.3825 21.0585 16.7723 20.9243 17.1094 20.6988C17.1547 20.6682 17.1981 20.635 17.2394 20.5992L19.868 18.3644L24.7898 20.5687C24.5809 21.5169 24.0538 22.365 23.2961 22.9721C22.5385 23.5793 21.5959 23.9089 20.625 23.9062Z" fill="black"/>
</g>
</svg>
