<svg width="26" height="26" viewBox="0 0 26 26" fill="none" xmlns="http://www.w3.org/2000/svg">
<path d="M11.75 9.25H16.75C17.0815 9.25 17.3995 9.1183 17.6339 8.88388C17.8683 8.64946 18 8.33152 18 8C18 7.66848 17.8683 7.35054 17.6339 7.11612C17.3995 6.8817 17.0815 6.75 16.75 6.75H14.25V5.5C14.25 5.16848 14.1183 4.85054 13.8839 4.61612C13.6495 4.3817 13.3315 4.25 13 4.25C12.6685 4.25 12.3505 4.3817 12.1161 4.61612C11.8817 4.85054 11.75 5.16848 11.75 5.5V6.75C10.7554 6.75 9.80161 7.14509 9.09835 7.84835C8.39509 8.55161 8 9.50544 8 10.5C8 11.4946 8.39509 12.4484 9.09835 13.1517C9.80161 13.8549 10.7554 14.25 11.75 14.25H14.25C14.5815 14.25 14.8995 14.3817 15.1339 14.6161C15.3683 14.8505 15.5 15.1685 15.5 15.5C15.5 15.8315 15.3683 16.1495 15.1339 16.3839C14.8995 16.6183 14.5815 16.75 14.25 16.75H9.25C8.91848 16.75 8.60054 16.8817 8.36612 17.1161C8.1317 17.3505 8 17.6685 8 18C8 18.3315 8.1317 18.6495 8.36612 18.8839C8.60054 19.1183 8.91848 19.25 9.25 19.25H11.75V20.5C11.75 20.8315 11.8817 21.1495 12.1161 21.3839C12.3505 21.6183 12.6685 21.75 13 21.75C13.3315 21.75 13.6495 21.6183 13.8839 21.3839C14.1183 21.1495 14.25 20.8315 14.25 20.5V19.25C15.2446 19.25 16.1984 18.8549 16.9017 18.1517C17.6049 17.4484 18 16.4946 18 15.5C18 14.5054 17.6049 13.5516 16.9017 12.8483C16.1984 12.1451 15.2446 11.75 14.25 11.75H11.75C11.4185 11.75 11.1005 11.6183 10.8661 11.3839C10.6317 11.1495 10.5 10.8315 10.5 10.5C10.5 10.1685 10.6317 9.85054 10.8661 9.61612C11.1005 9.3817 11.4185 9.25 11.75 9.25ZM21.75 0.5H4.25C3.25544 0.5 2.30161 0.895088 1.59835 1.59835C0.895088 2.30161 0.5 3.25544 0.5 4.25V21.75C0.5 22.7446 0.895088 23.6984 1.59835 24.4017C2.30161 25.1049 3.25544 25.5 4.25 25.5H21.75C22.7446 25.5 23.6984 25.1049 24.4017 24.4017C25.1049 23.6984 25.5 22.7446 25.5 21.75V4.25C25.5 3.25544 25.1049 2.30161 24.4017 1.59835C23.6984 0.895088 22.7446 0.5 21.75 0.5ZM23 21.75C23 22.0815 22.8683 22.3995 22.6339 22.6339C22.3995 22.8683 22.0815 23 21.75 23H4.25C3.91848 23 3.60054 22.8683 3.36612 22.6339C3.1317 22.3995 3 22.0815 3 21.75V4.25C3 3.91848 3.1317 3.60054 3.36612 3.36612C3.60054 3.1317 3.91848 3 4.25 3H21.75C22.0815 3 22.3995 3.1317 22.6339 3.36612C22.8683 3.60054 23 3.91848 23 4.25V21.75Z" fill="#297DEE"/>
</svg>
