<svg width="14" height="14" viewBox="0 0 14 14" fill="none" xmlns="http://www.w3.org/2000/svg">
<g id="iconamoon:profile">
<g id="Group">
<path id="Vector" d="M2.33334 10.5C2.33334 9.88118 2.57918 9.28769 3.01676 8.8501C3.45435 8.41252 4.04784 8.16669 4.66668 8.16669H9.33334C9.95218 8.16669 10.5457 8.41252 10.9833 8.8501C11.4208 9.28769 11.6667 9.88118 11.6667 10.5C11.6667 10.8094 11.5438 11.1062 11.325 11.325C11.1062 11.5438 10.8094 11.6667 10.5 11.6667H3.50001C3.19059 11.6667 2.89384 11.5438 2.67505 11.325C2.45626 11.1062 2.33334 10.8094 2.33334 10.5Z" stroke="black" stroke-width="1.16667" stroke-linejoin="round"/>
<path id="Vector_2" d="M7 5.83334C7.9665 5.83334 8.75 5.04984 8.75 4.08334C8.75 3.11685 7.9665 2.33334 7 2.33334C6.0335 2.33334 5.25 3.11685 5.25 4.08334C5.25 5.04984 6.0335 5.83334 7 5.83334Z" stroke="black" stroke-width="1.16667"/>
</g>
</g>
</svg>
