<svg width="20" height="26" viewBox="0 0 20 26" fill="none" xmlns="http://www.w3.org/2000/svg">
<path d="M13.75 15.5H6.25C5.91848 15.5 5.60054 15.6317 5.36612 15.8661C5.1317 16.1005 5 16.4185 5 16.75C5 17.0815 5.1317 17.3995 5.36612 17.6339C5.60054 17.8683 5.91848 18 6.25 18H13.75C14.0815 18 14.3995 17.8683 14.6339 17.6339C14.8683 17.3995 15 17.0815 15 16.75C15 16.4185 14.8683 16.1005 14.6339 15.8661C14.3995 15.6317 14.0815 15.5 13.75 15.5ZM13.75 10.5H8.75C8.41848 10.5 8.10054 10.6317 7.86612 10.8661C7.6317 11.1005 7.5 11.4185 7.5 11.75C7.5 12.0815 7.6317 12.3995 7.86612 12.6339C8.10054 12.8683 8.41848 13 8.75 13H13.75C14.0815 13 14.3995 12.8683 14.6339 12.6339C14.8683 12.3995 15 12.0815 15 11.75C15 11.4185 14.8683 11.1005 14.6339 10.8661C14.3995 10.6317 14.0815 10.5 13.75 10.5ZM16.25 3H14.775C14.5171 2.27056 14.0399 1.63875 13.4088 1.19117C12.7778 0.743598 12.0237 0.502174 11.25 0.5H8.75C7.97632 0.502174 7.22225 0.743598 6.59117 1.19117C5.96009 1.63875 5.48289 2.27056 5.225 3H3.75C2.75544 3 1.80161 3.39509 1.09835 4.09835C0.395088 4.80161 0 5.75544 0 6.75V21.75C0 22.7446 0.395088 23.6984 1.09835 24.4017C1.80161 25.1049 2.75544 25.5 3.75 25.5H16.25C17.2446 25.5 18.1984 25.1049 18.9017 24.4017C19.6049 23.6984 20 22.7446 20 21.75V6.75C20 5.75544 19.6049 4.80161 18.9017 4.09835C18.1984 3.39509 17.2446 3 16.25 3ZM7.5 4.25C7.5 3.91848 7.6317 3.60054 7.86612 3.36612C8.10054 3.1317 8.41848 3 8.75 3H11.25C11.5815 3 11.8995 3.1317 12.1339 3.36612C12.3683 3.60054 12.5 3.91848 12.5 4.25V5.5H7.5V4.25ZM17.5 21.75C17.5 22.0815 17.3683 22.3995 17.1339 22.6339C16.8995 22.8683 16.5815 23 16.25 23H3.75C3.41848 23 3.10054 22.8683 2.86612 22.6339C2.6317 22.3995 2.5 22.0815 2.5 21.75V6.75C2.5 6.41848 2.6317 6.10054 2.86612 5.86612C3.10054 5.6317 3.41848 5.5 3.75 5.5H5V6.75C5 7.08152 5.1317 7.39946 5.36612 7.63388C5.60054 7.8683 5.91848 8 6.25 8H13.75C14.0815 8 14.3995 7.8683 14.6339 7.63388C14.8683 7.39946 15 7.08152 15 6.75V5.5H16.25C16.5815 5.5 16.8995 5.6317 17.1339 5.86612C17.3683 6.10054 17.5 6.41848 17.5 6.75V21.75Z" fill="#297DEE"/>
</svg>
