<svg width="40" height="40" viewBox="0 0 40 40" fill="none" xmlns="http://www.w3.org/2000/svg">
<path d="M13.3333 34.9998H6.66666C6.22463 34.9998 5.80071 34.8242 5.48814 34.5117C5.17558 34.1991 4.99999 33.7752 4.99999 33.3332V26.6665C4.99999 26.2245 4.82439 25.8006 4.51183 25.488C4.19927 25.1754 3.77535 24.9998 3.33332 24.9998C2.8913 24.9998 2.46737 25.1754 2.15481 25.488C1.84225 25.8006 1.66666 26.2245 1.66666 26.6665V33.3332C1.66666 34.6592 2.19344 35.931 3.13112 36.8687C4.0688 37.8064 5.34057 38.3332 6.66666 38.3332H13.3333C13.7753 38.3332 14.1993 38.1576 14.5118 37.845C14.8244 37.5325 15 37.1085 15 36.6665C15 36.2245 14.8244 35.8005 14.5118 35.488C14.1993 35.1754 13.7753 34.9998 13.3333 34.9998ZM36.6667 24.9998C36.2246 24.9998 35.8007 25.1754 35.4881 25.488C35.1756 25.8006 35 26.2245 35 26.6665V33.3332C35 33.7752 34.8244 34.1991 34.5118 34.5117C34.1993 34.8242 33.7753 34.9998 33.3333 34.9998H26.6667C26.2246 34.9998 25.8007 35.1754 25.4881 35.488C25.1756 35.8005 25 36.2245 25 36.6665C25 37.1085 25.1756 37.5325 25.4881 37.845C25.8007 38.1576 26.2246 38.3332 26.6667 38.3332H33.3333C34.6594 38.3332 35.9312 37.8064 36.8689 36.8687C37.8065 35.931 38.3333 34.6592 38.3333 33.3332V26.6665C38.3333 26.2245 38.1577 25.8006 37.8452 25.488C37.5326 25.1754 37.1087 24.9998 36.6667 24.9998ZM33.3333 1.6665H26.6667C26.2246 1.6665 25.8007 1.8421 25.4881 2.15466C25.1756 2.46722 25 2.89114 25 3.33317C25 3.7752 25.1756 4.19912 25.4881 4.51168C25.8007 4.82424 26.2246 4.99984 26.6667 4.99984H33.3333C33.7753 4.99984 34.1993 5.17543 34.5118 5.48799C34.8244 5.80055 35 6.22448 35 6.6665V13.3332C35 13.7752 35.1756 14.1991 35.4881 14.5117C35.8007 14.8242 36.2246 14.9998 36.6667 14.9998C37.1087 14.9998 37.5326 14.8242 37.8452 14.5117C38.1577 14.1991 38.3333 13.7752 38.3333 13.3332V6.6665C38.3333 5.34042 37.8065 4.06865 36.8689 3.13097C35.9312 2.19329 34.6594 1.6665 33.3333 1.6665ZM3.33332 14.9998C3.77535 14.9998 4.19927 14.8242 4.51183 14.5117C4.82439 14.1991 4.99999 13.7752 4.99999 13.3332V6.6665C4.99999 6.22448 5.17558 5.80055 5.48814 5.48799C5.80071 5.17543 6.22463 4.99984 6.66666 4.99984H13.3333C13.7753 4.99984 14.1993 4.82424 14.5118 4.51168C14.8244 4.19912 15 3.7752 15 3.33317C15 2.89114 14.8244 2.46722 14.5118 2.15466C14.1993 1.8421 13.7753 1.6665 13.3333 1.6665H6.66666C5.34057 1.6665 4.0688 2.19329 3.13112 3.13097C2.19344 4.06865 1.66666 5.34042 1.66666 6.6665V13.3332C1.66666 13.7752 1.84225 14.1991 2.15481 14.5117C2.46737 14.8242 2.8913 14.9998 3.33332 14.9998ZM16.6667 8.33317H9.99999C9.55796 8.33317 9.13404 8.50876 8.82148 8.82133C8.50892 9.13389 8.33332 9.55781 8.33332 9.99984V16.6665C8.33332 17.1085 8.50892 17.5325 8.82148 17.845C9.13404 18.1576 9.55796 18.3332 9.99999 18.3332H16.6667C17.1087 18.3332 17.5326 18.1576 17.8452 17.845C18.1577 17.5325 18.3333 17.1085 18.3333 16.6665V9.99984C18.3333 9.55781 18.1577 9.13389 17.8452 8.82133C17.5326 8.50876 17.1087 8.33317 16.6667 8.33317ZM15 14.9998H11.6667V11.6665H15V14.9998ZM23.3333 18.3332H30C30.442 18.3332 30.8659 18.1576 31.1785 17.845C31.4911 17.5325 31.6667 17.1085 31.6667 16.6665V9.99984C31.6667 9.55781 31.4911 9.13389 31.1785 8.82133C30.8659 8.50876 30.442 8.33317 30 8.33317H23.3333C22.8913 8.33317 22.4674 8.50876 22.1548 8.82133C21.8422 9.13389 21.6667 9.55781 21.6667 9.99984V16.6665C21.6667 17.1085 21.8422 17.5325 22.1548 17.845C22.4674 18.1576 22.8913 18.3332 23.3333 18.3332ZM25 11.6665H28.3333V14.9998H25V11.6665ZM16.6667 21.6665H9.99999C9.55796 21.6665 9.13404 21.8421 8.82148 22.1547C8.50892 22.4672 8.33332 22.8911 8.33332 23.3332V29.9998C8.33332 30.4419 8.50892 30.8658 8.82148 31.1783C9.13404 31.4909 9.55796 31.6665 9.99999 31.6665H16.6667C17.1087 31.6665 17.5326 31.4909 17.8452 31.1783C18.1577 30.8658 18.3333 30.4419 18.3333 29.9998V23.3332C18.3333 22.8911 18.1577 22.4672 17.8452 22.1547C17.5326 21.8421 17.1087 21.6665 16.6667 21.6665ZM15 28.3332H11.6667V24.9998H15V28.3332ZM23.3333 26.6665C23.7753 26.6665 24.1993 26.4909 24.5118 26.1783C24.8244 25.8658 25 25.4419 25 24.9998C25.442 24.9998 25.8659 24.8242 26.1785 24.5117C26.4911 24.1991 26.6667 23.7752 26.6667 23.3332C26.6667 22.8911 26.4911 22.4672 26.1785 22.1547C25.8659 21.8421 25.442 21.6665 25 21.6665H23.3333C22.8913 21.6665 22.4674 21.8421 22.1548 22.1547C21.8422 22.4672 21.6667 22.8911 21.6667 23.3332V24.9998C21.6667 25.4419 21.8422 25.8658 22.1548 26.1783C22.4674 26.4909 22.8913 26.6665 23.3333 26.6665ZM30 21.6665C29.558 21.6665 29.134 21.8421 28.8215 22.1547C28.5089 22.4672 28.3333 22.8911 28.3333 23.3332V28.3332C27.8913 28.3332 27.4674 28.5088 27.1548 28.8213C26.8422 29.1339 26.6667 29.5578 26.6667 29.9998C26.6667 30.4419 26.8422 30.8658 27.1548 31.1783C27.4674 31.4909 27.8913 31.6665 28.3333 31.6665H30C30.442 31.6665 30.8659 31.4909 31.1785 31.1783C31.4911 30.8658 31.6667 30.4419 31.6667 29.9998V23.3332C31.6667 22.8911 31.4911 22.4672 31.1785 22.1547C30.8659 21.8421 30.442 21.6665 30 21.6665ZM23.3333 28.3332C23.0037 28.3332 22.6815 28.4309 22.4074 28.614C22.1333 28.7972 21.9197 29.0575 21.7935 29.362C21.6674 29.6666 21.6344 30.0017 21.6987 30.325C21.763 30.6483 21.9217 30.9453 22.1548 31.1783C22.3879 31.4114 22.6849 31.5702 23.0082 31.6345C23.3315 31.6988 23.6666 31.6658 23.9711 31.5396C24.2757 31.4135 24.536 31.1999 24.7191 30.9258C24.9022 30.6517 25 30.3295 25 29.9998C25 29.5578 24.8244 29.1339 24.5118 28.8213C24.1993 28.5088 23.7753 28.3332 23.3333 28.3332Z" fill="#ECFFEC"/>
</svg>
