<svg width="24" height="24" viewBox="0 0 24 24" fill="none" xmlns="http://www.w3.org/2000/svg">
<path d="M5.01749 4.12505C4.96741 4.11762 4.91633 4.12068 4.86749 4.13405C4.81886 4.14622 4.77317 4.16802 4.73311 4.19816C4.69305 4.2283 4.65945 4.26617 4.63427 4.30952C4.6091 4.35287 4.59288 4.40083 4.58656 4.45056C4.58024 4.50029 4.58396 4.55078 4.59749 4.59905L4.79249 5.32505C4.91699 5.8163 5.65499 5.61755 5.51624 5.13005L5.32349 4.4063C5.30567 4.33445 5.26707 4.26946 5.21251 4.21944C5.15795 4.16941 5.09061 4.13658 5.01749 4.12505ZM18.984 4.12505C18.9108 4.13663 18.8427 4.16947 18.788 4.21947C18.7333 4.26947 18.6945 4.33444 18.6765 4.4063L18.4837 5.13005C18.345 5.61755 19.083 5.8163 19.2067 5.32505L19.4017 4.5998C19.4154 4.55148 19.4192 4.50091 19.4129 4.4511C19.4067 4.40128 19.3905 4.35323 19.3653 4.30979C19.3401 4.26636 19.3065 4.22842 19.2663 4.19823C19.2262 4.16804 19.1805 4.14621 19.1317 4.13405C19.0837 4.1208 19.0333 4.11774 18.984 4.12505ZM7.54574 4.4588C7.47545 4.45484 7.40546 4.47074 7.34378 4.5047C7.28211 4.53865 7.23124 4.58928 7.19699 4.6508L6.82199 5.30105C6.55949 5.73755 7.22399 6.12155 7.47074 5.67605L7.84574 5.0258C7.87842 4.97039 7.89637 4.90753 7.89785 4.84322C7.89934 4.77891 7.88433 4.71529 7.85424 4.65843C7.82416 4.60157 7.78001 4.55337 7.726 4.51842C7.67199 4.48347 7.60994 4.46295 7.54574 4.4588ZM16.4542 4.4588C16.39 4.46295 16.328 4.48347 16.274 4.51842C16.22 4.55337 16.1758 4.60157 16.1457 4.65843C16.1157 4.71529 16.1006 4.77891 16.1021 4.84322C16.1036 4.90753 16.1216 4.97039 16.1542 5.0258L16.5292 5.67605C16.776 6.12155 17.4405 5.73755 17.178 5.30105L16.803 4.6508C16.7687 4.58928 16.7179 4.53865 16.6562 4.5047C16.5945 4.47074 16.5245 4.45484 16.4542 4.4588ZM2.96324 5.70005C2.87614 5.68653 2.78706 5.70412 2.71164 5.74974C2.63622 5.79536 2.57928 5.86609 2.55081 5.94951C2.52235 6.03294 2.52418 6.12372 2.55599 6.20593C2.58779 6.28813 2.64754 6.35651 2.72474 6.39905L3.37349 6.77405C3.80999 7.03655 4.19399 6.3713 3.74849 6.12455L3.09974 5.74955C3.05759 5.72439 3.01174 5.70759 2.96324 5.70005ZM21.0367 5.70005C20.989 5.70768 20.9431 5.72449 20.9017 5.74955L20.2515 6.12455C19.806 6.3713 20.19 7.0358 20.6265 6.7733L21.2767 6.3983C21.3537 6.35551 21.4131 6.28701 21.4446 6.20481C21.4761 6.12261 21.4777 6.03194 21.4491 5.94868C21.4205 5.86543 21.3635 5.7949 21.2881 5.74944C21.2127 5.70398 21.1237 5.6865 21.0367 5.70005ZM6.76724 6.3518L4.31849 7.00805L4.15124 7.8293L7.32374 6.9803L6.76724 6.3518ZM17.2327 6.3518L16.6755 6.9803L19.8502 7.8293L19.6815 7.00805L17.2327 6.3518ZM7.38149 7.74005L4.48424 8.5163L6.44924 10.062L7.38149 7.74005ZM16.6185 7.74005L17.55 10.062L19.5157 8.51705L16.6185 7.74005ZM7.68149 9.00905L7.14674 10.3403C7.11099 10.4296 7.05827 10.5111 6.99149 10.5803C7.69203 10.4516 8.41228 10.4783 9.10135 10.6586C9.79042 10.8389 10.4315 11.1683 10.9792 11.6235C10.5157 12.2553 10.173 12.9672 9.96824 13.7235C9.7214 14.6425 9.68395 15.6052 9.85867 16.5405C10.0334 17.4759 10.4158 18.3601 10.9777 19.128C10.4395 19.5755 9.81091 19.9012 9.13499 20.0828C8.51656 20.2485 7.87155 20.2908 7.23679 20.2072C6.60203 20.1236 5.98995 19.9158 5.4355 19.5956C4.88106 19.2754 4.39511 18.8492 4.0054 18.3412C3.6157 17.8333 3.32987 17.2535 3.16424 16.635C2.84817 15.4507 2.98988 14.1907 3.56114 13.1062C4.1324 12.0216 5.09128 11.1921 6.24674 10.7828C6.15221 10.7562 6.0638 10.7113 5.98649 10.6508L4.85999 9.76505C3.59536 10.4442 2.59694 11.5302 2.02635 12.8474C1.45577 14.1646 1.34641 15.6357 1.71599 17.0228C1.93254 17.8315 2.30627 18.5897 2.81584 19.254C3.32541 19.9183 3.96084 20.4757 4.68584 20.8944C5.41084 21.3131 6.21122 21.5849 7.04127 21.6943C7.87132 21.8036 8.71478 21.7484 9.52349 21.5318C10.436 21.2863 11.2822 20.8399 12 20.2253C12.718 20.84 13.5644 21.2864 14.4772 21.5318C15.286 21.7484 16.1294 21.8036 16.9595 21.6943C17.7895 21.5849 18.5899 21.3131 19.3149 20.8944C20.0399 20.4757 20.6753 19.9183 21.1849 19.254C21.6945 18.5897 22.0682 17.8315 22.2847 17.0228C22.6543 15.6357 22.545 14.1646 21.9744 12.8474C21.4038 11.5302 20.4054 10.4442 19.1407 9.76505L18.0135 10.65C17.9362 10.71 17.8485 10.7558 17.754 10.782C18.9095 11.1913 19.8683 12.0209 20.4396 13.1054C21.0108 14.19 21.1526 15.4499 20.8365 16.6343C20.6709 17.2528 20.385 17.8327 19.9953 18.3407C19.6055 18.8487 19.1195 19.275 18.5649 19.5952C18.0104 19.9153 17.3982 20.1231 16.7634 20.2067C16.1286 20.2902 15.4835 20.2479 14.865 20.082C14.1891 19.9004 13.5605 19.5747 13.0222 19.1273C13.5841 18.3595 13.9664 17.4754 14.1411 16.5402C14.3159 15.6049 14.2785 14.6424 14.0317 13.7235C13.8271 12.967 13.4843 12.2547 13.0207 11.6228C13.5685 11.1676 14.2096 10.8382 14.8987 10.6581C15.5878 10.4779 16.308 10.4514 17.0085 10.5803C16.9417 10.5111 16.889 10.4296 16.8532 10.3403L16.3185 9.0083C14.7407 8.96072 13.2016 9.50121 12 10.5248C10.7983 9.50148 9.25915 8.96126 7.68149 9.00905ZM12 12.7823C12.4883 13.5573 12.7475 14.4546 12.7475 15.3705C12.7475 16.2865 12.4883 17.1838 12 17.9588C11.5117 17.1838 11.2526 16.2865 11.2526 15.3705C11.2526 14.4546 11.5117 13.5573 12 12.7823Z" fill="#572E1C"/>
</svg>
