<svg width="14" height="14" viewBox="0 0 14 14" fill="none" xmlns="http://www.w3.org/2000/svg">
<path d="M13.5325 4.9675L9.0325 0.4675C8.96339 0.400037 8.8819 0.346557 8.7925 0.31C8.69951 0.272213 8.60036 0.251874 8.5 0.25H2.5C1.90326 0.25 1.33097 0.487053 0.90901 0.90901C0.487053 1.33097 0.25 1.90326 0.25 2.5V11.5C0.25 12.0967 0.487053 12.669 0.90901 13.091C1.33097 13.5129 1.90326 13.75 2.5 13.75H11.5C12.0967 13.75 12.669 13.5129 13.091 13.091C13.5129 12.669 13.75 12.0967 13.75 11.5V5.5C13.7506 5.4013 13.7317 5.30345 13.6943 5.21207C13.657 5.12069 13.602 5.03758 13.5325 4.9675ZM4.75 1.75H7.75V3.25H4.75V1.75ZM9.25 12.25H4.75V10C4.75 9.80109 4.82902 9.61032 4.96967 9.46967C5.11032 9.32902 5.30109 9.25 5.5 9.25H8.5C8.69891 9.25 8.88968 9.32902 9.03033 9.46967C9.17098 9.61032 9.25 9.80109 9.25 10V12.25ZM12.25 11.5C12.25 11.6989 12.171 11.8897 12.0303 12.0303C11.8897 12.171 11.6989 12.25 11.5 12.25H10.75V10C10.75 9.40326 10.5129 8.83097 10.091 8.40901C9.66903 7.98705 9.09674 7.75 8.5 7.75H5.5C4.90326 7.75 4.33097 7.98705 3.90901 8.40901C3.48705 8.83097 3.25 9.40326 3.25 10V12.25H2.5C2.30109 12.25 2.11032 12.171 1.96967 12.0303C1.82902 11.8897 1.75 11.6989 1.75 11.5V2.5C1.75 2.30109 1.82902 2.11032 1.96967 1.96967C2.11032 1.82902 2.30109 1.75 2.5 1.75H3.25V4C3.25 4.19891 3.32902 4.38968 3.46967 4.53033C3.61032 4.67098 3.80109 4.75 4 4.75H8.5C8.69891 4.75 8.88968 4.67098 9.03033 4.53033C9.17098 4.38968 9.25 4.19891 9.25 4V2.8075L12.25 5.8075V11.5Z" fill="white"/>
</svg>
