<svg width="16" height="16" viewBox="0 0 16 16" fill="none" xmlns="http://www.w3.org/2000/svg">
<g clip-path="url(#clip0_3601_9785)">
<path d="M14.6667 3.33366H1.33334C1.15653 3.33366 0.986958 3.4039 0.861934 3.52892C0.73691 3.65395 0.666672 3.82351 0.666672 4.00033V6.66699C0.667831 7.07962 0.796591 7.48179 1.0353 7.81837C1.274 8.15494 1.61097 8.40945 2.00001 8.54699V14.667C2.00001 14.8438 2.07024 15.0134 2.19527 15.1384C2.32029 15.2634 2.48986 15.3337 2.66667 15.3337H13.3333C13.5101 15.3337 13.6797 15.2634 13.8047 15.1384C13.9298 15.0134 14 14.8438 14 14.667V8.54699C14.389 8.40945 14.726 8.15494 14.9647 7.81837C15.2034 7.48179 15.3322 7.07962 15.3333 6.66699V4.00033C15.3333 3.82351 15.2631 3.65395 15.1381 3.52892C15.0131 3.4039 14.8435 3.33366 14.6667 3.33366ZM10 4.66699H11.3333V6.66699C11.3333 6.8438 11.2631 7.01337 11.1381 7.1384C11.0131 7.26342 10.8435 7.33366 10.6667 7.33366C10.4899 7.33366 10.3203 7.26342 10.1953 7.1384C10.0702 7.01337 10 6.8438 10 6.66699V4.66699ZM7.33334 4.66699H8.66667V6.66699C8.66667 6.8438 8.59643 7.01337 8.47141 7.1384C8.34639 7.26342 8.17682 7.33366 8 7.33366C7.82319 7.33366 7.65362 7.26342 7.5286 7.1384C7.40358 7.01337 7.33334 6.8438 7.33334 6.66699V4.66699ZM4.66667 4.66699H6V6.66699C6 6.8438 5.92977 7.01337 5.80474 7.1384C5.67972 7.26342 5.51015 7.33366 5.33334 7.33366C5.15653 7.33366 4.98696 7.26342 4.86193 7.1384C4.73691 7.01337 4.66667 6.8438 4.66667 6.66699V4.66699ZM2.66667 7.33366C2.48986 7.33366 2.32029 7.26342 2.19527 7.1384C2.07024 7.01337 2.00001 6.8438 2.00001 6.66699V4.66699H3.33334V6.66699C3.33334 6.8438 3.2631 7.01337 3.13808 7.1384C3.01305 7.26342 2.84348 7.33366 2.66667 7.33366ZM9.33334 14.0003H6.66667V12.667C6.66667 12.3134 6.80715 11.9742 7.0572 11.7242C7.30724 11.4741 7.64638 11.3337 8 11.3337C8.35363 11.3337 8.69277 11.4741 8.94281 11.7242C9.19286 11.9742 9.33334 12.3134 9.33334 12.667V14.0003ZM12.6667 14.0003H10.6667V12.667C10.6667 11.9597 10.3857 11.2815 9.88562 10.7814C9.38553 10.2813 8.70725 10.0003 8 10.0003C7.29276 10.0003 6.61448 10.2813 6.11439 10.7814C5.61429 11.2815 5.33334 11.9597 5.33334 12.667V14.0003H3.33334V8.54699C3.57838 8.45603 3.80443 8.32041 4 8.14699C4.36669 8.47496 4.84138 8.65628 5.33334 8.65628C5.82529 8.65628 6.29999 8.47496 6.66667 8.14699C7.03335 8.47496 7.50805 8.65628 8 8.65628C8.49196 8.65628 8.96666 8.47496 9.33334 8.14699C9.70002 8.47496 10.1747 8.65628 10.6667 8.65628C11.1586 8.65628 11.6333 8.47496 12 8.14699C12.1956 8.32041 12.4216 8.45603 12.6667 8.54699V14.0003ZM14 6.66699C14 6.8438 13.9298 7.01337 13.8047 7.1384C13.6797 7.26342 13.5101 7.33366 13.3333 7.33366C13.1565 7.33366 12.987 7.26342 12.8619 7.1384C12.7369 7.01337 12.6667 6.8438 12.6667 6.66699V4.66699H14V6.66699ZM2.86667 2.00033H13.3333C13.5101 2.00033 13.6797 1.93009 13.8047 1.80506C13.9298 1.68004 14 1.51047 14 1.33366C14 1.15685 13.9298 0.987279 13.8047 0.862254C13.6797 0.73723 13.5101 0.666992 13.3333 0.666992H2.86667C2.68986 0.666992 2.52029 0.73723 2.39527 0.862254C2.27024 0.987279 2.2 1.15685 2.2 1.33366C2.2 1.51047 2.27024 1.68004 2.39527 1.80506C2.52029 1.93009 2.68986 2.00033 2.86667 2.00033Z" fill="#28A138"/>
</g>
<defs>
<clipPath id="clip0_3601_9785">
<rect width="16" height="16" fill="white"/>
</clipPath>
</defs>
</svg>
