<svg width="14" height="14" viewBox="0 0 14 14" fill="none" xmlns="http://www.w3.org/2000/svg">
<path fill-rule="evenodd" clip-rule="evenodd" d="M7.0002 0.699951C7.49725 0.699951 7.9002 1.10289 7.9002 1.59995V6.09995H12.4002C12.8973 6.09995 13.3002 6.5029 13.3002 6.99995C13.3002 7.49701 12.8973 7.89995 12.4002 7.89995H7.9002V12.4C7.9002 12.897 7.49725 13.3 7.0002 13.3C6.50314 13.3 6.1002 12.897 6.1002 12.4V7.89995H1.6002C1.10314 7.89995 0.700195 7.49701 0.700195 6.99995C0.700195 6.50289 1.10314 6.09995 1.6002 6.09995L6.1002 6.09995V1.59995C6.1002 1.10289 6.50314 0.699951 7.0002 0.699951Z" fill="#297DEE"/>
</svg>
