<svg width="24" height="26" viewBox="0 0 24 26" fill="none" xmlns="http://www.w3.org/2000/svg">
<path d="M23.7249 5.19999C23.6823 5.04037 23.6084 4.8908 23.5075 4.75992C23.4067 4.62904 23.2809 4.51945 23.1374 4.43749L16.6374 0.687489C16.4955 0.604324 16.3386 0.549987 16.1756 0.527596C16.0126 0.505204 15.8469 0.515198 15.6878 0.557003C15.5287 0.598809 15.3794 0.671604 15.2485 0.771216C15.1176 0.870828 15.0076 0.995298 14.9249 1.13749L11.9999 6.21249L9.07493 1.13749C8.99223 0.995298 8.88227 0.870828 8.75137 0.771216C8.62047 0.671604 8.47119 0.598809 8.3121 0.557003C8.153 0.515198 7.98722 0.505204 7.82426 0.527596C7.6613 0.549987 7.50435 0.604324 7.36243 0.687489L0.862434 4.43749C0.718974 4.51945 0.593186 4.62904 0.492344 4.75992C0.391503 4.8908 0.317608 5.04037 0.274934 5.19999C0.192205 5.5168 0.237088 5.85342 0.399934 6.13749L5.39993 14.675C4.84212 15.6969 4.53373 16.8362 4.49993 18C4.49696 19.1353 4.75179 20.2566 5.24521 21.2791C5.73863 22.3016 6.45776 23.1988 7.34838 23.9029C8.239 24.6071 9.27787 25.0999 10.3866 25.3441C11.4954 25.5883 12.6452 25.5776 13.7492 25.3128C14.8533 25.048 15.8828 24.536 16.7601 23.8153C17.6375 23.0947 18.3398 22.1843 18.8141 21.1528C19.2884 20.1212 19.5223 18.9955 19.4982 17.8604C19.4741 16.7253 19.1926 15.6105 18.6749 14.6L23.5499 6.14999C23.6407 6.01117 23.7029 5.85568 23.7329 5.69258C23.763 5.52948 23.7602 5.36203 23.7249 5.19999ZM3.24993 5.97499L7.57493 3.47499L11.5999 10.5C9.88421 10.606 8.25842 11.304 6.99993 12.475L3.24993 5.97499ZM11.9999 23C10.6739 23 9.40208 22.4732 8.4644 21.5355C7.52672 20.5978 6.99993 19.3261 6.99993 18C6.99993 16.6739 7.52672 15.4021 8.4644 14.4645C9.40208 13.5268 10.6739 13 11.9999 13C13.326 13 14.5978 13.5268 15.5355 14.4645C16.4731 15.4021 16.9999 16.6739 16.9999 18C16.9999 19.3261 16.4731 20.5978 15.5355 21.5355C14.5978 22.4732 13.326 23 11.9999 23ZM16.9999 12.4375C16.3213 11.8176 15.5327 11.3301 14.6749 11L13.4499 8.71249L16.4749 3.47499L20.7999 5.97499L16.9999 12.4375Z" fill="#297DEE"/>
</svg>
