<svg width="16" height="16" viewBox="0 0 16 16" fill="none" xmlns="http://www.w3.org/2000/svg">
<path fill-rule="evenodd" clip-rule="evenodd" d="M7.9998 15.1998C11.9763 15.1998 15.1998 11.9763 15.1998 7.9998C15.1998 4.02335 11.9763 0.799805 7.9998 0.799805C4.02335 0.799805 0.799805 4.02335 0.799805 7.9998C0.799805 11.9763 4.02335 15.1998 7.9998 15.1998ZM6.8362 5.56341C6.48473 5.21194 5.91488 5.21194 5.56341 5.56341C5.21194 5.91488 5.21194 6.48473 5.56341 6.8362L6.72701 7.9998L5.56341 9.16341C5.21194 9.51488 5.21194 10.0847 5.56341 10.4362C5.91488 10.7877 6.48473 10.7877 6.8362 10.4362L7.9998 9.2726L9.16341 10.4362C9.51488 10.7877 10.0847 10.7877 10.4362 10.4362C10.7877 10.0847 10.7877 9.51488 10.4362 9.16341L9.2726 7.9998L10.4362 6.8362C10.7877 6.48473 10.7877 5.91488 10.4362 5.56341C10.0847 5.21194 9.51488 5.21194 9.16341 5.56341L7.9998 6.72701L6.8362 5.56341Z" fill="#D21C1C"/>
</svg>
