<svg width="26" height="26" viewBox="0 0 26 26" fill="none" xmlns="http://www.w3.org/2000/svg">
<path d="M6.75 14.25C6.50277 14.25 6.2611 14.3233 6.05554 14.4607C5.84998 14.598 5.68976 14.7932 5.59515 15.0216C5.50054 15.2501 5.47579 15.5014 5.52402 15.7439C5.57225 15.9863 5.6913 16.2091 5.86612 16.3839C6.04093 16.5587 6.26366 16.6777 6.50614 16.726C6.74861 16.7742 6.99995 16.7495 7.22835 16.6548C7.45676 16.5602 7.65199 16.4 7.78934 16.1945C7.92669 15.9889 8 15.7472 8 15.5C8 15.1685 7.8683 14.8505 7.63388 14.6161C7.39946 14.3817 7.08152 14.25 6.75 14.25ZM22.7 9.3875L21.0125 4.3125C20.7525 3.57701 20.2696 2.94092 19.631 2.49281C18.9925 2.04471 18.2301 1.8069 17.45 1.8125H10.075C9.74348 1.8125 9.42554 1.94419 9.19112 2.17861C8.9567 2.41304 8.825 2.73098 8.825 3.0625C8.825 3.39402 8.9567 3.71196 9.19112 3.94638C9.42554 4.1808 9.74348 4.3125 10.075 4.3125H17.45C17.7241 4.29908 17.9951 4.37627 18.221 4.53215C18.4469 4.68803 18.6152 4.91394 18.7 5.175L20.0125 9.25H17.575C17.2435 9.25 16.9255 9.38169 16.6911 9.61612C16.4567 9.85054 16.325 10.1685 16.325 10.5C16.325 10.8315 16.4567 11.1495 16.6911 11.3839C16.9255 11.6183 17.2435 11.75 17.575 11.75H21.75C22.0815 11.75 22.3995 11.8817 22.6339 12.1161C22.8683 12.3505 23 12.6685 23 13V17.175C23 17.5065 23.1317 17.8245 23.3661 18.0589C23.6005 18.2933 23.9185 18.425 24.25 18.425C24.5815 18.425 24.8995 18.2933 25.1339 18.0589C25.3683 17.8245 25.5 17.5065 25.5 17.175V13C25.4967 12.1735 25.2203 11.3712 24.714 10.7179C24.2076 10.0646 23.4996 9.59688 22.7 9.3875ZM2.7 0.862498C2.46462 0.618831 2.14208 0.478647 1.80335 0.472787C1.46461 0.466926 1.13742 0.595869 0.89375 0.831248C0.650082 1.06663 0.509899 1.38916 0.504039 1.7279C0.498178 2.06664 0.62712 2.39383 0.8625 2.6375L4.3875 6.15L3.3 9.3875C2.50041 9.59688 1.7924 10.0646 1.28604 10.7179C0.779678 11.3712 0.503346 12.1735 0.5 13V18C0.502174 18.7737 0.743598 19.5277 1.19117 20.1588C1.63875 20.7899 2.27056 21.2671 3 21.525V23C3 23.3315 3.1317 23.6495 3.36612 23.8839C3.60054 24.1183 3.91848 24.25 4.25 24.25C4.58152 24.25 4.89946 24.1183 5.13388 23.8839C5.3683 23.6495 5.5 23.3315 5.5 23V21.75H19.9875L20.5 22.2625V23C20.5 23.3315 20.6317 23.6495 20.8661 23.8839C21.1005 24.1183 21.4185 24.25 21.75 24.25C21.9527 24.248 22.1512 24.1919 22.325 24.0875L23.3625 25.1375C23.4787 25.2547 23.617 25.3477 23.7693 25.4111C23.9216 25.4746 24.085 25.5072 24.25 25.5072C24.415 25.5072 24.5784 25.4746 24.7307 25.4111C24.883 25.3477 25.0213 25.2547 25.1375 25.1375C25.2547 25.0213 25.3477 24.883 25.4111 24.7307C25.4746 24.5784 25.5072 24.415 25.5072 24.25C25.5072 24.085 25.4746 23.9216 25.4111 23.7693C25.3477 23.617 25.2547 23.4787 25.1375 23.3625L2.7 0.862498ZM6.45 8.125L7.575 9.25H5.9875L6.45 8.125ZM4.25 19.25C3.91848 19.25 3.60054 19.1183 3.36612 18.8839C3.1317 18.6495 3 18.3315 3 18V13C3 12.6685 3.1317 12.3505 3.36612 12.1161C3.60054 11.8817 3.91848 11.75 4.25 11.75H9.9875L12.4875 14.25H11.75C11.4185 14.25 11.1005 14.3817 10.8661 14.6161C10.6317 14.8505 10.5 15.1685 10.5 15.5C10.5 15.8315 10.6317 16.1495 10.8661 16.3839C11.1005 16.6183 11.4185 16.75 11.75 16.75H14.25C14.4527 16.748 14.6512 16.6919 14.825 16.5875L17.4875 19.25H4.25Z" fill="#297DEE"/>
</svg>
