<svg width="34" height="26" viewBox="0 0 34 26" fill="none" xmlns="http://www.w3.org/2000/svg">
<path d="M12 21.334C12 23.1749 10.5076 24.6673 8.66667 24.6673C6.82572 24.6673 5.33333 23.1749 5.33333 21.334C5.33333 19.493 6.82572 18.0007 8.66667 18.0007C10.5076 18.0007 12 19.493 12 21.334Z" fill="#5EB27E"/>
<path d="M28.6667 21.334C28.6667 23.1749 27.1743 24.6673 25.3333 24.6673C23.4924 24.6673 22 23.1749 22 21.334C22 19.493 23.4924 18.0007 25.3333 18.0007C27.1743 18.0007 28.6667 19.493 28.6667 21.334Z" fill="#5EB27E"/>
<path d="M18.6667 19.6673V3.00065C18.6667 2.08018 17.9205 1.33398 17 1.33398H3.66667C2.74619 1.33398 2 2.08018 2 3.00065V19.6673C2 20.5878 2.74619 21.334 3.66667 21.334H5.33333M18.6667 19.6673C18.6667 20.5878 17.9205 21.334 17 21.334H12M18.6667 19.6673L18.6667 6.33398C18.6667 5.41351 19.4129 4.66732 20.3333 4.66732H24.643C25.085 4.66732 25.5089 4.84291 25.8215 5.15547L31.5118 10.8458C31.8244 11.1584 32 11.5823 32 12.0243V19.6673C32 20.5878 31.2538 21.334 30.3333 21.334H28.6667M18.6667 19.6673C18.6667 20.5878 19.4129 21.334 20.3333 21.334H22M5.33333 21.334C5.33333 23.1749 6.82572 24.6673 8.66667 24.6673C10.5076 24.6673 12 23.1749 12 21.334M5.33333 21.334C5.33333 19.493 6.82572 18.0007 8.66667 18.0007C10.5076 18.0007 12 19.493 12 21.334M22 21.334C22 23.1749 23.4924 24.6673 25.3333 24.6673C27.1743 24.6673 28.6667 23.1749 28.6667 21.334M22 21.334C22 19.493 23.4924 18.0007 25.3333 18.0007C27.1743 18.0007 28.6667 19.493 28.6667 21.334" stroke="#5EB27E" stroke-width="2.66667"/>
</svg>
