<svg width="24" height="21" viewBox="0 0 24 21" fill="none" xmlns="http://www.w3.org/2000/svg">
<path d="M9 18.75C9 19.9926 7.99264 21 6.75 21C5.50736 21 4.5 19.9926 4.5 18.75C4.5 17.5074 5.50736 16.5 6.75 16.5C7.99264 16.5 9 17.5074 9 18.75Z" fill="#D21C1C"/>
<path d="M19.5 18.75C19.5 19.9926 18.4926 21 17.25 21C16.0074 21 15 19.9926 15 18.75C15 17.5074 16.0074 16.5 17.25 16.5C18.4926 16.5 19.5 17.5074 19.5 18.75Z" fill="#D21C1C"/>
<path d="M1.5 0C0.671573 0 0 0.671573 0 1.5V16.5C0 17.3284 0.671573 18 1.5 18H3.07501C3.42247 16.2883 4.93578 15 6.75 15C8.56422 15 10.0775 16.2883 10.425 18H12C12.8284 18 13.5 17.3284 13.5 16.5V1.5C13.5 0.671573 12.8284 0 12 0H1.5Z" fill="#D21C1C"/>
<path d="M18 4.5C17.1716 4.5 16.5 5.17157 16.5 6V15.075C16.7423 15.0258 16.9931 15 17.25 15C19.0642 15 20.5775 16.2883 20.925 18H22.5C23.3284 18 24 17.3284 24 16.5V9C24 8.60218 23.842 8.22064 23.5607 7.93934L20.5607 4.93934C20.2794 4.65804 19.8978 4.5 19.5 4.5H18Z" fill="#D21C1C"/>
</svg>
