<svg width="16" height="15" viewBox="0 0 16 15" fill="none" xmlns="http://www.w3.org/2000/svg">
<path d="M2.75 12H5.93C6.0287 12.0005 6.12655 11.9816 6.21793 11.9443C6.30931 11.907 6.39242 11.852 6.4625 11.7825L11.6525 6.58495L13.7825 4.49995C13.8528 4.43023 13.9086 4.34728 13.9467 4.25589C13.9847 4.16449 14.0043 4.06646 14.0043 3.96745C14.0043 3.86845 13.9847 3.77042 13.9467 3.67902C13.9086 3.58763 13.8528 3.50468 13.7825 3.43495L10.6025 0.217454C10.5328 0.147158 10.4498 0.0913622 10.3584 0.0532857C10.267 0.0152091 10.169 -0.00439453 10.07 -0.00439453C9.97099 -0.00439453 9.87296 0.0152091 9.78157 0.0532857C9.69017 0.0913622 9.60722 0.147158 9.5375 0.217454L7.4225 2.33995L2.2175 7.53745C2.14799 7.60753 2.093 7.69065 2.05567 7.78202C2.01835 7.8734 1.99943 7.97125 2 8.06995V11.25C2 11.4489 2.07902 11.6396 2.21967 11.7803C2.36032 11.9209 2.55109 12 2.75 12ZM10.07 1.80745L12.1925 3.92995L11.1275 4.99495L9.005 2.87245L10.07 1.80745ZM3.5 8.37745L7.9475 3.92995L10.07 6.05245L5.6225 10.5H3.5V8.37745ZM14.75 13.5H1.25C1.05109 13.5 0.860322 13.579 0.71967 13.7196C0.579018 13.8603 0.5 14.051 0.5 14.25C0.5 14.4489 0.579018 14.6396 0.71967 14.7803C0.860322 14.9209 1.05109 15 1.25 15H14.75C14.9489 15 15.1397 14.9209 15.2803 14.7803C15.421 14.6396 15.5 14.4489 15.5 14.25C15.5 14.051 15.421 13.8603 15.2803 13.7196C15.1397 13.579 14.9489 13.5 14.75 13.5Z" fill="white"/>
</svg>
