<svg width="19" height="18" viewBox="0 0 19 18" fill="none" xmlns="http://www.w3.org/2000/svg">
<path fill-rule="evenodd" clip-rule="evenodd" d="M16.7 9.00078C16.7 12.9772 13.4765 16.2008 9.50005 16.2008C5.5236 16.2008 2.30005 12.9772 2.30005 9.00078C2.30005 5.02433 5.5236 1.80078 9.50005 1.80078C13.4765 1.80078 16.7 5.02433 16.7 9.00078ZM11.3 6.30078C11.3 7.29489 10.4942 8.10078 9.50005 8.10078C8.50594 8.10078 7.70005 7.29489 7.70005 6.30078C7.70005 5.30667 8.50594 4.50078 9.50005 4.50078C10.4942 4.50078 11.3 5.30667 11.3 6.30078ZM9.49999 9.90078C7.6842 9.90078 6.1196 10.9762 5.40841 12.5249C6.39867 13.6736 7.86443 14.4008 9.50003 14.4008C11.1356 14.4008 12.6013 13.6736 13.5916 12.525C12.8804 10.9763 11.3158 9.90078 9.49999 9.90078Z" fill="white"/>
</svg>
