<svg width="21" height="21" viewBox="0 0 21 21" fill="none" xmlns="http://www.w3.org/2000/svg">
<path d="M20.7094 19.2875L16.9994 15.6075C18.4395 13.8119 19.1369 11.5328 18.9482 9.23876C18.7595 6.94476 17.6991 4.81025 15.9849 3.27411C14.2708 1.73797 12.0332 0.916973 9.73234 0.979933C7.43145 1.04289 5.24214 1.98502 3.61456 3.6126C1.98698 5.24018 1.04485 7.4295 0.981887 9.73039C0.918926 12.0313 1.73992 14.2688 3.27606 15.983C4.8122 17.6971 6.94672 18.7576 9.24072 18.9463C11.5347 19.135 13.8138 18.4376 15.6094 16.9975L19.2894 20.6775C19.3824 20.7712 19.493 20.8456 19.6148 20.8964C19.7367 20.9471 19.8674 20.9733 19.9994 20.9733C20.1314 20.9733 20.2621 20.9471 20.384 20.8964C20.5059 20.8456 20.6165 20.7712 20.7094 20.6775C20.8897 20.491 20.9904 20.2418 20.9904 19.9825C20.9904 19.7231 20.8897 19.4739 20.7094 19.2875ZM9.99942 16.9975C8.61495 16.9975 7.26157 16.5869 6.11042 15.8178C4.95928 15.0486 4.06207 13.9553 3.53226 12.6762C3.00245 11.3972 2.86382 9.9897 3.13392 8.63183C3.40402 7.27396 4.0707 6.02668 5.04967 5.04772C6.02864 4.06875 7.27592 3.40206 8.63378 3.13197C9.99165 2.86187 11.3991 3.00049 12.6782 3.53031C13.9573 4.06012 15.0505 4.95733 15.8197 6.10847C16.5889 7.25962 16.9994 8.61299 16.9994 9.99746C16.9994 11.854 16.2619 13.6345 14.9492 14.9472C13.6364 16.26 11.8559 16.9975 9.99942 16.9975Z" fill="#297DEE"/>
</svg>
