<svg width="24" height="26" viewBox="0 0 24 26" fill="none" xmlns="http://www.w3.org/2000/svg">
<path fill-rule="evenodd" clip-rule="evenodd" d="M0.249161 5.49836C4.76156 5.43714 8.87292 3.7155 12 0.916687C15.1271 3.7155 19.2384 5.43714 23.7508 5.49836C23.9147 6.47452 24 7.47732 24 8.50005C24 16.3373 18.9911 23.0047 12 25.4758C5.00885 23.0047 0 16.3373 0 8.50005C0 7.47732 0.0852955 6.47452 0.249161 5.49836ZM17.5607 11.0607C18.1464 10.4749 18.1464 9.52513 17.5607 8.93934C16.9749 8.35355 16.0251 8.35355 15.4393 8.93934L10.5 13.8787L8.56066 11.9393C7.97487 11.3536 7.02513 11.3536 6.43934 11.9393C5.85355 12.5251 5.85355 13.4749 6.43934 14.0607L9.43934 17.0607C10.0251 17.6464 10.9749 17.6464 11.5607 17.0607L17.5607 11.0607Z" fill="white"/>
</svg>
